SplineFontDB: 3.0
FontName: ElaineSans-Regular
FullName: Elaine Sans Regular
FamilyName: Elaine Sans
Weight: Regular
Copyright: Copyright (c) 2015 by Wei Huang. All rights reserved.
Version: 001.030
ItalicAngle: 0
UnderlinePosition: -100
UnderlineWidth: 50
Ascent: 760
Descent: 240
InvalidEm: 0
sfntRevision: 0x000107ae
LayerCount: 2
Layer: 0 0 "Back" 1
Layer: 1 0 "Fore" 0
XUID: [1021 288 1899785369 27012]
StyleMap: 0x0040
FSType: 0
OS2Version: 3
OS2_WeightWidthSlopeOnly: 0
OS2_UseTypoMetrics: 0
CreationTime: 1436215488
ModificationTime: 1543783937
PfmFamily: 81
TTFWeight: 400
TTFWidth: 5
LineGap: 0
VLineGap: 0
Panose: 0 0 5 0 0 0 0 0 0 0
OS2TypoAscent: 760
OS2TypoAOffset: 0
OS2TypoDescent: -240
OS2TypoDOffset: 0
OS2TypoLinegap: 173
OS2WinAscent: 930
OS2WinAOffset: 0
OS2WinDescent: 243
OS2WinDOffset: 0
HheadAscent: 930
HheadAOffset: 0
HheadDescent: -243
HheadDOffset: 0
OS2SubXSize: 650
OS2SubYSize: 600
OS2SubXOff: 0
OS2SubYOff: 75
OS2SupXSize: 650
OS2SupYSize: 600
OS2SupXOff: 0
OS2SupYOff: 350
OS2StrikeYSize: 50
OS2StrikeYPos: 300
OS2CapHeight: 660
OS2XHeight: 500
OS2Vendor: 'UKWN'
OS2CodePages: 20000093.00000000
OS2UnicodeRanges: 00000007.00000001.00000000.00000000
Lookup: 1 0 0 "'aalt' Access All Alternates lookup 0" { "'aalt' Access All Alternates lookup 0 subtable"  } ['aalt' ('DFLT' <'dflt' > 'grek' <'dflt' > 'latn' <'CAT ' 'MOL ' 'NLD ' 'ROM ' 'TRK ' 'dflt' > ) ]
Lookup: 3 0 0 "'aalt' Access All Alternates lookup 1" { "'aalt' Access All Alternates lookup 1 subtable"  } ['aalt' ('DFLT' <'dflt' > 'grek' <'dflt' > 'latn' <'CAT ' 'MOL ' 'NLD ' 'ROM ' 'TRK ' 'dflt' > ) ]
Lookup: 1 0 0 "'locl' Localized Forms in Latin lookup 2" { "'locl' Localized Forms in Latin lookup 2 subtable"  } ['locl' ('latn' <'TRK ' > ) ]
Lookup: 1 0 0 "'locl' Localized Forms in Latin lookup 3" { "'locl' Localized Forms in Latin lookup 3 subtable"  } ['locl' ('latn' <'TAT ' > ) ]

StartChar: .notdef
Encoding: 65536 -1 0
Width: 500
Flags: MW
LayerCount: 2
Fore
SplineSet
50 0 m 1
 50 660 l 1
 450 660 l 1
 450 0 l 1
 50 0 l 1
130 80 m 1
 370 80 l 1
 370 580 l 1
 130 580 l 1
 130 80 l 1
EndSplineSet
EndChar

StartChar: A
Encoding: 65 65 2
Width: 660
GlyphClass: 2
Flags: MW
LayerCount: 2
Fore
SplineSet
549 0 m 1
 479 183 l 1
 180 183 l 1
 110 0 l 1
 26 0 l 1
 283 660 l 1
 378 660 l 1
 634 0 l 1
 549 0 l 1
209 258 m 1
 450 258 l 1
 361 492 l 1
 330 584 l 1
 328 584 l 1
 299 495 l 1
 209 258 l 1
EndSplineSet
Substitution2: "Single Substitution lookup 56 subtable" A.swsh
Substitution2: "Single Substitution lookup 55 subtable" ordfeminine
Substitution2: "'swsh' Swash lookup 32 subtable" A.swsh
Substitution2: "'c2sc' Capitals to Small Capitals lookup 11 subtable" a.sc
AlternateSubs2: "'aalt' Access All Alternates lookup 1 subtable" a.sc ordfeminine A.swsh
EndChar

StartChar: Aacute
Encoding: 193 193 3
Width: 660
GlyphClass: 2
Flags: MW
LayerCount: 2
Fore
SplineSet
439 891 m 1
 353 743 l 1
 288 743 l 1
 345 891 l 1
 439 891 l 1
549 0 m 1
 479 183 l 1
 180 183 l 1
 110 0 l 1
 26 0 l 1
 283 660 l 1
 378 660 l 1
 634 0 l 1
 549 0 l 1
209 258 m 1
 450 258 l 1
 361 492 l 1
 330 584 l 1
 328 584 l 1
 299 495 l 1
 209 258 l 1
EndSplineSet
Substitution2: "Single Substitution lookup 56 subtable" Aacute.swsh
Substitution2: "'swsh' Swash lookup 32 subtable" Aacute.swsh
Substitution2: "'c2sc' Capitals to Small Capitals lookup 11 subtable" aacute.sc
AlternateSubs2: "'aalt' Access All Alternates lookup 1 subtable" aacute.sc Aacute.swsh
EndChar

StartChar: Abreve
Encoding: 258 258 4
Width: 660
GlyphClass: 2
Flags: MW
LayerCount: 2
Fore
SplineSet
330 737 m 0
 242 737 182 797 182 885 c 1
 248 885 l 1
 248 838 283 797 330 797 c 0
 377 797 412 838 412 885 c 1
 478 885 l 1
 478 797 418 737 330 737 c 0
549 0 m 1
 479 183 l 1
 180 183 l 1
 110 0 l 1
 26 0 l 1
 283 660 l 1
 378 660 l 1
 634 0 l 1
 549 0 l 1
209 258 m 1
 450 258 l 1
 361 492 l 1
 330 584 l 1
 328 584 l 1
 299 495 l 1
 209 258 l 1
EndSplineSet
Substitution2: "Single Substitution lookup 56 subtable" Abreve.swsh
Substitution2: "'swsh' Swash lookup 32 subtable" Abreve.swsh
Substitution2: "'c2sc' Capitals to Small Capitals lookup 11 subtable" abreve.sc
AlternateSubs2: "'aalt' Access All Alternates lookup 1 subtable" abreve.sc Abreve.swsh
EndChar

StartChar: Acircumflex
Encoding: 194 194 5
Width: 660
GlyphClass: 2
Flags: MW
LayerCount: 2
Fore
SplineSet
330 851 m 1
 244 736 l 1
 171 736 l 1
 285 903 l 1
 375 903 l 1
 489 736 l 1
 416 736 l 1
 330 851 l 1
549 0 m 1
 479 183 l 1
 180 183 l 1
 110 0 l 1
 26 0 l 1
 283 660 l 1
 378 660 l 1
 634 0 l 1
 549 0 l 1
209 258 m 1
 450 258 l 1
 361 492 l 1
 330 584 l 1
 328 584 l 1
 299 495 l 1
 209 258 l 1
EndSplineSet
Substitution2: "Single Substitution lookup 56 subtable" Acircumflex.swsh
Substitution2: "'swsh' Swash lookup 32 subtable" Acircumflex.swsh
Substitution2: "'c2sc' Capitals to Small Capitals lookup 11 subtable" acircumflex.sc
AlternateSubs2: "'aalt' Access All Alternates lookup 1 subtable" acircumflex.sc Acircumflex.swsh
EndChar

StartChar: Adieresis
Encoding: 196 196 6
Width: 660
GlyphClass: 2
Flags: MW
LayerCount: 2
Fore
SplineSet
233 742 m 0
 199 742 176 765 176 799 c 0
 176 833 199 856 233 856 c 0
 267 856 290 833 290 799 c 0
 290 765 267 742 233 742 c 0
427 742 m 0
 393 742 370 765 370 799 c 0
 370 833 393 856 427 856 c 0
 461 856 484 833 484 799 c 0
 484 765 461 742 427 742 c 0
549 0 m 1
 479 183 l 1
 180 183 l 1
 110 0 l 1
 26 0 l 1
 283 660 l 1
 378 660 l 1
 634 0 l 1
 549 0 l 1
209 258 m 1
 450 258 l 1
 361 492 l 1
 330 584 l 1
 328 584 l 1
 299 495 l 1
 209 258 l 1
EndSplineSet
Substitution2: "Single Substitution lookup 56 subtable" Adieresis.swsh
Substitution2: "'titl' Titling lookup 41 subtable" Adieresis.titl
Substitution2: "'swsh' Swash lookup 32 subtable" Adieresis.swsh
Substitution2: "'c2sc' Capitals to Small Capitals lookup 11 subtable" adieresis.sc
AlternateSubs2: "'aalt' Access All Alternates lookup 1 subtable" adieresis.sc Adieresis.swsh Adieresis.titl
EndChar

StartChar: Agrave
Encoding: 192 192 7
Width: 660
GlyphClass: 2
Flags: MW
LayerCount: 2
Fore
SplineSet
363 743 m 1
 298 743 l 1
 212 891 l 1
 306 891 l 1
 363 743 l 1
549 0 m 1
 479 183 l 1
 180 183 l 1
 110 0 l 1
 26 0 l 1
 283 660 l 1
 378 660 l 1
 634 0 l 1
 549 0 l 1
209 258 m 1
 450 258 l 1
 361 492 l 1
 330 584 l 1
 328 584 l 1
 299 495 l 1
 209 258 l 1
EndSplineSet
Substitution2: "Single Substitution lookup 56 subtable" Agrave.swsh
Substitution2: "'swsh' Swash lookup 32 subtable" Agrave.swsh
Substitution2: "'c2sc' Capitals to Small Capitals lookup 11 subtable" agrave.sc
AlternateSubs2: "'aalt' Access All Alternates lookup 1 subtable" agrave.sc Agrave.swsh
EndChar

StartChar: Amacron
Encoding: 256 256 8
Width: 660
GlyphClass: 2
Flags: MW
LayerCount: 2
Fore
SplineSet
504 823 m 1
 504 756 l 1
 156 756 l 1
 156 823 l 1
 504 823 l 1
549 0 m 1
 479 183 l 1
 180 183 l 1
 110 0 l 1
 26 0 l 1
 283 660 l 1
 378 660 l 1
 634 0 l 1
 549 0 l 1
209 258 m 1
 450 258 l 1
 361 492 l 1
 330 584 l 1
 328 584 l 1
 299 495 l 1
 209 258 l 1
EndSplineSet
Substitution2: "Single Substitution lookup 56 subtable" Amacron.swsh
Substitution2: "'swsh' Swash lookup 32 subtable" Amacron.swsh
Substitution2: "'c2sc' Capitals to Small Capitals lookup 11 subtable" amacron.sc
AlternateSubs2: "'aalt' Access All Alternates lookup 1 subtable" amacron.sc Amacron.swsh
EndChar

StartChar: Aogonek
Encoding: 260 260 9
Width: 660
GlyphClass: 2
Flags: MW
LayerCount: 2
Fore
SplineSet
630 -145 m 1
 646 -196 l 1
 627 -209 593 -215 564 -215 c 0
 492 -215 445 -177 445 -111 c 0
 445 -56 476 -15 543 14 c 1
 479 183 l 1
 180 183 l 1
 110 0 l 1
 26 0 l 1
 283 660 l 1
 378 660 l 1
 634 0 l 1
 533 -33 510 -68 510 -106 c 0
 510 -139 535 -158 574 -158 c 0
 591 -158 614 -156 630 -145 c 1
209 258 m 1
 450 258 l 1
 361 492 l 1
 330 584 l 1
 328 584 l 1
 299 495 l 1
 209 258 l 1
EndSplineSet
Substitution2: "Single Substitution lookup 56 subtable" Aogonek.swsh
Substitution2: "'swsh' Swash lookup 32 subtable" Aogonek.swsh
Substitution2: "'c2sc' Capitals to Small Capitals lookup 11 subtable" aogonek.sc
AlternateSubs2: "'aalt' Access All Alternates lookup 1 subtable" aogonek.sc Aogonek.swsh
EndChar

StartChar: Aring
Encoding: 197 197 10
Width: 660
GlyphClass: 2
Flags: MW
LayerCount: 2
Fore
SplineSet
549 0 m 1
 479 183 l 1
 180 183 l 1
 110 0 l 1
 26 0 l 1
 270 627 l 1
 230 646 205 684 205 734 c 0
 205 804 256 852 331 852 c 0
 406 852 456 804 456 734 c 0
 456 684 431 646 391 627 c 1
 634 0 l 1
 549 0 l 1
330 803 m 0
 289 803 259 774 259 734 c 0
 259 694 289 665 330 665 c 0
 371 665 401 694 401 734 c 0
 401 774 371 803 330 803 c 0
209 258 m 1
 450 258 l 1
 361 492 l 1
 330 584 l 1
 328 584 l 1
 299 495 l 1
 209 258 l 1
EndSplineSet
Substitution2: "'c2sc' Capitals to Small Capitals lookup 11 subtable" aring.sc
Substitution2: "'aalt' Access All Alternates lookup 0 subtable" aring.sc
EndChar

StartChar: Atilde
Encoding: 195 195 11
Width: 660
GlyphClass: 2
Flags: MW
LayerCount: 2
Fore
SplineSet
260 811 m 0
 230 811 218 785 211 742 c 1
 148 742 l 1
 155 830 190 876 261 876 c 0
 334 876 357 808 397 808 c 0
 427 808 440 834 447 877 c 1
 510 877 l 1
 503 789 467 743 398 743 c 0
 323 743 303 811 260 811 c 0
549 0 m 1
 479 183 l 1
 180 183 l 1
 110 0 l 1
 26 0 l 1
 283 660 l 1
 378 660 l 1
 634 0 l 1
 549 0 l 1
209 258 m 1
 450 258 l 1
 361 492 l 1
 330 584 l 1
 328 584 l 1
 299 495 l 1
 209 258 l 1
EndSplineSet
Substitution2: "Single Substitution lookup 56 subtable" Atilde.swsh
Substitution2: "'swsh' Swash lookup 32 subtable" Atilde.swsh
Substitution2: "'c2sc' Capitals to Small Capitals lookup 11 subtable" atilde.sc
AlternateSubs2: "'aalt' Access All Alternates lookup 1 subtable" atilde.sc Atilde.swsh
EndChar

StartChar: AE
Encoding: 198 198 12
Width: 954
GlyphClass: 2
Flags: MW
LayerCount: 2
Fore
SplineSet
531 75 m 1
 902 75 l 1
 902 0 l 1
 451 0 l 1
 451 213 l 1
 215 213 l 1
 92 0 l 1
 6 0 l 1
 392 660 l 1
 887 660 l 1
 887 585 l 1
 531 585 l 1
 531 372 l 1
 802 372 l 1
 802 297 l 1
 531 297 l 1
 531 75 l 1
259 288 m 1
 451 288 l 1
 451 585 l 1
 431 585 l 1
 259 288 l 1
EndSplineSet
Substitution2: "'c2sc' Capitals to Small Capitals lookup 11 subtable" ae.sc
Substitution2: "'aalt' Access All Alternates lookup 0 subtable" ae.sc
EndChar

StartChar: B
Encoding: 66 66 13
Width: 653
GlyphClass: 2
Flags: MW
LayerCount: 2
Fore
SplineSet
108 0 m 1
 108 660 l 1
 343 660 l 2
 499 660 568 590 568 478 c 0
 568 411 528 350 457 336 c 1
 457 335 l 1
 535 320 585 257 585 185 c 0
 585 73 498 0 342 0 c 2
 108 0 l 1
188 370 m 1
 344 370 l 2
 438 370 484 405 484 478 c 0
 484 550 438 585 344 585 c 2
 188 585 l 1
 188 370 l 1
188 75 m 1
 361 75 l 2
 455 75 501 115 501 185 c 0
 501 255 455 295 361 295 c 2
 188 295 l 1
 188 75 l 1
EndSplineSet
Substitution2: "'c2sc' Capitals to Small Capitals lookup 11 subtable" b.sc
Substitution2: "'aalt' Access All Alternates lookup 0 subtable" b.sc
EndChar

StartChar: C
Encoding: 67 67 14
Width: 686
GlyphClass: 2
Flags: MW
LayerCount: 2
Fore
SplineSet
640 169 m 1
 598 56 498 -10 374 -10 c 0
 186 -10 68 121 68 330 c 0
 68 539 188 670 372 670 c 0
 500 670 586 616 628 516 c 1
 549 479 l 1
 520 555 466 595 378 595 c 0
 243 595 152 497 152 330 c 0
 152 164 237 65 374 65 c 0
 462 65 531 110 560 199 c 1
 640 169 l 1
EndSplineSet
Substitution2: "'c2sc' Capitals to Small Capitals lookup 11 subtable" c.sc
Substitution2: "'aalt' Access All Alternates lookup 0 subtable" c.sc
EndChar

StartChar: Cacute
Encoding: 262 262 15
Width: 686
GlyphClass: 2
Flags: MW
LayerCount: 2
Fore
SplineSet
387 891 m 1
 481 891 l 1
 395 743 l 1
 330 743 l 1
 387 891 l 1
640 169 m 1
 598 56 498 -10 374 -10 c 0
 186 -10 68 121 68 330 c 0
 68 539 188 670 372 670 c 0
 500 670 586 616 628 516 c 1
 549 479 l 1
 520 555 466 595 378 595 c 0
 243 595 152 497 152 330 c 0
 152 164 237 65 374 65 c 0
 462 65 531 110 560 199 c 1
 640 169 l 1
EndSplineSet
Substitution2: "'c2sc' Capitals to Small Capitals lookup 11 subtable" cacute.sc
Substitution2: "'aalt' Access All Alternates lookup 0 subtable" cacute.sc
EndChar

StartChar: Ccaron
Encoding: 268 268 16
Width: 686
GlyphClass: 2
Flags: MW
LayerCount: 2
Fore
SplineSet
531 905 m 1
 417 738 l 1
 327 738 l 1
 213 905 l 1
 286 905 l 1
 372 790 l 1
 458 905 l 1
 531 905 l 1
640 169 m 1
 598 56 498 -10 374 -10 c 0
 186 -10 68 121 68 330 c 0
 68 539 188 670 372 670 c 0
 500 670 586 616 628 516 c 1
 549 479 l 1
 520 555 466 595 378 595 c 0
 243 595 152 497 152 330 c 0
 152 164 237 65 374 65 c 0
 462 65 531 110 560 199 c 1
 640 169 l 1
EndSplineSet
Substitution2: "'c2sc' Capitals to Small Capitals lookup 11 subtable" ccaron.sc
Substitution2: "'aalt' Access All Alternates lookup 0 subtable" ccaron.sc
EndChar

StartChar: Ccedilla
Encoding: 199 199 17
Width: 686
GlyphClass: 2
Flags: MW
LayerCount: 2
Fore
SplineSet
640 169 m 1
 604 73 527 11 429 -5 c 1
 466 -34 485 -72 485 -108 c 0
 485 -164 443 -215 369 -215 c 0
 322 -215 287 -205 259 -180 c 1
 289 -125 l 1
 305 -142 330 -155 358 -155 c 0
 390 -155 415 -132 415 -97 c 0
 415 -60 399 -37 341 -9 c 1
 172 6 68 134 68 330 c 0
 68 539 188 670 372 670 c 0
 500 670 586 616 628 516 c 1
 549 479 l 1
 520 555 466 595 378 595 c 0
 243 595 152 497 152 330 c 0
 152 164 237 65 374 65 c 0
 462 65 531 110 560 199 c 1
 640 169 l 1
EndSplineSet
Substitution2: "'c2sc' Capitals to Small Capitals lookup 11 subtable" ccedilla.sc
Substitution2: "'aalt' Access All Alternates lookup 0 subtable" ccedilla.sc
EndChar

StartChar: D
Encoding: 68 68 18
Width: 721
GlyphClass: 2
Flags: MW
LayerCount: 2
Fore
SplineSet
321 660 m 2
 528 660 653 542 653 330 c 0
 653 118 528 0 321 0 c 2
 108 0 l 1
 108 660 l 1
 321 660 l 2
329 75 m 2
 480 75 569 170 569 330 c 0
 569 490 480 585 329 585 c 2
 188 585 l 1
 188 75 l 1
 329 75 l 2
EndSplineSet
Substitution2: "'c2sc' Capitals to Small Capitals lookup 11 subtable" d.sc
Substitution2: "'aalt' Access All Alternates lookup 0 subtable" d.sc
EndChar

StartChar: Eth
Encoding: 208 208 19
Width: 737
GlyphClass: 2
Flags: MW
LayerCount: 2
Fore
SplineSet
337 660 m 2
 544 660 669 542 669 330 c 0
 669 118 544 0 337 0 c 2
 124 0 l 1
 124 303 l 1
 26 303 l 1
 26 363 l 1
 124 363 l 1
 124 660 l 1
 337 660 l 2
345 75 m 2
 496 75 585 170 585 330 c 0
 585 490 496 585 345 585 c 2
 204 585 l 1
 204 363 l 1
 401 363 l 1
 401 303 l 1
 204 303 l 1
 204 75 l 1
 345 75 l 2
EndSplineSet
Substitution2: "'c2sc' Capitals to Small Capitals lookup 11 subtable" eth.sc
Substitution2: "'aalt' Access All Alternates lookup 0 subtable" eth.sc
EndChar

StartChar: Dcaron
Encoding: 270 270 20
Width: 721
GlyphClass: 2
Flags: MW
LayerCount: 2
Fore
SplineSet
370 738 m 1
 280 738 l 1
 166 905 l 1
 239 905 l 1
 325 790 l 1
 411 905 l 1
 484 905 l 1
 370 738 l 1
321 660 m 2
 528 660 653 542 653 330 c 0
 653 118 528 0 321 0 c 2
 108 0 l 1
 108 660 l 1
 321 660 l 2
329 75 m 2
 480 75 569 170 569 330 c 0
 569 490 480 585 329 585 c 2
 188 585 l 1
 188 75 l 1
 329 75 l 2
EndSplineSet
Substitution2: "'c2sc' Capitals to Small Capitals lookup 11 subtable" dcaron.sc
Substitution2: "'aalt' Access All Alternates lookup 0 subtable" dcaron.sc
EndChar

StartChar: Dcroat
Encoding: 272 272 21
Width: 737
GlyphClass: 2
Flags: MW
LayerCount: 2
Fore
SplineSet
337 660 m 2
 544 660 669 542 669 330 c 0
 669 118 544 0 337 0 c 2
 124 0 l 1
 124 303 l 1
 26 303 l 1
 26 363 l 1
 124 363 l 1
 124 660 l 1
 337 660 l 2
345 75 m 2
 496 75 585 170 585 330 c 0
 585 490 496 585 345 585 c 2
 204 585 l 1
 204 363 l 1
 401 363 l 1
 401 303 l 1
 204 303 l 1
 204 75 l 1
 345 75 l 2
EndSplineSet
Substitution2: "'c2sc' Capitals to Small Capitals lookup 11 subtable" dcroat.sc
Substitution2: "'aalt' Access All Alternates lookup 0 subtable" dcroat.sc
EndChar

StartChar: E
Encoding: 69 69 22
Width: 638
GlyphClass: 2
Flags: MW
AnchorPoint: "Anchor-0" 339 0 basechar 0
LayerCount: 2
Fore
SplineSet
188 75 m 1
 586 75 l 1
 586 0 l 1
 108 0 l 1
 108 660 l 1
 571 660 l 1
 571 585 l 1
 188 585 l 1
 188 372 l 1
 486 372 l 1
 486 297 l 1
 188 297 l 1
 188 75 l 1
EndSplineSet
Substitution2: "Single Substitution lookup 57 subtable" E.swsh.001
Substitution2: "Single Substitution lookup 56 subtable" E.swsh
AlternateSubs2: "'swsh' Swash lookup 33 subtable" E.swsh E.swsh.001
Substitution2: "'c2sc' Capitals to Small Capitals lookup 11 subtable" e.sc
AlternateSubs2: "'aalt' Access All Alternates lookup 1 subtable" e.sc E.swsh E.swsh.001
EndChar

StartChar: Eacute
Encoding: 201 201 23
Width: 638
GlyphClass: 2
Flags: MW
AnchorPoint: "Anchor-0" 339 0 basechar 0
LayerCount: 2
Fore
SplineSet
448 891 m 1
 362 743 l 1
 297 743 l 1
 354 891 l 1
 448 891 l 1
188 75 m 1
 586 75 l 1
 586 0 l 1
 108 0 l 1
 108 660 l 1
 571 660 l 1
 571 585 l 1
 188 585 l 1
 188 372 l 1
 486 372 l 1
 486 297 l 1
 188 297 l 1
 188 75 l 1
EndSplineSet
Substitution2: "Single Substitution lookup 57 subtable" Eacute.swsh.001
Substitution2: "Single Substitution lookup 56 subtable" Eacute.swsh
AlternateSubs2: "'swsh' Swash lookup 33 subtable" Eacute.swsh Eacute.swsh.001
Substitution2: "'c2sc' Capitals to Small Capitals lookup 11 subtable" eacute.sc
AlternateSubs2: "'aalt' Access All Alternates lookup 1 subtable" eacute.sc Eacute.swsh Eacute.swsh.001
EndChar

StartChar: Ecaron
Encoding: 282 282 24
Width: 638
GlyphClass: 2
Flags: MW
AnchorPoint: "Anchor-0" 339 0 basechar 0
LayerCount: 2
Fore
SplineSet
384 738 m 1
 294 738 l 1
 180 905 l 1
 253 905 l 1
 339 790 l 1
 425 905 l 1
 498 905 l 1
 384 738 l 1
188 75 m 1
 586 75 l 1
 586 0 l 1
 108 0 l 1
 108 660 l 1
 571 660 l 1
 571 585 l 1
 188 585 l 1
 188 372 l 1
 486 372 l 1
 486 297 l 1
 188 297 l 1
 188 75 l 1
EndSplineSet
Substitution2: "Single Substitution lookup 57 subtable" Ecaron.swsh.001
Substitution2: "Single Substitution lookup 56 subtable" Ecaron.swsh
AlternateSubs2: "'swsh' Swash lookup 33 subtable" Ecaron.swsh Ecaron.swsh.001
Substitution2: "'c2sc' Capitals to Small Capitals lookup 11 subtable" ecaron.sc
AlternateSubs2: "'aalt' Access All Alternates lookup 1 subtable" ecaron.sc Ecaron.swsh Ecaron.swsh.001
EndChar

StartChar: Ecircumflex
Encoding: 202 202 25
Width: 638
GlyphClass: 2
Flags: MW
AnchorPoint: "Anchor-0" 339 0 basechar 0
LayerCount: 2
Fore
SplineSet
339 851 m 1
 253 736 l 1
 180 736 l 1
 294 903 l 1
 384 903 l 1
 498 736 l 1
 425 736 l 1
 339 851 l 1
188 75 m 1
 586 75 l 1
 586 0 l 1
 108 0 l 1
 108 660 l 1
 571 660 l 1
 571 585 l 1
 188 585 l 1
 188 372 l 1
 486 372 l 1
 486 297 l 1
 188 297 l 1
 188 75 l 1
EndSplineSet
Substitution2: "Single Substitution lookup 57 subtable" Ecircumflex.swsh.001
Substitution2: "Single Substitution lookup 56 subtable" Ecircumflex.swsh
AlternateSubs2: "'swsh' Swash lookup 33 subtable" Ecircumflex.swsh Ecircumflex.swsh.001
Substitution2: "'c2sc' Capitals to Small Capitals lookup 11 subtable" ecircumflex.sc
AlternateSubs2: "'aalt' Access All Alternates lookup 1 subtable" ecircumflex.sc Ecircumflex.swsh Ecircumflex.swsh.001
EndChar

StartChar: Edieresis
Encoding: 203 203 26
Width: 638
GlyphClass: 2
Flags: MW
AnchorPoint: "Anchor-0" 339 0 basechar 0
LayerCount: 2
Fore
SplineSet
242 742 m 0
 208 742 185 765 185 799 c 0
 185 833 208 856 242 856 c 0
 276 856 299 833 299 799 c 0
 299 765 276 742 242 742 c 0
436 742 m 0
 402 742 379 765 379 799 c 0
 379 833 402 856 436 856 c 0
 470 856 493 833 493 799 c 0
 493 765 470 742 436 742 c 0
188 75 m 1
 586 75 l 1
 586 0 l 1
 108 0 l 1
 108 660 l 1
 571 660 l 1
 571 585 l 1
 188 585 l 1
 188 372 l 1
 486 372 l 1
 486 297 l 1
 188 297 l 1
 188 75 l 1
EndSplineSet
Substitution2: "Single Substitution lookup 57 subtable" Edieresis.swsh.001
Substitution2: "Single Substitution lookup 56 subtable" Edieresis.swsh
AlternateSubs2: "'swsh' Swash lookup 33 subtable" Edieresis.swsh Edieresis.swsh.001
Substitution2: "'c2sc' Capitals to Small Capitals lookup 11 subtable" edieresis.sc
AlternateSubs2: "'aalt' Access All Alternates lookup 1 subtable" edieresis.sc Edieresis.swsh Edieresis.swsh.001
EndChar

StartChar: Edotaccent
Encoding: 278 278 27
Width: 638
GlyphClass: 2
Flags: MW
AnchorPoint: "Anchor-0" 339 0 basechar 0
LayerCount: 2
Fore
SplineSet
339 756 m 0
 303 756 279 780 279 816 c 0
 279 852 303 876 339 876 c 0
 375 876 399 852 399 816 c 0
 399 780 375 756 339 756 c 0
188 75 m 1
 586 75 l 1
 586 0 l 1
 108 0 l 1
 108 660 l 1
 571 660 l 1
 571 585 l 1
 188 585 l 1
 188 372 l 1
 486 372 l 1
 486 297 l 1
 188 297 l 1
 188 75 l 1
EndSplineSet
Substitution2: "Single Substitution lookup 57 subtable" Edotaccent.swsh.001
Substitution2: "Single Substitution lookup 56 subtable" Edotaccent.swsh
AlternateSubs2: "'swsh' Swash lookup 33 subtable" Edotaccent.swsh Edotaccent.swsh.001
Substitution2: "'c2sc' Capitals to Small Capitals lookup 11 subtable" edotaccent.sc
AlternateSubs2: "'aalt' Access All Alternates lookup 1 subtable" edotaccent.sc Edotaccent.swsh Edotaccent.swsh.001
EndChar

StartChar: Egrave
Encoding: 200 200 28
Width: 638
GlyphClass: 2
Flags: MW
AnchorPoint: "Anchor-0" 339 0 basechar 0
LayerCount: 2
Fore
SplineSet
387 743 m 1
 322 743 l 1
 236 891 l 1
 330 891 l 1
 387 743 l 1
188 75 m 1
 586 75 l 1
 586 0 l 1
 108 0 l 1
 108 660 l 1
 571 660 l 1
 571 585 l 1
 188 585 l 1
 188 372 l 1
 486 372 l 1
 486 297 l 1
 188 297 l 1
 188 75 l 1
EndSplineSet
Substitution2: "Single Substitution lookup 57 subtable" Egrave.swsh.001
Substitution2: "Single Substitution lookup 56 subtable" Egrave.swsh
AlternateSubs2: "'swsh' Swash lookup 33 subtable" Egrave.swsh Egrave.swsh.001
Substitution2: "'c2sc' Capitals to Small Capitals lookup 11 subtable" egrave.sc
AlternateSubs2: "'aalt' Access All Alternates lookup 1 subtable" egrave.sc Egrave.swsh Egrave.swsh.001
EndChar

StartChar: Emacron
Encoding: 274 274 29
Width: 638
GlyphClass: 2
Flags: MW
AnchorPoint: "Anchor-0" 339 0 basechar 0
LayerCount: 2
Fore
SplineSet
513 823 m 1
 513 756 l 1
 165 756 l 1
 165 823 l 1
 513 823 l 1
188 75 m 1
 586 75 l 1
 586 0 l 1
 108 0 l 1
 108 660 l 1
 571 660 l 1
 571 585 l 1
 188 585 l 1
 188 372 l 1
 486 372 l 1
 486 297 l 1
 188 297 l 1
 188 75 l 1
EndSplineSet
Substitution2: "Single Substitution lookup 57 subtable" Emacron.swsh.001
Substitution2: "Single Substitution lookup 56 subtable" Emacron.swsh
AlternateSubs2: "'swsh' Swash lookup 33 subtable" Emacron.swsh Emacron.swsh.001
Substitution2: "'c2sc' Capitals to Small Capitals lookup 11 subtable" emacron.sc
AlternateSubs2: "'aalt' Access All Alternates lookup 1 subtable" emacron.sc Emacron.swsh Emacron.swsh.001
EndChar

StartChar: Eogonek
Encoding: 280 280 30
Width: 638
GlyphClass: 2
Flags: MW
AnchorPoint: "Anchor-0" 339 0 basechar 0
LayerCount: 2
Fore
SplineSet
582 -145 m 1
 598 -196 l 1
 579 -209 545 -215 516 -215 c 0
 444 -215 397 -177 397 -117 c 0
 397 -60 427 -25 484 0 c 1
 108 0 l 1
 108 660 l 1
 571 660 l 1
 571 585 l 1
 188 585 l 1
 188 372 l 1
 486 372 l 1
 486 297 l 1
 188 297 l 1
 188 75 l 1
 586 75 l 1
 586 0 l 1
 485 -34 462 -68 462 -106 c 0
 462 -139 487 -158 526 -158 c 0
 543 -158 566 -156 582 -145 c 1
EndSplineSet
Substitution2: "'c2sc' Capitals to Small Capitals lookup 11 subtable" eogonek.sc
Substitution2: "'aalt' Access All Alternates lookup 0 subtable" eogonek.sc
EndChar

StartChar: F
Encoding: 70 70 31
Width: 610
GlyphClass: 2
Flags: MW
LayerCount: 2
Fore
SplineSet
570 585 m 1
 188 585 l 1
 188 372 l 1
 486 372 l 1
 486 297 l 1
 188 297 l 1
 188 0 l 1
 108 0 l 1
 108 660 l 1
 570 660 l 1
 570 585 l 1
EndSplineSet
Substitution2: "Single Substitution lookup 56 subtable" F.swsh
Substitution2: "'swsh' Swash lookup 34 subtable" F.swsh
Substitution2: "'c2sc' Capitals to Small Capitals lookup 11 subtable" f.sc
AlternateSubs2: "'aalt' Access All Alternates lookup 1 subtable" f.sc F.swsh
EndChar

StartChar: G
Encoding: 71 71 32
Width: 724
GlyphClass: 2
Flags: MW
AnchorPoint: "Anchor-0" 405 0 basechar 0
LayerCount: 2
Fore
SplineSet
362 333 m 1
 645 333 l 1
 645 0 l 1
 585 0 l 1
 582 89 l 1
 544 27 475 -10 374 -10 c 0
 186 -10 68 121 68 330 c 0
 68 539 191 670 376 670 c 0
 507 670 589 621 640 519 c 1
 567 479 l 1
 538 555 468 595 376 595 c 0
 242 595 152 496 152 330 c 0
 152 164 230 65 377 65 c 0
 487 65 572 121 572 235 c 2
 572 258 l 1
 362 258 l 1
 362 333 l 1
EndSplineSet
Substitution2: "'ss04' Style Set 4 lookup 50 subtable" G.ss04
Substitution2: "'salt' Stylistic Alternatives lookup 42 subtable" G.ss04
Substitution2: "'c2sc' Capitals to Small Capitals lookup 11 subtable" g.sc
AlternateSubs2: "'aalt' Access All Alternates lookup 1 subtable" g.sc G.ss04
EndChar

StartChar: Gbreve
Encoding: 286 286 33
Width: 724
GlyphClass: 2
Flags: MW
AnchorPoint: "Anchor-0" 405 0 basechar 0
LayerCount: 2
Fore
SplineSet
373 737 m 0
 285 737 225 797 225 885 c 1
 291 885 l 1
 291 838 326 797 373 797 c 0
 420 797 455 838 455 885 c 1
 521 885 l 1
 521 797 461 737 373 737 c 0
362 333 m 1
 645 333 l 1
 645 0 l 1
 585 0 l 1
 582 89 l 1
 544 27 475 -10 374 -10 c 0
 186 -10 68 121 68 330 c 0
 68 539 191 670 376 670 c 0
 507 670 589 621 640 519 c 1
 567 479 l 1
 538 555 468 595 376 595 c 0
 242 595 152 496 152 330 c 0
 152 164 230 65 377 65 c 0
 487 65 572 121 572 235 c 2
 572 258 l 1
 362 258 l 1
 362 333 l 1
EndSplineSet
Substitution2: "'ss04' Style Set 4 lookup 50 subtable" Gbreve.ss04
Substitution2: "'salt' Stylistic Alternatives lookup 42 subtable" Gbreve.ss04
Substitution2: "'c2sc' Capitals to Small Capitals lookup 11 subtable" gbreve.sc
AlternateSubs2: "'aalt' Access All Alternates lookup 1 subtable" gbreve.sc Gbreve.ss04
EndChar

StartChar: H
Encoding: 72 72 34
Width: 734
GlyphClass: 2
Flags: MW
LayerCount: 2
Fore
SplineSet
546 660 m 1
 626 660 l 1
 626 0 l 1
 546 0 l 1
 546 297 l 1
 188 297 l 1
 188 0 l 1
 108 0 l 1
 108 660 l 1
 188 660 l 1
 188 372 l 1
 546 372 l 1
 546 660 l 1
EndSplineSet
Substitution2: "'sups' Superscript lookup 15 subtable" Hsuperior
Substitution2: "'subs' Subscript lookup 14 subtable" Hinferior
Substitution2: "'sinf' Scientific Inferiors lookup 13 subtable" Hinferior
Substitution2: "'c2sc' Capitals to Small Capitals lookup 11 subtable" h.sc
AlternateSubs2: "'aalt' Access All Alternates lookup 1 subtable" h.sc Hinferior Hsuperior
EndChar

StartChar: I
Encoding: 73 73 35
Width: 296
GlyphClass: 2
Flags: MW
LayerCount: 2
Fore
SplineSet
188 660 m 1
 188 0 l 1
 108 0 l 1
 108 660 l 1
 188 660 l 1
EndSplineSet
Substitution2: "'c2sc' Capitals to Small Capitals lookup 11 subtable" i.sc
Substitution2: "'aalt' Access All Alternates lookup 0 subtable" i.sc
EndChar

StartChar: IJ
Encoding: 306 306 36
Width: 862
GlyphClass: 2
Flags: MW
LayerCount: 2
Fore
SplineSet
188 660 m 1
 188 0 l 1
 108 0 l 1
 108 660 l 1
 188 660 l 1
761 660 m 1
 761 226 l 2
 761 78 677 -10 537 -10 c 0
 389 -10 317 79 343 218 c 1
 417 233 l 1
 402 120 434 65 534 65 c 0
 647 65 681 128 681 246 c 2
 681 660 l 1
 761 660 l 1
EndSplineSet
Substitution2: "'ss05' Style Set 5 lookup 51 subtable" IJ.ss05
Substitution2: "'salt' Stylistic Alternatives lookup 42 subtable" IJ.ss05
Substitution2: "'c2sc' Capitals to Small Capitals lookup 11 subtable" ij.sc
Ligature2: "'locl' Localized Forms in Latin lookup 9 subtable" I J
AlternateSubs2: "'aalt' Access All Alternates lookup 1 subtable" ij.sc IJ.ss05
EndChar

StartChar: Iacute
Encoding: 205 205 37
Width: 296
GlyphClass: 2
Flags: MW
LayerCount: 2
Fore
SplineSet
163 891 m 1
 257 891 l 1
 171 743 l 1
 106 743 l 1
 163 891 l 1
188 660 m 1
 188 0 l 1
 108 0 l 1
 108 660 l 1
 188 660 l 1
EndSplineSet
Substitution2: "'c2sc' Capitals to Small Capitals lookup 11 subtable" iacute.sc
Substitution2: "'aalt' Access All Alternates lookup 0 subtable" iacute.sc
EndChar

StartChar: Icircumflex
Encoding: 206 206 38
Width: 296
GlyphClass: 2
Flags: MW
LayerCount: 2
Fore
SplineSet
307 736 m 1
 234 736 l 1
 148 851 l 1
 62 736 l 1
 -11 736 l 1
 103 903 l 1
 193 903 l 1
 307 736 l 1
188 660 m 1
 188 0 l 1
 108 0 l 1
 108 660 l 1
 188 660 l 1
EndSplineSet
Substitution2: "'c2sc' Capitals to Small Capitals lookup 11 subtable" icircumflex.sc
Substitution2: "'aalt' Access All Alternates lookup 0 subtable" icircumflex.sc
EndChar

StartChar: Idieresis
Encoding: 207 207 39
Width: 296
GlyphClass: 2
Flags: MW
LayerCount: 2
Fore
SplineSet
62 856 m 0
 96 856 119 833 119 799 c 0
 119 765 96 742 62 742 c 0
 28 742 5 765 5 799 c 0
 5 833 28 856 62 856 c 0
234 856 m 0
 268 856 291 833 291 799 c 0
 291 765 268 742 234 742 c 0
 200 742 177 765 177 799 c 0
 177 833 200 856 234 856 c 0
188 660 m 1
 188 0 l 1
 108 0 l 1
 108 660 l 1
 188 660 l 1
EndSplineSet
Substitution2: "'c2sc' Capitals to Small Capitals lookup 11 subtable" idieresis.sc
Substitution2: "'aalt' Access All Alternates lookup 0 subtable" idieresis.sc
EndChar

StartChar: Idotaccent
Encoding: 304 304 40
Width: 296
GlyphClass: 2
Flags: MW
LayerCount: 2
Fore
SplineSet
148 876 m 0
 184 876 208 852 208 816 c 0
 208 780 184 756 148 756 c 0
 112 756 88 780 88 816 c 0
 88 852 112 876 148 876 c 0
188 660 m 1
 188 0 l 1
 108 0 l 1
 108 660 l 1
 188 660 l 1
EndSplineSet
Substitution2: "'c2sc' Capitals to Small Capitals lookup 11 subtable" i.sc.loclTRK
Substitution2: "'aalt' Access All Alternates lookup 0 subtable" i.sc.loclTRK
EndChar

StartChar: Igrave
Encoding: 204 204 41
Width: 296
GlyphClass: 2
Flags: MW
LayerCount: 2
Fore
SplineSet
124 891 m 1
 181 743 l 1
 116 743 l 1
 30 891 l 1
 124 891 l 1
188 660 m 1
 188 0 l 1
 108 0 l 1
 108 660 l 1
 188 660 l 1
EndSplineSet
Substitution2: "'c2sc' Capitals to Small Capitals lookup 11 subtable" igrave.sc
Substitution2: "'aalt' Access All Alternates lookup 0 subtable" igrave.sc
EndChar

StartChar: Imacron
Encoding: 298 298 42
Width: 296
GlyphClass: 2
Flags: MW
LayerCount: 2
Fore
SplineSet
256 823 m 1
 256 756 l 1
 40 756 l 1
 40 823 l 1
 256 823 l 1
188 660 m 1
 188 0 l 1
 108 0 l 1
 108 660 l 1
 188 660 l 1
EndSplineSet
Substitution2: "'c2sc' Capitals to Small Capitals lookup 11 subtable" imacron.sc
Substitution2: "'aalt' Access All Alternates lookup 0 subtable" imacron.sc
EndChar

StartChar: Iogonek
Encoding: 302 302 43
Width: 296
GlyphClass: 2
Flags: MW
LayerCount: 2
Fore
SplineSet
199 -142 m 1
 218 -193 l 1
 196 -208 170 -215 133 -215 c 0
 62 -215 17 -177 17 -117 c 0
 17 -68 46 -23 108 7 c 1
 108 660 l 1
 188 660 l 1
 188 0 l 1
 101 -40 81 -74 81 -103 c 0
 81 -138 101 -157 140 -157 c 0
 165 -157 183 -153 199 -142 c 1
EndSplineSet
Substitution2: "'c2sc' Capitals to Small Capitals lookup 11 subtable" iogonek.sc
Substitution2: "'aalt' Access All Alternates lookup 0 subtable" iogonek.sc
EndChar

StartChar: J
Encoding: 74 74 44
Width: 566
GlyphClass: 2
Flags: MW
LayerCount: 2
Fore
SplineSet
465 660 m 1
 465 226 l 2
 465 78 381 -10 241 -10 c 0
 93 -10 21 79 47 218 c 1
 121 233 l 1
 106 120 138 65 238 65 c 0
 351 65 385 128 385 246 c 2
 385 660 l 1
 465 660 l 1
EndSplineSet
Substitution2: "'c2sc' Capitals to Small Capitals lookup 11 subtable" j.sc
Substitution2: "'aalt' Access All Alternates lookup 0 subtable" j.sc
EndChar

StartChar: K
Encoding: 75 75 45
Width: 656
GlyphClass: 2
Flags: MW
AnchorPoint: "Anchor-0" 373 0 basechar 0
LayerCount: 2
Fore
SplineSet
532 0 m 1
 306 332 l 1
 188 212 l 1
 188 0 l 1
 108 0 l 1
 108 660 l 1
 188 660 l 1
 188 320 l 1
 520 660 l 1
 625 660 l 1
 362 391 l 1
 628 0 l 1
 532 0 l 1
EndSplineSet
Substitution2: "'c2sc' Capitals to Small Capitals lookup 11 subtable" k.sc
Substitution2: "'aalt' Access All Alternates lookup 0 subtable" k.sc
EndChar

StartChar: L
Encoding: 76 76 46
Width: 598
GlyphClass: 2
Flags: MW
AnchorPoint: "Anchor-0" 362 0 basechar 0
LayerCount: 2
Fore
SplineSet
188 75 m 1
 566 75 l 1
 566 0 l 1
 108 0 l 1
 108 660 l 1
 188 660 l 1
 188 75 l 1
EndSplineSet
Substitution2: "Single Substitution lookup 57 subtable" L.swsh
Substitution2: "'swsh' Swash lookup 34 subtable" L.swsh
Substitution2: "'c2sc' Capitals to Small Capitals lookup 11 subtable" l.sc
AlternateSubs2: "'aalt' Access All Alternates lookup 1 subtable" l.sc L.swsh
Position2: "Single Positioning lookup 6 per glyph data 0" dx=0 dy=0 dh=-152 dv=0
EndChar

StartChar: Lacute
Encoding: 313 313 47
Width: 598
GlyphClass: 2
Flags: MW
AnchorPoint: "Anchor-0" 362 0 basechar 0
LayerCount: 2
Fore
SplineSet
257 891 m 1
 171 743 l 1
 106 743 l 1
 163 891 l 1
 257 891 l 1
188 75 m 1
 566 75 l 1
 566 0 l 1
 108 0 l 1
 108 660 l 1
 188 660 l 1
 188 75 l 1
EndSplineSet
Substitution2: "Single Substitution lookup 57 subtable" Lacute.swsh
Substitution2: "'swsh' Swash lookup 34 subtable" Lacute.swsh
Substitution2: "'c2sc' Capitals to Small Capitals lookup 11 subtable" lacute.sc
AlternateSubs2: "'aalt' Access All Alternates lookup 1 subtable" lacute.sc Lacute.swsh
EndChar

StartChar: Lcaron
Encoding: 317 317 48
Width: 598
GlyphClass: 2
Flags: MW
AnchorPoint: "Anchor-0" 362 0 basechar 0
LayerCount: 2
Fore
SplineSet
376 700 m 1
 335 503 l 1
 280 503 l 1
 300 700 l 1
 376 700 l 1
188 75 m 1
 566 75 l 1
 566 0 l 1
 108 0 l 1
 108 660 l 1
 188 660 l 1
 188 75 l 1
EndSplineSet
Substitution2: "Single Substitution lookup 57 subtable" Lcaron.swsh
Substitution2: "'swsh' Swash lookup 34 subtable" Lcaron.swsh
Substitution2: "'c2sc' Capitals to Small Capitals lookup 11 subtable" lcaron.sc
AlternateSubs2: "'aalt' Access All Alternates lookup 1 subtable" lcaron.sc Lcaron.swsh
EndChar

StartChar: Ldot
Encoding: 319 319 49
Width: 618
GlyphClass: 2
Flags: MW
AnchorPoint: "Anchor-0" 362 0 basechar 0
LayerCount: 2
Fore
SplineSet
188 660 m 1
 188 75 l 1
 566 75 l 1
 566 0 l 1
 108 0 l 1
 108 660 l 1
 188 660 l 1
529 407 m 0
 568 407 594 381 594 342 c 0
 594 303 568 277 529 277 c 0
 490 277 464 303 464 342 c 0
 464 381 490 407 529 407 c 0
EndSplineSet
Substitution2: "'c2sc' Capitals to Small Capitals lookup 11 subtable" ldot.sc
Substitution2: "'aalt' Access All Alternates lookup 0 subtable" ldot.sc
EndChar

StartChar: Lslash
Encoding: 321 321 50
Width: 628
GlyphClass: 2
Flags: MW
AnchorPoint: "Anchor-0" 392 0 basechar 0
LayerCount: 2
Fore
SplineSet
218 75 m 1
 596 75 l 1
 596 0 l 1
 138 0 l 1
 138 255 l 1
 33 196 l 1
 33 279 l 1
 138 338 l 1
 138 660 l 1
 218 660 l 1
 218 382 l 1
 395 481 l 1
 395 398 l 1
 218 299 l 1
 218 75 l 1
EndSplineSet
Substitution2: "Single Substitution lookup 57 subtable" Lslash.swsh
Substitution2: "'swsh' Swash lookup 34 subtable" Lslash.swsh
Substitution2: "'c2sc' Capitals to Small Capitals lookup 11 subtable" lslash.sc
AlternateSubs2: "'aalt' Access All Alternates lookup 1 subtable" lslash.sc Lslash.swsh
EndChar

StartChar: M
Encoding: 77 77 51
Width: 854
GlyphClass: 2
Flags: MW
LayerCount: 2
Fore
SplineSet
746 660 m 1
 746 0 l 1
 670 0 l 1
 670 415 l 1
 679 589 l 1
 678 589 l 1
 461 0 l 1
 393 0 l 1
 176 589 l 1
 175 589 l 1
 184 415 l 1
 184 0 l 1
 108 0 l 1
 108 660 l 1
 231 660 l 1
 376 259 l 1
 426 94 l 1
 428 94 l 1
 479 258 l 1
 623 660 l 1
 746 660 l 1
EndSplineSet
Substitution2: "Single Substitution lookup 56 subtable" M.swsh
AlternateSubs2: "'swsh' Swash lookup 35 subtable" M.swsh M.swsh.001
Substitution2: "'c2sc' Capitals to Small Capitals lookup 11 subtable" m.sc
AlternateSubs2: "'aalt' Access All Alternates lookup 1 subtable" m.sc M.swsh M.swsh.001
EndChar

StartChar: N
Encoding: 78 78 52
Width: 734
GlyphClass: 2
Flags: MW
AnchorPoint: "Anchor-0" 397 0 basechar 0
LayerCount: 2
Fore
SplineSet
626 660 m 1
 626 0 l 1
 527 0 l 1
 251 442 l 1
 181 572 l 1
 180 572 l 1
 184 466 l 1
 184 0 l 1
 108 0 l 1
 108 660 l 1
 207 660 l 1
 482 220 l 1
 553 88 l 1
 554 88 l 1
 550 194 l 1
 550 660 l 1
 626 660 l 1
EndSplineSet
Substitution2: "Single Substitution lookup 57 subtable" N.swsh
Substitution2: "'swsh' Swash lookup 36 subtable" N.swsh
Substitution2: "'c2sc' Capitals to Small Capitals lookup 11 subtable" n.sc
AlternateSubs2: "'aalt' Access All Alternates lookup 1 subtable" n.sc N.swsh
EndChar

StartChar: Nacute
Encoding: 323 323 53
Width: 734
GlyphClass: 2
Flags: MW
AnchorPoint: "Anchor-0" 397 0 basechar 0
LayerCount: 2
Fore
SplineSet
386 891 m 1
 480 891 l 1
 394 743 l 1
 329 743 l 1
 386 891 l 1
626 660 m 1
 626 0 l 1
 527 0 l 1
 251 442 l 1
 181 572 l 1
 180 572 l 1
 184 466 l 1
 184 0 l 1
 108 0 l 1
 108 660 l 1
 207 660 l 1
 482 220 l 1
 553 88 l 1
 554 88 l 1
 550 194 l 1
 550 660 l 1
 626 660 l 1
EndSplineSet
Substitution2: "Single Substitution lookup 57 subtable" Nacute.swsh
Substitution2: "'swsh' Swash lookup 36 subtable" Nacute.swsh
Substitution2: "'c2sc' Capitals to Small Capitals lookup 11 subtable" nacute.sc
AlternateSubs2: "'aalt' Access All Alternates lookup 1 subtable" nacute.sc Nacute.swsh
EndChar

StartChar: Ncaron
Encoding: 327 327 54
Width: 734
GlyphClass: 2
Flags: MW
AnchorPoint: "Anchor-0" 397 0 basechar 0
LayerCount: 2
Fore
SplineSet
530 905 m 1
 416 738 l 1
 326 738 l 1
 212 905 l 1
 285 905 l 1
 371 790 l 1
 457 905 l 1
 530 905 l 1
626 660 m 1
 626 0 l 1
 527 0 l 1
 251 442 l 1
 181 572 l 1
 180 572 l 1
 184 466 l 1
 184 0 l 1
 108 0 l 1
 108 660 l 1
 207 660 l 1
 482 220 l 1
 553 88 l 1
 554 88 l 1
 550 194 l 1
 550 660 l 1
 626 660 l 1
EndSplineSet
Substitution2: "Single Substitution lookup 57 subtable" Ncaron.swsh
Substitution2: "'swsh' Swash lookup 36 subtable" Ncaron.swsh
Substitution2: "'c2sc' Capitals to Small Capitals lookup 11 subtable" ncaron.sc
AlternateSubs2: "'aalt' Access All Alternates lookup 1 subtable" ncaron.sc Ncaron.swsh
EndChar

StartChar: Ntilde
Encoding: 209 209 55
Width: 734
GlyphClass: 2
Flags: MW
AnchorPoint: "Anchor-0" 397 0 basechar 0
LayerCount: 2
Fore
SplineSet
551 877 m 1
 544 789 508 743 439 743 c 0
 364 743 344 811 301 811 c 0
 271 811 259 785 252 742 c 1
 189 742 l 1
 196 830 231 876 302 876 c 0
 375 876 398 808 438 808 c 0
 468 808 481 834 488 877 c 1
 551 877 l 1
626 660 m 1
 626 0 l 1
 527 0 l 1
 251 442 l 1
 181 572 l 1
 180 572 l 1
 184 466 l 1
 184 0 l 1
 108 0 l 1
 108 660 l 1
 207 660 l 1
 482 220 l 1
 553 88 l 1
 554 88 l 1
 550 194 l 1
 550 660 l 1
 626 660 l 1
EndSplineSet
Substitution2: "Single Substitution lookup 57 subtable" Ntilde.swsh
Substitution2: "'swsh' Swash lookup 36 subtable" Ntilde.swsh
Substitution2: "'c2sc' Capitals to Small Capitals lookup 11 subtable" ntilde.sc
AlternateSubs2: "'aalt' Access All Alternates lookup 1 subtable" ntilde.sc Ntilde.swsh
EndChar

StartChar: O
Encoding: 79 79 56
Width: 748
GlyphClass: 2
Flags: MW
LayerCount: 2
Fore
SplineSet
374 670 m 0
 562 670 680 539 680 330 c 0
 680 121 562 -10 374 -10 c 0
 186 -10 68 121 68 330 c 0
 68 539 186 670 374 670 c 0
374 595 m 0
 237 595 152 496 152 330 c 0
 152 164 237 65 374 65 c 0
 511 65 596 164 596 330 c 0
 596 496 511 595 374 595 c 0
EndSplineSet
Substitution2: "Single Substitution lookup 55 subtable" ordmasculine
Substitution2: "'nalt' Alternate Annotation Forms lookup 23 subtable" indexring
Substitution2: "'sups' Superscript lookup 15 subtable" Osuperior
Substitution2: "'subs' Subscript lookup 14 subtable" Oinferior
Substitution2: "'sinf' Scientific Inferiors lookup 13 subtable" Oinferior
Substitution2: "'c2sc' Capitals to Small Capitals lookup 11 subtable" o.sc
AlternateSubs2: "'aalt' Access All Alternates lookup 1 subtable" o.sc Oinferior Osuperior ordmasculine indexring
EndChar

StartChar: Oacute
Encoding: 211 211 57
Width: 748
GlyphClass: 2
Flags: MW
LayerCount: 2
Fore
SplineSet
389 891 m 1
 483 891 l 1
 397 743 l 1
 332 743 l 1
 389 891 l 1
374 670 m 0
 562 670 680 539 680 330 c 0
 680 121 562 -10 374 -10 c 0
 186 -10 68 121 68 330 c 0
 68 539 186 670 374 670 c 0
374 595 m 0
 237 595 152 496 152 330 c 0
 152 164 237 65 374 65 c 0
 511 65 596 164 596 330 c 0
 596 496 511 595 374 595 c 0
EndSplineSet
Substitution2: "'c2sc' Capitals to Small Capitals lookup 11 subtable" oacute.sc
Substitution2: "'aalt' Access All Alternates lookup 0 subtable" oacute.sc
EndChar

StartChar: Ocircumflex
Encoding: 212 212 58
Width: 748
GlyphClass: 2
Flags: MW
LayerCount: 2
Fore
SplineSet
533 736 m 1
 460 736 l 1
 374 851 l 1
 288 736 l 1
 215 736 l 1
 329 903 l 1
 419 903 l 1
 533 736 l 1
374 670 m 0
 562 670 680 539 680 330 c 0
 680 121 562 -10 374 -10 c 0
 186 -10 68 121 68 330 c 0
 68 539 186 670 374 670 c 0
374 595 m 0
 237 595 152 496 152 330 c 0
 152 164 237 65 374 65 c 0
 511 65 596 164 596 330 c 0
 596 496 511 595 374 595 c 0
EndSplineSet
Substitution2: "'c2sc' Capitals to Small Capitals lookup 11 subtable" ocircumflex.sc
Substitution2: "'aalt' Access All Alternates lookup 0 subtable" ocircumflex.sc
EndChar

StartChar: Odieresis
Encoding: 214 214 59
Width: 748
GlyphClass: 2
Flags: MW
LayerCount: 2
Fore
SplineSet
277 856 m 0
 311 856 334 833 334 799 c 0
 334 765 311 742 277 742 c 0
 243 742 220 765 220 799 c 0
 220 833 243 856 277 856 c 0
471 856 m 0
 505 856 528 833 528 799 c 0
 528 765 505 742 471 742 c 0
 437 742 414 765 414 799 c 0
 414 833 437 856 471 856 c 0
374 670 m 0
 562 670 680 539 680 330 c 0
 680 121 562 -10 374 -10 c 0
 186 -10 68 121 68 330 c 0
 68 539 186 670 374 670 c 0
374 595 m 0
 237 595 152 496 152 330 c 0
 152 164 237 65 374 65 c 0
 511 65 596 164 596 330 c 0
 596 496 511 595 374 595 c 0
EndSplineSet
Substitution2: "'titl' Titling lookup 41 subtable" Odieresis.titl
Substitution2: "'c2sc' Capitals to Small Capitals lookup 11 subtable" odieresis.sc
AlternateSubs2: "'aalt' Access All Alternates lookup 1 subtable" odieresis.sc Odieresis.titl
EndChar

StartChar: Ograve
Encoding: 210 210 60
Width: 748
GlyphClass: 2
Flags: MW
LayerCount: 2
Fore
SplineSet
350 891 m 1
 407 743 l 1
 342 743 l 1
 256 891 l 1
 350 891 l 1
374 670 m 0
 562 670 680 539 680 330 c 0
 680 121 562 -10 374 -10 c 0
 186 -10 68 121 68 330 c 0
 68 539 186 670 374 670 c 0
374 595 m 0
 237 595 152 496 152 330 c 0
 152 164 237 65 374 65 c 0
 511 65 596 164 596 330 c 0
 596 496 511 595 374 595 c 0
EndSplineSet
Substitution2: "'c2sc' Capitals to Small Capitals lookup 11 subtable" ograve.sc
Substitution2: "'aalt' Access All Alternates lookup 0 subtable" ograve.sc
EndChar

StartChar: Ohungarumlaut
Encoding: 336 336 61
Width: 748
GlyphClass: 2
Flags: MW
LayerCount: 2
Fore
SplineSet
312 891 m 1
 406 891 l 1
 320 743 l 1
 255 743 l 1
 312 891 l 1
489 891 m 1
 583 891 l 1
 497 743 l 1
 432 743 l 1
 489 891 l 1
374 670 m 0
 562 670 680 539 680 330 c 0
 680 121 562 -10 374 -10 c 0
 186 -10 68 121 68 330 c 0
 68 539 186 670 374 670 c 0
374 595 m 0
 237 595 152 496 152 330 c 0
 152 164 237 65 374 65 c 0
 511 65 596 164 596 330 c 0
 596 496 511 595 374 595 c 0
EndSplineSet
Substitution2: "'c2sc' Capitals to Small Capitals lookup 11 subtable" ohungarumlaut.sc
Substitution2: "'aalt' Access All Alternates lookup 0 subtable" ohungarumlaut.sc
EndChar

StartChar: Omacron
Encoding: 332 332 62
Width: 748
GlyphClass: 2
Flags: MW
LayerCount: 2
Fore
SplineSet
548 823 m 1
 548 756 l 1
 200 756 l 1
 200 823 l 1
 548 823 l 1
374 670 m 0
 562 670 680 539 680 330 c 0
 680 121 562 -10 374 -10 c 0
 186 -10 68 121 68 330 c 0
 68 539 186 670 374 670 c 0
374 595 m 0
 237 595 152 496 152 330 c 0
 152 164 237 65 374 65 c 0
 511 65 596 164 596 330 c 0
 596 496 511 595 374 595 c 0
EndSplineSet
Substitution2: "'c2sc' Capitals to Small Capitals lookup 11 subtable" omacron.sc
Substitution2: "'aalt' Access All Alternates lookup 0 subtable" omacron.sc
EndChar

StartChar: Oslash
Encoding: 216 216 63
Width: 748
GlyphClass: 2
Flags: MW
LayerCount: 2
Fore
SplineSet
592 584 m 1
 648 525 680 438 680 330 c 0
 680 121 562 -10 374 -10 c 0
 310 -10 254 5 208 33 c 1
 159 -37 l 1
 88 -37 l 1
 162 70 l 1
 102 129 68 218 68 330 c 0
 68 539 186 670 374 670 c 0
 442 670 500 653 547 622 c 1
 590 683 l 1
 661 683 l 1
 592 584 l 1
152 330 m 0
 152 249 172 183 209 138 c 1
 502 557 l 1
 467 582 424 595 374 595 c 0
 237 595 152 496 152 330 c 0
374 65 m 0
 511 65 596 164 596 330 c 0
 596 407 578 470 544 515 c 1
 253 98 l 1
 287 76 327 65 374 65 c 0
EndSplineSet
Substitution2: "'c2sc' Capitals to Small Capitals lookup 11 subtable" oslash.sc
Substitution2: "'aalt' Access All Alternates lookup 0 subtable" oslash.sc
EndChar

StartChar: Otilde
Encoding: 213 213 64
Width: 748
GlyphClass: 2
Flags: MW
LayerCount: 2
Fore
SplineSet
554 877 m 1
 547 789 511 743 442 743 c 0
 367 743 347 811 304 811 c 0
 274 811 262 785 255 742 c 1
 192 742 l 1
 199 830 234 876 305 876 c 0
 378 876 401 808 441 808 c 0
 471 808 484 834 491 877 c 1
 554 877 l 1
374 670 m 0
 562 670 680 539 680 330 c 0
 680 121 562 -10 374 -10 c 0
 186 -10 68 121 68 330 c 0
 68 539 186 670 374 670 c 0
374 595 m 0
 237 595 152 496 152 330 c 0
 152 164 237 65 374 65 c 0
 511 65 596 164 596 330 c 0
 596 496 511 595 374 595 c 0
EndSplineSet
Substitution2: "'c2sc' Capitals to Small Capitals lookup 11 subtable" otilde.sc
Substitution2: "'aalt' Access All Alternates lookup 0 subtable" otilde.sc
EndChar

StartChar: OE
Encoding: 338 338 65
Width: 1080
GlyphClass: 2
Flags: MW
LayerCount: 2
Fore
SplineSet
659 75 m 1
 1028 75 l 1
 1028 0 l 1
 586 0 l 1
 586 99 l 1
 537 29 462 -10 372 -10 c 0
 184 -10 68 121 68 330 c 0
 68 539 182 670 376 670 c 0
 465 670 538 632 586 563 c 1
 586 660 l 1
 1013 660 l 1
 1013 585 l 1
 659 585 l 1
 659 372 l 1
 928 372 l 1
 928 297 l 1
 659 297 l 1
 659 75 l 1
376 65 m 0
 501 65 586 164 586 330 c 0
 586 496 501 595 376 595 c 0
 233 595 152 496 152 330 c 0
 152 164 233 65 376 65 c 0
EndSplineSet
Substitution2: "'c2sc' Capitals to Small Capitals lookup 11 subtable" oe.sc
Substitution2: "'aalt' Access All Alternates lookup 0 subtable" oe.sc
EndChar

StartChar: P
Encoding: 80 80 66
Width: 610
GlyphClass: 2
Flags: MW
LayerCount: 2
Fore
SplineSet
341 660 m 2
 474 660 563 583 563 459 c 0
 563 335 474 258 341 258 c 2
 188 258 l 1
 188 0 l 1
 108 0 l 1
 108 660 l 1
 341 660 l 2
329 333 m 2
 433 333 479 377 479 459 c 0
 479 541 433 585 329 585 c 2
 188 585 l 1
 188 333 l 1
 329 333 l 2
EndSplineSet
Substitution2: "'c2sc' Capitals to Small Capitals lookup 11 subtable" p.sc
Substitution2: "'aalt' Access All Alternates lookup 0 subtable" p.sc
EndChar

StartChar: Thorn
Encoding: 222 222 67
Width: 627
GlyphClass: 2
Flags: MW
LayerCount: 2
Fore
SplineSet
327 542 m 2
 491 542 573 469 573 337 c 0
 573 206 491 132 327 132 c 2
 188 132 l 1
 188 0 l 1
 108 0 l 1
 108 660 l 1
 188 660 l 1
 188 542 l 1
 327 542 l 2
335 207 m 2
 439 207 489 249 489 337 c 0
 489 425 439 467 335 467 c 2
 188 467 l 1
 188 207 l 1
 335 207 l 2
EndSplineSet
Substitution2: "'c2sc' Capitals to Small Capitals lookup 11 subtable" thorn.sc
Substitution2: "'aalt' Access All Alternates lookup 0 subtable" thorn.sc
EndChar

StartChar: Q
Encoding: 81 81 68
Width: 748
GlyphClass: 2
Flags: MW
LayerCount: 2
Fore
SplineSet
536 -114 m 0
 585 -114 629 -100 654 -77 c 1
 680 -151 l 1
 648 -179 583 -195 534 -195 c 0
 437 -195 346 -151 337 -8 c 1
 171 8 68 135 68 330 c 0
 68 539 186 670 374 670 c 0
 562 670 680 539 680 330 c 0
 680 134 576 7 409 -8 c 1
 417 -98 473 -114 536 -114 c 0
152 330 m 0
 152 164 237 65 374 65 c 0
 511 65 596 164 596 330 c 0
 596 496 511 595 374 595 c 0
 237 595 152 496 152 330 c 0
EndSplineSet
Substitution2: "'c2sc' Capitals to Small Capitals lookup 11 subtable" q.sc
Substitution2: "'aalt' Access All Alternates lookup 0 subtable" q.sc
EndChar

StartChar: R
Encoding: 82 82 69
Width: 655
GlyphClass: 2
Flags: MW
AnchorPoint: "Anchor-0" 365 0 basechar 0
LayerCount: 2
Fore
SplineSet
108 0 m 1
 108 660 l 1
 358 660 l 2
 492 660 581 586 581 467 c 0
 581 381 533 322 443 300 c 1
 443 298 l 1
 520 285 557 236 560 164 c 0
 567 45 578 24 591 3 c 1
 591 0 l 1
 505 0 l 1
 495 23 486 63 481 156 c 0
 477 233 431 274 328 274 c 2
 188 274 l 1
 188 0 l 1
 108 0 l 1
188 349 m 1
 357 349 l 2
 451 349 497 388 497 467 c 0
 497 546 451 585 357 585 c 2
 188 585 l 1
 188 349 l 1
EndSplineSet
Substitution2: "Single Substitution lookup 57 subtable" R.swsh.001
Substitution2: "Single Substitution lookup 56 subtable" R.swsh
Substitution2: "'ss03' Style Set 3 lookup 49 subtable" R.ss03
Substitution2: "'salt' Stylistic Alternatives lookup 42 subtable" R.ss03
AlternateSubs2: "'swsh' Swash lookup 37 subtable" R.swsh R.swsh.001
Substitution2: "'c2sc' Capitals to Small Capitals lookup 11 subtable" r.sc
AlternateSubs2: "'aalt' Access All Alternates lookup 1 subtable" r.sc R.swsh R.swsh.001 R.ss03
EndChar

StartChar: Racute
Encoding: 340 340 70
Width: 665
GlyphClass: 2
Flags: MW
AnchorPoint: "Anchor-0" 365 0 basechar 0
LayerCount: 2
Fore
SplineSet
108 0 m 5
 108 660 l 5
 358 660 l 6
 492 660 581 586 581 467 c 4
 581 381 533 322 443 300 c 5
 443 298 l 5
 520 285 557 236 560 164 c 4
 567 45 578 24 591 3 c 5
 591 0 l 5
 505 0 l 5
 495 23 486 63 481 156 c 4
 477 233 431 274 328 274 c 6
 188 274 l 5
 188 0 l 5
 108 0 l 5
188 349 m 5
 357 349 l 6
 451 349 497 388 497 467 c 4
 497 546 451 585 357 585 c 6
 188 585 l 5
 188 349 l 5
431 891 m 1
 345 743 l 1
 280 743 l 1
 337 891 l 1
 431 891 l 1
EndSplineSet
Substitution2: "Single Substitution lookup 57 subtable" Racute.swsh.001
Substitution2: "Single Substitution lookup 56 subtable" Racute.swsh
Substitution2: "'ss03' Style Set 3 lookup 49 subtable" Racute.ss03
Substitution2: "'salt' Stylistic Alternatives lookup 42 subtable" Racute.ss03
AlternateSubs2: "'swsh' Swash lookup 37 subtable" Racute.swsh Racute.swsh.001
Substitution2: "'c2sc' Capitals to Small Capitals lookup 11 subtable" racute.sc
AlternateSubs2: "'aalt' Access All Alternates lookup 1 subtable" racute.sc Racute.swsh Racute.swsh.001 Racute.ss03
EndChar

StartChar: Rcaron
Encoding: 344 344 71
Width: 655
GlyphClass: 2
Flags: MW
AnchorPoint: "Anchor-0" 365 0 basechar 0
LayerCount: 2
Fore
SplineSet
108 0 m 5
 108 660 l 5
 358 660 l 6
 492 660 581 586 581 467 c 4
 581 381 533 322 443 300 c 5
 443 298 l 5
 520 285 557 236 560 164 c 4
 567 45 578 24 591 3 c 5
 591 0 l 5
 505 0 l 5
 495 23 486 63 481 156 c 4
 477 233 431 274 328 274 c 6
 188 274 l 5
 188 0 l 5
 108 0 l 5
188 349 m 5
 357 349 l 6
 451 349 497 388 497 467 c 4
 497 546 451 585 357 585 c 6
 188 585 l 5
 188 349 l 5
367 738 m 1
 277 738 l 1
 163 905 l 1
 236 905 l 1
 322 790 l 1
 408 905 l 1
 481 905 l 1
 367 738 l 1
EndSplineSet
Substitution2: "Single Substitution lookup 57 subtable" Rcaron.swsh.001
Substitution2: "Single Substitution lookup 56 subtable" Rcaron.swsh
Substitution2: "'ss03' Style Set 3 lookup 49 subtable" Rcaron.ss03
Substitution2: "'salt' Stylistic Alternatives lookup 42 subtable" Rcaron.ss03
AlternateSubs2: "'swsh' Swash lookup 37 subtable" Rcaron.swsh Rcaron.swsh.001
Substitution2: "'c2sc' Capitals to Small Capitals lookup 11 subtable" rcaron.sc
AlternateSubs2: "'aalt' Access All Alternates lookup 1 subtable" rcaron.sc Rcaron.swsh Rcaron.swsh.001 Rcaron.ss03
EndChar

StartChar: S
Encoding: 83 83 72
Width: 641
GlyphClass: 2
Flags: MW
AnchorPoint: "Anchor-0" 359 0 basechar 0
LayerCount: 2
Fore
SplineSet
320 670 m 0
 441 670 524 622 575 530 c 1
 506 474 l 1
 466 561 418 595 321 595 c 0
 216 595 158 546 158 483 c 0
 158 421 202 390 341 366 c 0
 518 336 581 280 581 178 c 0
 581 65 480 -10 326 -10 c 0
 186 -10 94 51 48 133 c 1
 117 189 l 1
 152 113 220 65 328 65 c 0
 430 65 498 103 498 174 c 0
 498 231 455 264 316 288 c 0
 138 319 74 373 74 474 c 0
 74 580 167 670 320 670 c 0
EndSplineSet
Substitution2: "Single Substitution lookup 57 subtable" S.swsh
Substitution2: "Single Substitution lookup 56 subtable" S.swsh
Substitution2: "'swsh' Swash lookup 38 subtable" S.swsh
Substitution2: "'c2sc' Capitals to Small Capitals lookup 11 subtable" s.sc
AlternateSubs2: "'aalt' Access All Alternates lookup 1 subtable" s.sc S.swsh
EndChar

StartChar: Sacute
Encoding: 346 346 73
Width: 641
GlyphClass: 2
Flags: MW
AnchorPoint: "Anchor-0" 359 0 basechar 0
LayerCount: 2
Fore
SplineSet
341 891 m 1
 435 891 l 1
 349 743 l 1
 284 743 l 1
 341 891 l 1
320 670 m 0
 441 670 524 622 575 530 c 1
 506 474 l 1
 466 561 418 595 321 595 c 0
 216 595 158 546 158 483 c 0
 158 421 202 390 341 366 c 0
 518 336 581 280 581 178 c 0
 581 65 480 -10 326 -10 c 0
 186 -10 94 51 48 133 c 1
 117 189 l 1
 152 113 220 65 328 65 c 0
 430 65 498 103 498 174 c 0
 498 231 455 264 316 288 c 0
 138 319 74 373 74 474 c 0
 74 580 167 670 320 670 c 0
EndSplineSet
Substitution2: "Single Substitution lookup 57 subtable" Sacute.swsh
Substitution2: "'swsh' Swash lookup 38 subtable" Sacute.swsh
Substitution2: "'c2sc' Capitals to Small Capitals lookup 11 subtable" sacute.sc
AlternateSubs2: "'aalt' Access All Alternates lookup 1 subtable" sacute.sc Sacute.swsh
EndChar

StartChar: Scaron
Encoding: 352 352 74
Width: 641
GlyphClass: 2
Flags: MW
AnchorPoint: "Anchor-0" 359 0 basechar 0
LayerCount: 2
Fore
SplineSet
485 905 m 1
 371 738 l 1
 281 738 l 1
 167 905 l 1
 240 905 l 1
 326 790 l 1
 412 905 l 1
 485 905 l 1
320 670 m 0
 441 670 524 622 575 530 c 1
 506 474 l 1
 466 561 418 595 321 595 c 0
 216 595 158 546 158 483 c 0
 158 421 202 390 341 366 c 0
 518 336 581 280 581 178 c 0
 581 65 480 -10 326 -10 c 0
 186 -10 94 51 48 133 c 1
 117 189 l 1
 152 113 220 65 328 65 c 0
 430 65 498 103 498 174 c 0
 498 231 455 264 316 288 c 0
 138 319 74 373 74 474 c 0
 74 580 167 670 320 670 c 0
EndSplineSet
Substitution2: "Single Substitution lookup 57 subtable" Scaron.swsh
Substitution2: "'swsh' Swash lookup 38 subtable" Scaron.swsh
Substitution2: "'c2sc' Capitals to Small Capitals lookup 11 subtable" scaron.sc
AlternateSubs2: "'aalt' Access All Alternates lookup 1 subtable" scaron.sc Scaron.swsh
EndChar

StartChar: uni1E9E
Encoding: 7838 7838 75
Width: 691
GlyphClass: 2
Flags: MW
LayerCount: 2
Fore
SplineSet
448 370 m 2
 569 370 651 303 651 185 c 0
 651 70 565 -5 446 -5 c 0
 363 -5 299 24 275 59 c 1
 309 118 l 1
 334 88 385 68 438 68 c 0
 516 68 567 116 567 185 c 0
 567 257 512 302 416 302 c 2
 339 302 l 1
 339 370 l 1
 513 585 l 1
 330 585 l 2
 253 585 188 525 188 442 c 2
 188 0 l 1
 108 0 l 1
 108 443 l 2
 108 573 203 660 330 660 c 2
 608 660 l 1
 608 584 l 1
 425 370 l 1
 448 370 l 2
EndSplineSet
Substitution2: "'c2sc' Capitals to Small Capitals lookup 11 subtable" germandbls.sc
Substitution2: "'aalt' Access All Alternates lookup 0 subtable" germandbls.sc
EndChar

StartChar: T
Encoding: 84 84 76
Width: 604
GlyphClass: 2
Flags: MW
AnchorPoint: "Anchor-0" 318 0 basechar 0
LayerCount: 2
Fore
SplineSet
572 660 m 1
 572 585 l 1
 342 585 l 1
 342 0 l 1
 262 0 l 1
 262 585 l 1
 32 585 l 1
 32 660 l 1
 572 660 l 1
EndSplineSet
Substitution2: "Single Substitution lookup 56 subtable" T.swsh
Substitution2: "'swsh' Swash lookup 38 subtable" T.swsh
Substitution2: "'c2sc' Capitals to Small Capitals lookup 11 subtable" t.sc
AlternateSubs2: "'aalt' Access All Alternates lookup 1 subtable" t.sc T.swsh
EndChar

StartChar: Tcaron
Encoding: 356 356 77
Width: 604
GlyphClass: 2
Flags: MW
AnchorPoint: "Anchor-0" 318 0 basechar 0
LayerCount: 2
Fore
SplineSet
347 738 m 1
 257 738 l 1
 143 905 l 1
 216 905 l 1
 302 790 l 1
 388 905 l 1
 461 905 l 1
 347 738 l 1
572 660 m 1
 572 585 l 1
 342 585 l 1
 342 0 l 1
 262 0 l 1
 262 585 l 1
 32 585 l 1
 32 660 l 1
 572 660 l 1
EndSplineSet
Substitution2: "Single Substitution lookup 56 subtable" Tcaron.swsh
Substitution2: "'swsh' Swash lookup 38 subtable" Tcaron.swsh
Substitution2: "'c2sc' Capitals to Small Capitals lookup 11 subtable" tcaron.sc
AlternateSubs2: "'aalt' Access All Alternates lookup 1 subtable" tcaron.sc Tcaron.swsh
EndChar

StartChar: U
Encoding: 85 85 78
Width: 720
GlyphClass: 2
Flags: MW
LayerCount: 2
Fore
SplineSet
619 660 m 1
 619 246 l 2
 619 76 527 -10 360 -10 c 0
 194 -10 101 76 101 246 c 2
 101 660 l 1
 181 660 l 1
 181 266 l 2
 181 128 237 65 360 65 c 0
 483 65 539 128 539 266 c 2
 539 660 l 1
 619 660 l 1
EndSplineSet
Substitution2: "'c2sc' Capitals to Small Capitals lookup 11 subtable" u.sc
Substitution2: "'aalt' Access All Alternates lookup 0 subtable" u.sc
EndChar

StartChar: Uacute
Encoding: 218 218 79
Width: 720
GlyphClass: 2
Flags: MW
LayerCount: 2
Fore
SplineSet
375 891 m 1
 469 891 l 1
 383 743 l 1
 318 743 l 1
 375 891 l 1
619 660 m 1
 619 246 l 2
 619 76 527 -10 360 -10 c 0
 194 -10 101 76 101 246 c 2
 101 660 l 1
 181 660 l 1
 181 266 l 2
 181 128 237 65 360 65 c 0
 483 65 539 128 539 266 c 2
 539 660 l 1
 619 660 l 1
EndSplineSet
Substitution2: "'c2sc' Capitals to Small Capitals lookup 11 subtable" uacute.sc
Substitution2: "'aalt' Access All Alternates lookup 0 subtable" uacute.sc
EndChar

StartChar: Ucircumflex
Encoding: 219 219 80
Width: 720
GlyphClass: 2
Flags: MW
LayerCount: 2
Fore
SplineSet
519 736 m 1
 446 736 l 1
 360 851 l 1
 274 736 l 1
 201 736 l 1
 315 903 l 1
 405 903 l 1
 519 736 l 1
619 660 m 1
 619 246 l 2
 619 76 527 -10 360 -10 c 0
 194 -10 101 76 101 246 c 2
 101 660 l 1
 181 660 l 1
 181 266 l 2
 181 128 237 65 360 65 c 0
 483 65 539 128 539 266 c 2
 539 660 l 1
 619 660 l 1
EndSplineSet
Substitution2: "'c2sc' Capitals to Small Capitals lookup 11 subtable" ucircumflex.sc
Substitution2: "'aalt' Access All Alternates lookup 0 subtable" ucircumflex.sc
EndChar

StartChar: Udieresis
Encoding: 220 220 81
Width: 720
GlyphClass: 2
Flags: MW
LayerCount: 2
Fore
SplineSet
263 856 m 0
 297 856 320 833 320 799 c 0
 320 765 297 742 263 742 c 0
 229 742 206 765 206 799 c 0
 206 833 229 856 263 856 c 0
457 856 m 0
 491 856 514 833 514 799 c 0
 514 765 491 742 457 742 c 0
 423 742 400 765 400 799 c 0
 400 833 423 856 457 856 c 0
619 660 m 1
 619 246 l 2
 619 76 527 -10 360 -10 c 0
 194 -10 101 76 101 246 c 2
 101 660 l 1
 181 660 l 1
 181 266 l 2
 181 128 237 65 360 65 c 0
 483 65 539 128 539 266 c 2
 539 660 l 1
 619 660 l 1
EndSplineSet
Substitution2: "'titl' Titling lookup 41 subtable" Udieresis.titl
Substitution2: "'c2sc' Capitals to Small Capitals lookup 11 subtable" udieresis.sc
AlternateSubs2: "'aalt' Access All Alternates lookup 1 subtable" udieresis.sc Udieresis.titl
EndChar

StartChar: Ugrave
Encoding: 217 217 82
Width: 720
GlyphClass: 2
Flags: MW
LayerCount: 2
Fore
SplineSet
336 891 m 1
 393 743 l 1
 328 743 l 1
 242 891 l 1
 336 891 l 1
619 660 m 1
 619 246 l 2
 619 76 527 -10 360 -10 c 0
 194 -10 101 76 101 246 c 2
 101 660 l 1
 181 660 l 1
 181 266 l 2
 181 128 237 65 360 65 c 0
 483 65 539 128 539 266 c 2
 539 660 l 1
 619 660 l 1
EndSplineSet
Substitution2: "'c2sc' Capitals to Small Capitals lookup 11 subtable" ugrave.sc
Substitution2: "'aalt' Access All Alternates lookup 0 subtable" ugrave.sc
EndChar

StartChar: Uhungarumlaut
Encoding: 368 368 83
Width: 720
GlyphClass: 2
Flags: MW
LayerCount: 2
Fore
SplineSet
282 893 m 1
 376 893 l 1
 290 745 l 1
 225 745 l 1
 282 893 l 1
454 891 m 1
 548 891 l 1
 462 743 l 1
 397 743 l 1
 454 891 l 1
619 660 m 1
 619 246 l 2
 619 76 527 -10 360 -10 c 0
 194 -10 101 76 101 246 c 2
 101 660 l 1
 181 660 l 1
 181 266 l 2
 181 128 237 65 360 65 c 0
 483 65 539 128 539 266 c 2
 539 660 l 1
 619 660 l 1
EndSplineSet
Substitution2: "'c2sc' Capitals to Small Capitals lookup 11 subtable" uhungarumlaut.sc
Substitution2: "'aalt' Access All Alternates lookup 0 subtable" uhungarumlaut.sc
EndChar

StartChar: Umacron
Encoding: 362 362 84
Width: 720
GlyphClass: 2
Flags: MW
LayerCount: 2
Fore
SplineSet
534 823 m 1
 534 756 l 1
 186 756 l 1
 186 823 l 1
 534 823 l 1
619 660 m 1
 619 246 l 2
 619 76 527 -10 360 -10 c 0
 194 -10 101 76 101 246 c 2
 101 660 l 1
 181 660 l 1
 181 266 l 2
 181 128 237 65 360 65 c 0
 483 65 539 128 539 266 c 2
 539 660 l 1
 619 660 l 1
EndSplineSet
Substitution2: "'c2sc' Capitals to Small Capitals lookup 11 subtable" umacron.sc
Substitution2: "'aalt' Access All Alternates lookup 0 subtable" umacron.sc
EndChar

StartChar: Uogonek
Encoding: 370 370 85
Width: 720
GlyphClass: 2
Flags: MW
LayerCount: 2
Fore
SplineSet
539 660 m 1
 619 660 l 1
 619 246 l 2
 619 107 557 24 443 -2 c 1
 371 -39 346 -73 346 -105 c 0
 346 -138 372 -158 410 -158 c 0
 427 -158 449 -156 465 -146 c 1
 481 -197 l 1
 462 -209 429 -215 400 -215 c 0
 328 -215 281 -174 281 -116 c 0
 281 -70 301 -38 339 -10 c 1
 186 -2 101 83 101 246 c 2
 101 660 l 1
 181 660 l 1
 181 266 l 2
 181 128 237 65 360 65 c 0
 483 65 539 128 539 266 c 2
 539 660 l 1
EndSplineSet
Substitution2: "'c2sc' Capitals to Small Capitals lookup 11 subtable" uogonek.sc
Substitution2: "'aalt' Access All Alternates lookup 0 subtable" uogonek.sc
EndChar

StartChar: Uring
Encoding: 366 366 86
Width: 720
GlyphClass: 2
Flags: MW
LayerCount: 2
Fore
SplineSet
361 892 m 0
 436 892 486 844 486 774 c 0
 486 703 436 655 361 655 c 0
 286 655 235 703 235 774 c 0
 235 844 286 892 361 892 c 0
361 843 m 0
 320 843 290 814 290 774 c 0
 290 734 320 705 361 705 c 0
 402 705 432 734 432 774 c 0
 432 814 402 843 361 843 c 0
619 660 m 1
 619 246 l 2
 619 76 527 -10 360 -10 c 0
 194 -10 101 76 101 246 c 2
 101 660 l 1
 181 660 l 1
 181 266 l 2
 181 128 237 65 360 65 c 0
 483 65 539 128 539 266 c 2
 539 660 l 1
 619 660 l 1
EndSplineSet
Substitution2: "'c2sc' Capitals to Small Capitals lookup 11 subtable" uring.sc
Substitution2: "'aalt' Access All Alternates lookup 0 subtable" uring.sc
EndChar

StartChar: V
Encoding: 86 86 87
Width: 648
GlyphClass: 2
Flags: MW
LayerCount: 2
Fore
SplineSet
620 660 m 1
 370 0 l 1
 279 0 l 1
 28 660 l 1
 114 660 l 1
 282 204 l 1
 324 73 l 1
 366 203 l 1
 534 660 l 1
 620 660 l 1
EndSplineSet
Substitution2: "'c2sc' Capitals to Small Capitals lookup 11 subtable" v.sc
Substitution2: "'aalt' Access All Alternates lookup 0 subtable" v.sc
EndChar

StartChar: W
Encoding: 87 87 88
Width: 961
GlyphClass: 2
Flags: MW
LayerCount: 2
Fore
SplineSet
446 428 m 1
 330 0 l 1
 231 0 l 1
 36 660 l 1
 122 660 l 1
 281 63 l 1
 437 660 l 1
 528 660 l 1
 684 61 l 1
 844 660 l 1
 925 660 l 1
 731 0 l 1
 632 0 l 1
 515 428 l 1
 481 577 l 1
 480 577 l 1
 446 428 l 1
EndSplineSet
Substitution2: "Single Substitution lookup 56 subtable" W.swsh
Substitution2: "'swsh' Swash lookup 38 subtable" W.swsh
Substitution2: "'c2sc' Capitals to Small Capitals lookup 11 subtable" w.sc
AlternateSubs2: "'aalt' Access All Alternates lookup 1 subtable" w.sc W.swsh
EndChar

StartChar: X
Encoding: 88 88 89
Width: 601
GlyphClass: 2
Flags: MW
LayerCount: 2
Fore
SplineSet
569 0 m 1
 476 0 l 1
 297 273 l 1
 118 0 l 1
 25 0 l 1
 256 336 l 1
 45 660 l 1
 140 660 l 1
 308 402 l 1
 477 660 l 1
 562 660 l 1
 349 340 l 1
 569 0 l 1
EndSplineSet
Substitution2: "'c2sc' Capitals to Small Capitals lookup 11 subtable" x.sc
Substitution2: "'aalt' Access All Alternates lookup 0 subtable" x.sc
EndChar

StartChar: Y
Encoding: 89 89 90
Width: 572
GlyphClass: 2
Flags: MW
LayerCount: 2
Fore
SplineSet
562 660 m 1
 326 258 l 1
 326 0 l 1
 246 0 l 1
 246 258 l 1
 10 660 l 1
 105 660 l 1
 286 340 l 1
 467 660 l 1
 562 660 l 1
EndSplineSet
Substitution2: "'c2sc' Capitals to Small Capitals lookup 11 subtable" y.sc
Substitution2: "'aalt' Access All Alternates lookup 0 subtable" y.sc
EndChar

StartChar: Yacute
Encoding: 221 221 91
Width: 572
GlyphClass: 2
Flags: MW
LayerCount: 2
Fore
SplineSet
301 891 m 1
 395 891 l 1
 309 743 l 1
 244 743 l 1
 301 891 l 1
562 660 m 1
 326 258 l 1
 326 0 l 1
 246 0 l 1
 246 258 l 1
 10 660 l 1
 105 660 l 1
 286 340 l 1
 467 660 l 1
 562 660 l 1
EndSplineSet
Substitution2: "'c2sc' Capitals to Small Capitals lookup 11 subtable" yacute.sc
Substitution2: "'aalt' Access All Alternates lookup 0 subtable" yacute.sc
EndChar

StartChar: Ydieresis
Encoding: 376 376 92
Width: 572
GlyphClass: 2
Flags: MW
LayerCount: 2
Fore
SplineSet
189 856 m 0
 223 856 246 833 246 799 c 0
 246 765 223 742 189 742 c 0
 155 742 132 765 132 799 c 0
 132 833 155 856 189 856 c 0
383 856 m 0
 417 856 440 833 440 799 c 0
 440 765 417 742 383 742 c 0
 349 742 326 765 326 799 c 0
 326 833 349 856 383 856 c 0
562 660 m 1
 326 258 l 1
 326 0 l 1
 246 0 l 1
 246 258 l 1
 10 660 l 1
 105 660 l 1
 286 340 l 1
 467 660 l 1
 562 660 l 1
EndSplineSet
Substitution2: "'c2sc' Capitals to Small Capitals lookup 11 subtable" ydieresis.sc
Substitution2: "'aalt' Access All Alternates lookup 0 subtable" ydieresis.sc
EndChar

StartChar: Z
Encoding: 90 90 93
Width: 630
GlyphClass: 2
Flags: MW
LayerCount: 2
Fore
SplineSet
151 75 m 1
 575 75 l 1
 575 0 l 1
 56 0 l 1
 56 71 l 1
 467 585 l 1
 66 585 l 1
 66 660 l 1
 562 660 l 1
 562 589 l 1
 151 75 l 1
EndSplineSet
Substitution2: "'c2sc' Capitals to Small Capitals lookup 11 subtable" z.sc
Substitution2: "'aalt' Access All Alternates lookup 0 subtable" z.sc
EndChar

StartChar: Zacute
Encoding: 377 377 94
Width: 630
GlyphClass: 2
Flags: MW
LayerCount: 2
Fore
SplineSet
415 891 m 1
 329 743 l 1
 264 743 l 1
 321 891 l 1
 415 891 l 1
151 75 m 1
 575 75 l 1
 575 0 l 1
 56 0 l 1
 56 71 l 1
 467 585 l 1
 66 585 l 1
 66 660 l 1
 562 660 l 1
 562 589 l 1
 151 75 l 1
EndSplineSet
Substitution2: "'c2sc' Capitals to Small Capitals lookup 11 subtable" zacute.sc
Substitution2: "'aalt' Access All Alternates lookup 0 subtable" zacute.sc
EndChar

StartChar: Zcaron
Encoding: 381 381 95
Width: 630
GlyphClass: 2
Flags: MW
LayerCount: 2
Fore
SplineSet
351 738 m 1
 261 738 l 1
 147 905 l 1
 220 905 l 1
 306 790 l 1
 392 905 l 1
 465 905 l 1
 351 738 l 1
151 75 m 1
 575 75 l 1
 575 0 l 1
 56 0 l 1
 56 71 l 1
 467 585 l 1
 66 585 l 1
 66 660 l 1
 562 660 l 1
 562 589 l 1
 151 75 l 1
EndSplineSet
Substitution2: "'c2sc' Capitals to Small Capitals lookup 11 subtable" zcaron.sc
Substitution2: "'aalt' Access All Alternates lookup 0 subtable" zcaron.sc
EndChar

StartChar: Zdotaccent
Encoding: 379 379 96
Width: 630
GlyphClass: 2
Flags: MW
LayerCount: 2
Fore
SplineSet
306 756 m 0
 270 756 246 780 246 816 c 0
 246 852 270 876 306 876 c 0
 342 876 366 852 366 816 c 0
 366 780 342 756 306 756 c 0
151 75 m 1
 575 75 l 1
 575 0 l 1
 56 0 l 1
 56 71 l 1
 467 585 l 1
 66 585 l 1
 66 660 l 1
 562 660 l 1
 562 589 l 1
 151 75 l 1
EndSplineSet
Substitution2: "'c2sc' Capitals to Small Capitals lookup 11 subtable" zdotaccent.sc
Substitution2: "'aalt' Access All Alternates lookup 0 subtable" zdotaccent.sc
EndChar

StartChar: uni0122
Encoding: 290 290 97
Width: 724
GlyphClass: 2
Flags: MW
AnchorPoint: "Anchor-0" 405 0 basechar 0
LayerCount: 2
Fore
SplineSet
362 333 m 1
 645 333 l 1
 645 0 l 1
 585 0 l 1
 582 89 l 1
 544 27 475 -10 374 -10 c 0
 186 -10 68 121 68 330 c 0
 68 539 191 670 376 670 c 0
 507 670 589 621 640 519 c 1
 567 479 l 1
 538 555 468 595 376 595 c 0
 242 595 152 496 152 330 c 0
 152 164 230 65 377 65 c 0
 487 65 572 121 572 235 c 2
 572 258 l 1
 362 258 l 1
 362 333 l 1
307 -237 m 1
 351 -76 l 1
 435 -76 l 1
 370 -237 l 1
 307 -237 l 1
EndSplineSet
Substitution2: "'ss04' Style Set 4 lookup 50 subtable" Gcommaaccent.ss04
Substitution2: "'salt' Stylistic Alternatives lookup 42 subtable" Gcommaaccent.ss04
Substitution2: "'c2sc' Capitals to Small Capitals lookup 11 subtable" Gcommaaccent.sc
AlternateSubs2: "'aalt' Access All Alternates lookup 1 subtable" Gcommaaccent.sc Gcommaaccent.ss04
EndChar

StartChar: uni0136
Encoding: 310 310 98
Width: 656
GlyphClass: 2
Flags: MW
AnchorPoint: "Anchor-0" 373 0 basechar 0
LayerCount: 2
Fore
SplineSet
362 391 m 1
 628 0 l 1
 532 0 l 1
 306 332 l 1
 188 212 l 1
 188 0 l 1
 108 0 l 1
 108 660 l 1
 188 660 l 1
 188 320 l 1
 520 660 l 1
 625 660 l 1
 362 391 l 1
275 -237 m 1
 319 -76 l 1
 403 -76 l 1
 338 -237 l 1
 275 -237 l 1
EndSplineSet
Substitution2: "'c2sc' Capitals to Small Capitals lookup 11 subtable" Kcommaaccent.sc
Substitution2: "'aalt' Access All Alternates lookup 0 subtable" Kcommaaccent.sc
EndChar

StartChar: uni013B
Encoding: 315 315 99
Width: 598
GlyphClass: 2
Flags: MW
AnchorPoint: "Anchor-0" 362 0 basechar 0
LayerCount: 2
Fore
SplineSet
188 75 m 1
 566 75 l 1
 566 0 l 1
 108 0 l 1
 108 660 l 1
 188 660 l 1
 188 75 l 1
264 -237 m 1
 308 -76 l 1
 392 -76 l 1
 327 -237 l 1
 264 -237 l 1
EndSplineSet
Substitution2: "Single Substitution lookup 57 subtable" Lcommaaccent.swsh
Substitution2: "'swsh' Swash lookup 34 subtable" Lcommaaccent.swsh
Substitution2: "'c2sc' Capitals to Small Capitals lookup 11 subtable" Lcommaaccent.sc
AlternateSubs2: "'aalt' Access All Alternates lookup 1 subtable" Lcommaaccent.sc Lcommaaccent.swsh
EndChar

StartChar: uni0145
Encoding: 325 325 100
Width: 734
GlyphClass: 2
Flags: MW
AnchorPoint: "Anchor-0" 397 0 basechar 0
LayerCount: 2
Fore
SplineSet
626 660 m 1
 626 0 l 1
 527 0 l 1
 251 442 l 1
 181 572 l 1
 180 572 l 1
 184 466 l 1
 184 0 l 1
 108 0 l 1
 108 660 l 1
 207 660 l 1
 482 220 l 1
 553 88 l 1
 554 88 l 1
 550 194 l 1
 550 660 l 1
 626 660 l 1
427 -76 m 1
 362 -237 l 1
 299 -237 l 1
 343 -76 l 1
 427 -76 l 1
EndSplineSet
Substitution2: "Single Substitution lookup 57 subtable" Ncommaaccent.swsh
Substitution2: "'swsh' Swash lookup 36 subtable" Ncommaaccent.swsh
Substitution2: "'c2sc' Capitals to Small Capitals lookup 11 subtable" Ncommaaccent.sc
AlternateSubs2: "'aalt' Access All Alternates lookup 1 subtable" Ncommaaccent.sc Ncommaaccent.swsh
EndChar

StartChar: uni0156
Encoding: 342 342 101
Width: 665
GlyphClass: 2
Flags: MW
AnchorPoint: "Anchor-0" 365 0 basechar 0
LayerCount: 2
Fore
SplineSet
108 0 m 5
 108 660 l 5
 358 660 l 6
 492 660 581 586 581 467 c 4
 581 381 533 322 443 300 c 5
 443 298 l 5
 520 285 557 236 560 164 c 4
 567 45 578 24 591 3 c 5
 591 0 l 5
 505 0 l 5
 495 23 486 63 481 156 c 4
 477 233 431 274 328 274 c 6
 188 274 l 5
 188 0 l 5
 108 0 l 5
188 349 m 5
 357 349 l 6
 451 349 497 388 497 467 c 4
 497 546 451 585 357 585 c 6
 188 585 l 5
 188 349 l 5
267 -237 m 1
 311 -76 l 1
 395 -76 l 1
 330 -237 l 1
 267 -237 l 1
EndSplineSet
Substitution2: "Single Substitution lookup 57 subtable" Rcommaaccent.swsh.001
Substitution2: "Single Substitution lookup 56 subtable" Rcommaaccent.swsh
Substitution2: "'ss03' Style Set 3 lookup 49 subtable" Rcommaaccent.ss03
Substitution2: "'salt' Stylistic Alternatives lookup 42 subtable" Rcommaaccent.ss03
AlternateSubs2: "'swsh' Swash lookup 37 subtable" Rcommaaccent.swsh Rcommaaccent.swsh.001
Substitution2: "'c2sc' Capitals to Small Capitals lookup 11 subtable" Rcommaaccent.sc
AlternateSubs2: "'aalt' Access All Alternates lookup 1 subtable" Rcommaaccent.sc Rcommaaccent.swsh Rcommaaccent.swsh.001 Rcommaaccent.ss03
EndChar

StartChar: uni015E
Encoding: 350 350 102
Width: 641
GlyphClass: 2
Flags: MW
AnchorPoint: "Anchor-0" 359 0 basechar 0
LayerCount: 2
Fore
SplineSet
581 178 m 0
 581 80 506 11 386 -6 c 1
 422 -34 441 -72 441 -108 c 0
 441 -164 399 -215 325 -215 c 0
 278 -215 243 -205 215 -180 c 1
 245 -125 l 1
 261 -142 286 -155 314 -155 c 0
 346 -155 371 -132 371 -97 c 0
 371 -60 355 -38 298 -9 c 1
 174 -1 91 57 48 133 c 1
 117 189 l 1
 152 113 220 65 328 65 c 0
 430 65 498 103 498 174 c 0
 498 231 455 264 316 288 c 0
 138 319 74 373 74 474 c 0
 74 580 167 670 320 670 c 0
 441 670 524 622 575 530 c 1
 506 474 l 1
 466 561 418 595 321 595 c 0
 216 595 158 546 158 483 c 0
 158 421 202 390 341 366 c 0
 518 336 581 280 581 178 c 0
EndSplineSet
Substitution2: "Single Substitution lookup 57 subtable" Scedilla.swsh
Substitution2: "'swsh' Swash lookup 38 subtable" Scedilla.swsh
Substitution2: "'c2sc' Capitals to Small Capitals lookup 11 subtable" Scedilla.sc
Substitution2: "'locl' Localized Forms in Latin lookup 8 subtable" uni0218
Substitution2: "'locl' Localized Forms in Latin lookup 7 subtable" uni0218
AlternateSubs2: "'aalt' Access All Alternates lookup 1 subtable" Scedilla.sc Scedilla.swsh
EndChar

StartChar: uni0162
Encoding: 354 354 103
Width: 604
GlyphClass: 2
Flags: MW
AnchorPoint: "Anchor-0" 318 0 basechar 0
LayerCount: 2
Fore
SplineSet
572 585 m 1
 342 585 l 1
 342 9 l 1
 394 -27 413 -67 413 -109 c 0
 413 -164 368 -215 296 -215 c 0
 249 -215 214 -205 186 -180 c 1
 216 -125 l 1
 232 -142 257 -155 285 -155 c 0
 317 -155 342 -132 342 -97 c 0
 342 -59 320 -39 262 0 c 1
 262 585 l 1
 32 585 l 1
 32 660 l 1
 572 660 l 1
 572 585 l 1
EndSplineSet
Substitution2: "Single Substitution lookup 56 subtable" uni0162.swsh
Substitution2: "'swsh' Swash lookup 38 subtable" uni0162.swsh
Substitution2: "'c2sc' Capitals to Small Capitals lookup 11 subtable" uni0162.sc
Substitution2: "'locl' Localized Forms in Latin lookup 8 subtable" uni021A
Substitution2: "'locl' Localized Forms in Latin lookup 7 subtable" uni021A
AlternateSubs2: "'aalt' Access All Alternates lookup 1 subtable" uni0162.sc uni0162.swsh
EndChar

StartChar: uni0218
Encoding: 536 536 104
Width: 641
GlyphClass: 2
Flags: MW
AnchorPoint: "Anchor-0" 359 0 basechar 0
LayerCount: 2
Fore
SplineSet
320 670 m 0
 441 670 524 622 575 530 c 1
 506 474 l 1
 466 561 418 595 321 595 c 0
 216 595 158 546 158 483 c 0
 158 421 202 390 341 366 c 0
 518 336 581 280 581 178 c 0
 581 65 480 -10 326 -10 c 0
 186 -10 94 51 48 133 c 1
 117 189 l 1
 152 113 220 65 328 65 c 0
 430 65 498 103 498 174 c 0
 498 231 455 264 316 288 c 0
 138 319 74 373 74 474 c 0
 74 580 167 670 320 670 c 0
389 -76 m 1
 324 -237 l 1
 261 -237 l 1
 305 -76 l 1
 389 -76 l 1
EndSplineSet
Substitution2: "Single Substitution lookup 57 subtable" Scommaaccent.swsh
Substitution2: "'swsh' Swash lookup 38 subtable" Scommaaccent.swsh
Substitution2: "'c2sc' Capitals to Small Capitals lookup 11 subtable" Scommaaccent.sc
AlternateSubs2: "'aalt' Access All Alternates lookup 1 subtable" Scommaaccent.sc Scommaaccent.swsh
EndChar

StartChar: uni021A
Encoding: 538 538 105
Width: 604
GlyphClass: 2
Flags: MW
AnchorPoint: "Anchor-0" 318 0 basechar 0
LayerCount: 2
Fore
SplineSet
572 660 m 1
 572 585 l 1
 342 585 l 1
 342 0 l 1
 262 0 l 1
 262 585 l 1
 32 585 l 1
 32 660 l 1
 572 660 l 1
220 -237 m 1
 264 -76 l 1
 348 -76 l 1
 283 -237 l 1
 220 -237 l 1
EndSplineSet
Substitution2: "Single Substitution lookup 56 subtable" uni021A.swsh
Substitution2: "'swsh' Swash lookup 38 subtable" uni021A.swsh
Substitution2: "'c2sc' Capitals to Small Capitals lookup 11 subtable" uni021A.sc
AlternateSubs2: "'aalt' Access All Alternates lookup 1 subtable" uni021A.sc uni021A.swsh
EndChar

StartChar: E.swsh.001
Encoding: 65537 -1 106
Width: 747
GlyphClass: 2
Flags: MW
AnchorPoint: "Anchor-0" 339 0 basechar 0
LayerCount: 2
Fore
SplineSet
614 338 m 1
 679 335 737 275 737 175 c 0
 737 62 655 0 528 0 c 2
 108 0 l 1
 108 660 l 1
 596 660 l 1
 596 585 l 1
 188 585 l 1
 188 363 l 1
 406 363 l 1
 406 288 l 1
 188 288 l 1
 188 75 l 1
 511 75 l 2
 609 75 657 104 657 176 c 0
 657 240 625 273 583 274 c 1
 614 338 l 1
EndSplineSet
EndChar

StartChar: Eacute.swsh.001
Encoding: 65538 -1 107
Width: 747
GlyphClass: 2
Flags: MW
AnchorPoint: "Anchor-0" 339 0 basechar 0
LayerCount: 2
Fore
SplineSet
474 891 m 1
 388 743 l 1
 323 743 l 1
 380 891 l 1
 474 891 l 1
614 338 m 1
 679 335 737 275 737 175 c 0
 737 62 655 0 528 0 c 2
 108 0 l 1
 108 660 l 1
 596 660 l 1
 596 585 l 1
 188 585 l 1
 188 363 l 1
 406 363 l 1
 406 288 l 1
 188 288 l 1
 188 75 l 1
 511 75 l 2
 609 75 657 104 657 176 c 0
 657 240 625 273 583 274 c 1
 614 338 l 1
EndSplineSet
EndChar

StartChar: Ecaron.swsh.001
Encoding: 65539 -1 108
Width: 747
GlyphClass: 2
Flags: MW
AnchorPoint: "Anchor-0" 339 0 basechar 0
LayerCount: 2
Fore
SplineSet
410 738 m 1
 320 738 l 1
 206 905 l 1
 279 905 l 1
 365 790 l 1
 451 905 l 1
 524 905 l 1
 410 738 l 1
614 338 m 1
 679 335 737 275 737 175 c 0
 737 62 655 0 528 0 c 2
 108 0 l 1
 108 660 l 1
 596 660 l 1
 596 585 l 1
 188 585 l 1
 188 363 l 1
 406 363 l 1
 406 288 l 1
 188 288 l 1
 188 75 l 1
 511 75 l 2
 609 75 657 104 657 176 c 0
 657 240 625 273 583 274 c 1
 614 338 l 1
EndSplineSet
EndChar

StartChar: Ecircumflex.swsh.001
Encoding: 65540 -1 109
Width: 747
GlyphClass: 2
Flags: MW
AnchorPoint: "Anchor-0" 339 0 basechar 0
LayerCount: 2
Fore
SplineSet
365 851 m 1
 279 736 l 1
 206 736 l 1
 320 903 l 1
 410 903 l 1
 524 736 l 1
 451 736 l 1
 365 851 l 1
614 338 m 1
 679 335 737 275 737 175 c 0
 737 62 655 0 528 0 c 2
 108 0 l 1
 108 660 l 1
 596 660 l 1
 596 585 l 1
 188 585 l 1
 188 363 l 1
 406 363 l 1
 406 288 l 1
 188 288 l 1
 188 75 l 1
 511 75 l 2
 609 75 657 104 657 176 c 0
 657 240 625 273 583 274 c 1
 614 338 l 1
EndSplineSet
EndChar

StartChar: Edieresis.swsh.001
Encoding: 65541 -1 110
Width: 747
GlyphClass: 2
Flags: MW
AnchorPoint: "Anchor-0" 339 0 basechar 0
LayerCount: 2
Fore
SplineSet
268 742 m 0
 234 742 211 765 211 799 c 0
 211 833 234 856 268 856 c 0
 302 856 325 833 325 799 c 0
 325 765 302 742 268 742 c 0
462 742 m 0
 428 742 405 765 405 799 c 0
 405 833 428 856 462 856 c 0
 496 856 519 833 519 799 c 0
 519 765 496 742 462 742 c 0
614 338 m 1
 679 335 737 275 737 175 c 0
 737 62 655 0 528 0 c 2
 108 0 l 1
 108 660 l 1
 596 660 l 1
 596 585 l 1
 188 585 l 1
 188 363 l 1
 406 363 l 1
 406 288 l 1
 188 288 l 1
 188 75 l 1
 511 75 l 2
 609 75 657 104 657 176 c 0
 657 240 625 273 583 274 c 1
 614 338 l 1
EndSplineSet
EndChar

StartChar: Edotaccent.swsh.001
Encoding: 65542 -1 111
Width: 747
GlyphClass: 2
Flags: MW
AnchorPoint: "Anchor-0" 339 0 basechar 0
LayerCount: 2
Fore
SplineSet
365 756 m 0
 329 756 305 780 305 816 c 0
 305 852 329 876 365 876 c 0
 401 876 425 852 425 816 c 0
 425 780 401 756 365 756 c 0
614 338 m 1
 679 335 737 275 737 175 c 0
 737 62 655 0 528 0 c 2
 108 0 l 1
 108 660 l 1
 596 660 l 1
 596 585 l 1
 188 585 l 1
 188 363 l 1
 406 363 l 1
 406 288 l 1
 188 288 l 1
 188 75 l 1
 511 75 l 2
 609 75 657 104 657 176 c 0
 657 240 625 273 583 274 c 1
 614 338 l 1
EndSplineSet
EndChar

StartChar: Egrave.swsh.001
Encoding: 65543 -1 112
Width: 747
GlyphClass: 2
Flags: MW
AnchorPoint: "Anchor-0" 339 0 basechar 0
LayerCount: 2
Fore
SplineSet
398 743 m 1
 333 743 l 1
 247 891 l 1
 341 891 l 1
 398 743 l 1
614 338 m 1
 679 335 737 275 737 175 c 0
 737 62 655 0 528 0 c 2
 108 0 l 1
 108 660 l 1
 596 660 l 1
 596 585 l 1
 188 585 l 1
 188 363 l 1
 406 363 l 1
 406 288 l 1
 188 288 l 1
 188 75 l 1
 511 75 l 2
 609 75 657 104 657 176 c 0
 657 240 625 273 583 274 c 1
 614 338 l 1
EndSplineSet
EndChar

StartChar: Emacron.swsh.001
Encoding: 65544 -1 113
Width: 747
GlyphClass: 2
Flags: MW
AnchorPoint: "Anchor-0" 339 0 basechar 0
LayerCount: 2
Fore
SplineSet
539 823 m 1
 539 756 l 1
 191 756 l 1
 191 823 l 1
 539 823 l 1
614 338 m 1
 679 335 737 275 737 175 c 0
 737 62 655 0 528 0 c 2
 108 0 l 1
 108 660 l 1
 596 660 l 1
 596 585 l 1
 188 585 l 1
 188 363 l 1
 406 363 l 1
 406 288 l 1
 188 288 l 1
 188 75 l 1
 511 75 l 2
 609 75 657 104 657 176 c 0
 657 240 625 273 583 274 c 1
 614 338 l 1
EndSplineSet
EndChar

StartChar: M.swsh.001
Encoding: 65545 -1 114
Width: 1073
GlyphClass: 2
Flags: MW
LayerCount: 2
Fore
SplineSet
842 660 m 1
 965 660 l 1
 965 0 l 1
 889 0 l 1
 889 415 l 1
 898 589 l 1
 897 589 l 1
 680 0 l 1
 612 0 l 1
 395 589 l 1
 394 589 l 1
 403 415 l 1
 403 0 l 1
 327 0 l 1
 327 595 l 1
 236 595 l 2
 148 595 90 558 90 480 c 0
 90 419 136 377 200 366 c 1
 169 302 l 1
 84 315 10 382 10 481 c 0
 10 593 92 660 219 660 c 2
 450 660 l 1
 595 259 l 1
 645 94 l 1
 647 94 l 1
 698 258 l 1
 842 660 l 1
EndSplineSet
EndChar

StartChar: R.swsh.001
Encoding: 65546 -1 115
Width: 685
GlyphClass: 2
Flags: MW
AnchorPoint: "Anchor-0" 365 0 basechar 0
LayerCount: 2
Fore
SplineSet
535 90 m 2
 565 48 636 -14 685 -31 c 1
 642 -86 l 1
 528 -29 498 12 459 68 c 2
 315 274 l 1
 188 274 l 1
 188 0 l 1
 108 0 l 1
 108 660 l 1
 358 660 l 2
 492 660 581 586 581 467 c 0
 581 361 511 291 401 277 c 1
 535 90 l 2
188 585 m 1
 188 349 l 1
 357 349 l 2
 451 349 497 388 497 467 c 0
 497 546 451 585 357 585 c 2
 188 585 l 1
EndSplineSet
EndChar

StartChar: Racute.swsh.001
Encoding: 65547 -1 116
Width: 685
GlyphClass: 2
Flags: MW
AnchorPoint: "Anchor-0" 365 0 basechar 0
LayerCount: 2
Fore
SplineSet
431 891 m 1
 345 743 l 1
 280 743 l 1
 337 891 l 1
 431 891 l 1
535 90 m 2
 565 48 636 -14 685 -31 c 1
 642 -86 l 1
 528 -29 498 12 459 68 c 2
 315 274 l 1
 188 274 l 1
 188 0 l 1
 108 0 l 1
 108 660 l 1
 358 660 l 2
 492 660 581 586 581 467 c 0
 581 361 511 291 401 277 c 1
 535 90 l 2
188 585 m 1
 188 349 l 1
 357 349 l 2
 451 349 497 388 497 467 c 0
 497 546 451 585 357 585 c 2
 188 585 l 1
EndSplineSet
EndChar

StartChar: Rcaron.swsh.001
Encoding: 65548 -1 117
Width: 685
GlyphClass: 2
Flags: MW
AnchorPoint: "Anchor-0" 365 0 basechar 0
LayerCount: 2
Fore
SplineSet
367 738 m 1
 277 738 l 1
 163 905 l 1
 236 905 l 1
 322 790 l 1
 408 905 l 1
 481 905 l 1
 367 738 l 1
535 90 m 2
 565 48 636 -14 685 -31 c 1
 642 -86 l 1
 528 -29 498 12 459 68 c 2
 315 274 l 1
 188 274 l 1
 188 0 l 1
 108 0 l 1
 108 660 l 1
 358 660 l 2
 492 660 581 586 581 467 c 0
 581 361 511 291 401 277 c 1
 535 90 l 2
188 585 m 1
 188 349 l 1
 357 349 l 2
 451 349 497 388 497 467 c 0
 497 546 451 585 357 585 c 2
 188 585 l 1
EndSplineSet
EndChar

StartChar: Rcommaaccent.swsh.001
Encoding: 65549 -1 118
Width: 685
GlyphClass: 2
Flags: MW
AnchorPoint: "Anchor-0" 365 0 basechar 0
LayerCount: 2
Fore
SplineSet
535 90 m 2
 565 48 636 -14 685 -31 c 1
 642 -86 l 1
 528 -29 498 12 459 68 c 2
 315 274 l 1
 188 274 l 1
 188 0 l 1
 108 0 l 1
 108 660 l 1
 358 660 l 2
 492 660 581 586 581 467 c 0
 581 361 511 291 401 277 c 1
 535 90 l 2
188 585 m 1
 188 349 l 1
 357 349 l 2
 451 349 497 388 497 467 c 0
 497 546 451 585 357 585 c 2
 188 585 l 1
267 -237 m 1
 311 -76 l 1
 395 -76 l 1
 330 -237 l 1
 267 -237 l 1
EndSplineSet
EndChar

StartChar: Iacute_J.loclNLD
Encoding: 65550 -1 119
Width: 862
GlyphClass: 2
Flags: MW
LayerCount: 2
Fore
SplineSet
163 891 m 1
 257 891 l 1
 171 743 l 1
 106 743 l 1
 163 891 l 1
746 891 m 1
 840 891 l 1
 754 743 l 1
 689 743 l 1
 746 891 l 1
188 660 m 1
 188 0 l 1
 108 0 l 1
 108 660 l 1
 188 660 l 1
761 660 m 1
 761 226 l 2
 761 78 677 -10 537 -10 c 0
 389 -10 317 79 343 218 c 1
 417 233 l 1
 402 120 434 65 534 65 c 0
 647 65 681 128 681 246 c 2
 681 660 l 1
 761 660 l 1
EndSplineSet
Substitution2: "'ss05' Style Set 5 lookup 51 subtable" Iacute_J.loclNLD.ss05
Substitution2: "'salt' Stylistic Alternatives lookup 42 subtable" Iacute_J.loclNLD.ss05
Substitution2: "'c2sc' Capitals to Small Capitals lookup 11 subtable" iacute_j.loclNLD.sc
Ligature2: "'locl' Localized Forms in Latin lookup 9 subtable" Iacute J
AlternateSubs2: "'aalt' Access All Alternates lookup 1 subtable" iacute_j.loclNLD.sc Iacute_J.loclNLD.ss05
EndChar

StartChar: R.ss03
Encoding: 65551 -1 120
Width: 655
GlyphClass: 2
Flags: MW
AnchorPoint: "Anchor-0" 365 0 basechar 0
LayerCount: 2
Fore
SplineSet
108 0 m 1
 108 660 l 1
 358 660 l 2
 492 660 581 586 581 467 c 0
 581 381 533 322 443 300 c 1
 443 298 l 1
 520 285 557 236 560 164 c 0
 567 45 578 24 591 3 c 1
 591 0 l 1
 505 0 l 1
 495 23 486 63 481 156 c 0
 477 233 431 274 328 274 c 2
 188 274 l 1
 188 0 l 1
 108 0 l 1
188 349 m 1
 357 349 l 2
 451 349 497 388 497 467 c 0
 497 546 451 585 357 585 c 2
 188 585 l 1
 188 349 l 1
EndSplineSet
EndChar

StartChar: Racute.ss03
Encoding: 65552 -1 121
Width: 655
GlyphClass: 2
Flags: MW
AnchorPoint: "Anchor-0" 365 0 basechar 0
LayerCount: 2
Fore
SplineSet
337 891 m 1
 431 891 l 1
 345 743 l 1
 280 743 l 1
 337 891 l 1
108 0 m 1
 108 660 l 1
 358 660 l 2
 492 660 581 586 581 467 c 0
 581 381 533 322 443 300 c 1
 443 298 l 1
 520 285 557 236 560 164 c 0
 567 45 578 24 591 3 c 1
 591 0 l 1
 505 0 l 1
 495 23 486 63 481 156 c 0
 477 233 431 274 328 274 c 2
 188 274 l 1
 188 0 l 1
 108 0 l 1
188 349 m 1
 357 349 l 2
 451 349 497 388 497 467 c 0
 497 546 451 585 357 585 c 2
 188 585 l 1
 188 349 l 1
EndSplineSet
EndChar

StartChar: Rcaron.ss03
Encoding: 65553 -1 122
Width: 655
GlyphClass: 2
Flags: MW
AnchorPoint: "Anchor-0" 365 0 basechar 0
LayerCount: 2
Fore
SplineSet
481 905 m 1
 367 738 l 1
 277 738 l 1
 163 905 l 1
 236 905 l 1
 322 790 l 1
 408 905 l 1
 481 905 l 1
108 0 m 1
 108 660 l 1
 358 660 l 2
 492 660 581 586 581 467 c 0
 581 381 533 322 443 300 c 1
 443 298 l 1
 520 285 557 236 560 164 c 0
 567 45 578 24 591 3 c 1
 591 0 l 1
 505 0 l 1
 495 23 486 63 481 156 c 0
 477 233 431 274 328 274 c 2
 188 274 l 1
 188 0 l 1
 108 0 l 1
188 349 m 1
 357 349 l 2
 451 349 497 388 497 467 c 0
 497 546 451 585 357 585 c 2
 188 585 l 1
 188 349 l 1
EndSplineSet
EndChar

StartChar: Rcommaaccent.ss03
Encoding: 65554 -1 123
Width: 655
GlyphClass: 2
Flags: MW
AnchorPoint: "Anchor-0" 365 0 basechar 0
LayerCount: 2
Fore
SplineSet
108 0 m 1
 108 660 l 1
 358 660 l 2
 492 660 581 586 581 467 c 0
 581 381 533 322 443 300 c 1
 443 298 l 1
 520 285 557 236 560 164 c 0
 567 45 578 24 591 3 c 1
 591 0 l 1
 505 0 l 1
 495 23 486 63 481 156 c 0
 477 233 431 274 328 274 c 2
 188 274 l 1
 188 0 l 1
 108 0 l 1
188 349 m 1
 357 349 l 2
 451 349 497 388 497 467 c 0
 497 546 451 585 357 585 c 2
 188 585 l 1
 188 349 l 1
395 -76 m 1
 330 -237 l 1
 267 -237 l 1
 311 -76 l 1
 395 -76 l 1
EndSplineSet
EndChar

StartChar: G.ss04
Encoding: 65555 -1 124
Width: 724
GlyphClass: 2
Flags: MW
AnchorPoint: "Anchor-0" 405 0 basechar 0
LayerCount: 2
Fore
SplineSet
362 333 m 1
 658 333 l 1
 658 272 l 2
 658 103 560 -10 374 -10 c 0
 186 -10 68 121 68 330 c 0
 68 539 191 670 376 670 c 0
 507 670 589 621 640 519 c 1
 567 479 l 1
 538 555 468 595 376 595 c 0
 242 595 152 496 152 330 c 0
 152 164 232 65 380 65 c 0
 529 65 582 168 582 252 c 2
 582 258 l 1
 362 258 l 1
 362 333 l 1
EndSplineSet
EndChar

StartChar: Gbreve.ss04
Encoding: 65556 -1 125
Width: 724
GlyphClass: 2
Flags: MW
AnchorPoint: "Anchor-0" 405 0 basechar 0
LayerCount: 2
Fore
SplineSet
373 737 m 0
 285 737 225 797 225 885 c 1
 291 885 l 1
 291 838 326 797 373 797 c 0
 420 797 455 838 455 885 c 1
 521 885 l 1
 521 797 461 737 373 737 c 0
362 333 m 1
 658 333 l 1
 658 272 l 2
 658 103 560 -10 374 -10 c 0
 186 -10 68 121 68 330 c 0
 68 539 191 670 376 670 c 0
 507 670 589 621 640 519 c 1
 567 479 l 1
 538 555 468 595 376 595 c 0
 242 595 152 496 152 330 c 0
 152 164 232 65 380 65 c 0
 529 65 582 168 582 252 c 2
 582 258 l 1
 362 258 l 1
 362 333 l 1
EndSplineSet
EndChar

StartChar: Gcommaaccent.ss04
Encoding: 65557 -1 126
Width: 724
GlyphClass: 2
Flags: MW
AnchorPoint: "Anchor-0" 405 0 basechar 0
LayerCount: 2
Fore
SplineSet
362 333 m 1
 658 333 l 1
 658 272 l 2
 658 103 560 -10 374 -10 c 0
 186 -10 68 121 68 330 c 0
 68 539 191 670 376 670 c 0
 507 670 589 621 640 519 c 1
 567 479 l 1
 538 555 468 595 376 595 c 0
 242 595 152 496 152 330 c 0
 152 164 232 65 380 65 c 0
 529 65 582 168 582 252 c 2
 582 258 l 1
 362 258 l 1
 362 333 l 1
307 -237 m 1
 351 -76 l 1
 435 -76 l 1
 370 -237 l 1
 307 -237 l 1
EndSplineSet
EndChar

StartChar: IJ.ss05
Encoding: 65558 -1 127
Width: 633
GlyphClass: 2
Flags: MW
LayerCount: 2
Fore
SplineSet
532 660 m 1
 532 226 l 2
 532 78 446 -10 313 -10 c 0
 170 -10 97 63 112 191 c 1
 189 191 l 1
 174 105 226 65 313 65 c 0
 400 65 452 127 452 246 c 2
 452 660 l 1
 532 660 l 1
188 660 m 1
 188 287 l 1
 108 287 l 1
 108 660 l 1
 188 660 l 1
EndSplineSet
EndChar

StartChar: Iacute_J.loclNLD.ss05
Encoding: 65559 -1 128
Width: 626
GlyphClass: 2
Flags: MW
LayerCount: 2
Fore
SplineSet
156 891 m 1
 250 891 l 1
 164 743 l 1
 99 743 l 1
 156 891 l 1
510 891 m 1
 604 891 l 1
 518 743 l 1
 453 743 l 1
 510 891 l 1
525 660 m 1
 525 226 l 2
 525 78 439 -10 306 -10 c 0
 163 -10 90 63 105 191 c 1
 182 191 l 1
 167 105 219 65 306 65 c 0
 393 65 445 127 445 246 c 2
 445 660 l 1
 525 660 l 1
181 660 m 1
 181 287 l 1
 101 287 l 1
 101 660 l 1
 181 660 l 1
EndSplineSet
EndChar

StartChar: A.swsh
Encoding: 65560 -1 129
Width: 870
GlyphClass: 2
Flags: MW
LayerCount: 2
Fore
SplineSet
759 0 m 1
 689 183 l 1
 390 183 l 1
 336 42 l 2
 299 -58 240 -110 138 -110 c 0
 33 -110 -29 -60 -35 22 c 1
 23 65 l 1
 35 -21 72 -40 137 -40 c 0
 205 -40 231 -12 273 95 c 2
 468 595 l 1
 330 595 l 2
 242 595 184 558 184 480 c 0
 184 419 230 377 294 366 c 1
 263 302 l 1
 178 315 104 382 104 481 c 0
 104 593 186 660 313 660 c 2
 588 660 l 1
 844 0 l 1
 759 0 l 1
418 258 m 1
 660 258 l 1
 571 492 l 1
 540 584 l 1
 538 584 l 1
 509 495 l 1
 418 258 l 1
EndSplineSet
EndChar

StartChar: Aacute.swsh
Encoding: 65561 -1 130
Width: 870
GlyphClass: 2
Flags: MW
LayerCount: 2
Fore
SplineSet
649 891 m 1
 563 743 l 1
 498 743 l 1
 555 891 l 1
 649 891 l 1
759 0 m 1
 689 183 l 1
 390 183 l 1
 336 42 l 2
 299 -58 240 -110 138 -110 c 0
 33 -110 -29 -60 -35 22 c 1
 23 65 l 1
 35 -21 72 -40 137 -40 c 0
 205 -40 231 -12 273 95 c 2
 468 595 l 1
 330 595 l 2
 242 595 184 558 184 480 c 0
 184 419 230 377 294 366 c 1
 263 302 l 1
 178 315 104 382 104 481 c 0
 104 593 186 660 313 660 c 2
 588 660 l 1
 844 0 l 1
 759 0 l 1
418 258 m 1
 660 258 l 1
 571 492 l 1
 540 584 l 1
 538 584 l 1
 509 495 l 1
 418 258 l 1
EndSplineSet
EndChar

StartChar: Abreve.swsh
Encoding: 65562 -1 131
Width: 870
GlyphClass: 2
Flags: MW
LayerCount: 2
Fore
SplineSet
540 737 m 0
 452 737 392 797 392 885 c 1
 458 885 l 1
 458 838 493 797 540 797 c 0
 587 797 622 838 622 885 c 1
 688 885 l 1
 688 797 628 737 540 737 c 0
759 0 m 1
 689 183 l 1
 390 183 l 1
 336 42 l 2
 299 -58 240 -110 138 -110 c 0
 33 -110 -29 -60 -35 22 c 1
 23 65 l 1
 35 -21 72 -40 137 -40 c 0
 205 -40 231 -12 273 95 c 2
 468 595 l 1
 330 595 l 2
 242 595 184 558 184 480 c 0
 184 419 230 377 294 366 c 1
 263 302 l 1
 178 315 104 382 104 481 c 0
 104 593 186 660 313 660 c 2
 588 660 l 1
 844 0 l 1
 759 0 l 1
418 258 m 1
 660 258 l 1
 571 492 l 1
 540 584 l 1
 538 584 l 1
 509 495 l 1
 418 258 l 1
EndSplineSet
EndChar

StartChar: Acircumflex.swsh
Encoding: 65563 -1 132
Width: 870
GlyphClass: 2
Flags: MW
LayerCount: 2
Fore
SplineSet
540 851 m 1
 454 736 l 1
 381 736 l 1
 495 903 l 1
 585 903 l 1
 699 736 l 1
 626 736 l 1
 540 851 l 1
759 0 m 1
 689 183 l 1
 390 183 l 1
 336 42 l 2
 299 -58 240 -110 138 -110 c 0
 33 -110 -29 -60 -35 22 c 1
 23 65 l 1
 35 -21 72 -40 137 -40 c 0
 205 -40 231 -12 273 95 c 2
 468 595 l 1
 330 595 l 2
 242 595 184 558 184 480 c 0
 184 419 230 377 294 366 c 1
 263 302 l 1
 178 315 104 382 104 481 c 0
 104 593 186 660 313 660 c 2
 588 660 l 1
 844 0 l 1
 759 0 l 1
418 258 m 1
 660 258 l 1
 571 492 l 1
 540 584 l 1
 538 584 l 1
 509 495 l 1
 418 258 l 1
EndSplineSet
EndChar

StartChar: Adieresis.swsh
Encoding: 65564 -1 133
Width: 870
GlyphClass: 2
Flags: MW
LayerCount: 2
Fore
SplineSet
443 742 m 0
 409 742 386 765 386 799 c 0
 386 833 409 856 443 856 c 0
 477 856 500 833 500 799 c 0
 500 765 477 742 443 742 c 0
637 742 m 0
 603 742 580 765 580 799 c 0
 580 833 603 856 637 856 c 0
 671 856 694 833 694 799 c 0
 694 765 671 742 637 742 c 0
759 0 m 1
 689 183 l 1
 390 183 l 1
 336 42 l 2
 299 -58 240 -110 138 -110 c 0
 33 -110 -29 -60 -35 22 c 1
 23 65 l 1
 35 -21 72 -40 137 -40 c 0
 205 -40 231 -12 273 95 c 2
 468 595 l 1
 330 595 l 2
 242 595 184 558 184 480 c 0
 184 419 230 377 294 366 c 1
 263 302 l 1
 178 315 104 382 104 481 c 0
 104 593 186 660 313 660 c 2
 588 660 l 1
 844 0 l 1
 759 0 l 1
418 258 m 1
 660 258 l 1
 571 492 l 1
 540 584 l 1
 538 584 l 1
 509 495 l 1
 418 258 l 1
EndSplineSet
EndChar

StartChar: Agrave.swsh
Encoding: 65565 -1 134
Width: 870
GlyphClass: 2
Flags: MW
LayerCount: 2
Fore
SplineSet
573 743 m 1
 508 743 l 1
 422 891 l 1
 516 891 l 1
 573 743 l 1
759 0 m 1
 689 183 l 1
 390 183 l 1
 336 42 l 2
 299 -58 240 -110 138 -110 c 0
 33 -110 -29 -60 -35 22 c 1
 23 65 l 1
 35 -21 72 -40 137 -40 c 0
 205 -40 231 -12 273 95 c 2
 468 595 l 1
 330 595 l 2
 242 595 184 558 184 480 c 0
 184 419 230 377 294 366 c 1
 263 302 l 1
 178 315 104 382 104 481 c 0
 104 593 186 660 313 660 c 2
 588 660 l 1
 844 0 l 1
 759 0 l 1
418 258 m 1
 660 258 l 1
 571 492 l 1
 540 584 l 1
 538 584 l 1
 509 495 l 1
 418 258 l 1
EndSplineSet
EndChar

StartChar: Amacron.swsh
Encoding: 65566 -1 135
Width: 870
GlyphClass: 2
Flags: MW
LayerCount: 2
Fore
SplineSet
714 823 m 1
 714 756 l 1
 366 756 l 1
 366 823 l 1
 714 823 l 1
759 0 m 1
 689 183 l 1
 390 183 l 1
 336 42 l 2
 299 -58 240 -110 138 -110 c 0
 33 -110 -29 -60 -35 22 c 1
 23 65 l 1
 35 -21 72 -40 137 -40 c 0
 205 -40 231 -12 273 95 c 2
 468 595 l 1
 330 595 l 2
 242 595 184 558 184 480 c 0
 184 419 230 377 294 366 c 1
 263 302 l 1
 178 315 104 382 104 481 c 0
 104 593 186 660 313 660 c 2
 588 660 l 1
 844 0 l 1
 759 0 l 1
418 258 m 1
 660 258 l 1
 571 492 l 1
 540 584 l 1
 538 584 l 1
 509 495 l 1
 418 258 l 1
EndSplineSet
EndChar

StartChar: Aogonek.swsh
Encoding: 65567 -1 136
Width: 870
GlyphClass: 2
Flags: MW
LayerCount: 2
Fore
SplineSet
840 -145 m 1
 856 -196 l 1
 837 -209 803 -215 774 -215 c 0
 702 -215 655 -177 655 -111 c 0
 655 -56 686 -15 753 14 c 1
 689 183 l 1
 390 183 l 1
 336 42 l 2
 299 -58 240 -110 138 -110 c 0
 33 -110 -29 -60 -35 22 c 1
 23 65 l 1
 35 -21 72 -40 137 -40 c 0
 205 -40 231 -12 273 95 c 2
 468 595 l 1
 330 595 l 2
 242 595 184 558 184 480 c 0
 184 419 230 377 294 366 c 1
 263 302 l 1
 178 315 104 382 104 481 c 0
 104 593 186 660 313 660 c 2
 588 660 l 1
 844 0 l 1
 743 -33 720 -68 720 -106 c 0
 720 -139 745 -158 784 -158 c 0
 801 -158 824 -156 840 -145 c 1
418 258 m 1
 660 258 l 1
 571 492 l 1
 540 584 l 1
 538 584 l 1
 509 495 l 1
 418 258 l 1
EndSplineSet
EndChar

StartChar: Atilde.swsh
Encoding: 65568 -1 137
Width: 870
GlyphClass: 2
Flags: MW
LayerCount: 2
Fore
SplineSet
470 811 m 0
 440 811 428 785 421 742 c 1
 358 742 l 1
 365 830 400 876 471 876 c 0
 544 876 567 808 607 808 c 0
 637 808 650 834 657 877 c 1
 720 877 l 1
 713 789 677 743 608 743 c 0
 533 743 513 811 470 811 c 0
759 0 m 1
 689 183 l 1
 390 183 l 1
 336 42 l 2
 299 -58 240 -110 138 -110 c 0
 33 -110 -29 -60 -35 22 c 1
 23 65 l 1
 35 -21 72 -40 137 -40 c 0
 205 -40 231 -12 273 95 c 2
 468 595 l 1
 330 595 l 2
 242 595 184 558 184 480 c 0
 184 419 230 377 294 366 c 1
 263 302 l 1
 178 315 104 382 104 481 c 0
 104 593 186 660 313 660 c 2
 588 660 l 1
 844 0 l 1
 759 0 l 1
418 258 m 1
 660 258 l 1
 571 492 l 1
 540 584 l 1
 538 584 l 1
 509 495 l 1
 418 258 l 1
EndSplineSet
EndChar

StartChar: E.swsh
Encoding: 65569 -1 138
Width: 857
GlyphClass: 2
Flags: MW
AnchorPoint: "Anchor-0" 558 0 basechar 0
LayerCount: 2
Fore
SplineSet
407 75 m 1
 805 75 l 1
 805 0 l 1
 327 0 l 1
 327 595 l 1
 236 595 l 2
 148 595 90 558 90 480 c 0
 90 419 136 377 200 366 c 1
 169 302 l 1
 84 315 10 382 10 481 c 0
 10 593 92 660 219 660 c 2
 790 660 l 1
 790 585 l 1
 407 585 l 1
 407 372 l 1
 705 372 l 1
 705 297 l 1
 407 297 l 1
 407 75 l 1
EndSplineSet
EndChar

StartChar: Eacute.swsh
Encoding: 65570 -1 139
Width: 857
GlyphClass: 2
Flags: MW
AnchorPoint: "Anchor-0" 558 0 basechar 0
LayerCount: 2
Fore
SplineSet
667 891 m 1
 581 743 l 1
 516 743 l 1
 573 891 l 1
 667 891 l 1
407 75 m 1
 805 75 l 1
 805 0 l 1
 327 0 l 1
 327 595 l 1
 236 595 l 2
 148 595 90 558 90 480 c 0
 90 419 136 377 200 366 c 1
 169 302 l 1
 84 315 10 382 10 481 c 0
 10 593 92 660 219 660 c 2
 790 660 l 1
 790 585 l 1
 407 585 l 1
 407 372 l 1
 705 372 l 1
 705 297 l 1
 407 297 l 1
 407 75 l 1
EndSplineSet
EndChar

StartChar: Ecaron.swsh
Encoding: 65571 -1 140
Width: 857
GlyphClass: 2
Flags: MW
AnchorPoint: "Anchor-0" 558 0 basechar 0
LayerCount: 2
Fore
SplineSet
603 738 m 1
 513 738 l 1
 399 905 l 1
 472 905 l 1
 558 790 l 1
 644 905 l 1
 717 905 l 1
 603 738 l 1
407 75 m 1
 805 75 l 1
 805 0 l 1
 327 0 l 1
 327 595 l 1
 236 595 l 2
 148 595 90 558 90 480 c 0
 90 419 136 377 200 366 c 1
 169 302 l 1
 84 315 10 382 10 481 c 0
 10 593 92 660 219 660 c 2
 790 660 l 1
 790 585 l 1
 407 585 l 1
 407 372 l 1
 705 372 l 1
 705 297 l 1
 407 297 l 1
 407 75 l 1
EndSplineSet
EndChar

StartChar: Ecircumflex.swsh
Encoding: 65572 -1 141
Width: 857
GlyphClass: 2
Flags: MW
AnchorPoint: "Anchor-0" 558 0 basechar 0
LayerCount: 2
Fore
SplineSet
558 851 m 1
 472 736 l 1
 399 736 l 1
 513 903 l 1
 603 903 l 1
 717 736 l 1
 644 736 l 1
 558 851 l 1
407 75 m 1
 805 75 l 1
 805 0 l 1
 327 0 l 1
 327 595 l 1
 236 595 l 2
 148 595 90 558 90 480 c 0
 90 419 136 377 200 366 c 1
 169 302 l 1
 84 315 10 382 10 481 c 0
 10 593 92 660 219 660 c 2
 790 660 l 1
 790 585 l 1
 407 585 l 1
 407 372 l 1
 705 372 l 1
 705 297 l 1
 407 297 l 1
 407 75 l 1
EndSplineSet
EndChar

StartChar: Edieresis.swsh
Encoding: 65573 -1 142
Width: 857
GlyphClass: 2
Flags: MW
AnchorPoint: "Anchor-0" 558 0 basechar 0
LayerCount: 2
Fore
SplineSet
461 742 m 0
 427 742 404 765 404 799 c 0
 404 833 427 856 461 856 c 0
 495 856 518 833 518 799 c 0
 518 765 495 742 461 742 c 0
655 742 m 0
 621 742 598 765 598 799 c 0
 598 833 621 856 655 856 c 0
 689 856 712 833 712 799 c 0
 712 765 689 742 655 742 c 0
407 75 m 1
 805 75 l 1
 805 0 l 1
 327 0 l 1
 327 595 l 1
 236 595 l 2
 148 595 90 558 90 480 c 0
 90 419 136 377 200 366 c 1
 169 302 l 1
 84 315 10 382 10 481 c 0
 10 593 92 660 219 660 c 2
 790 660 l 1
 790 585 l 1
 407 585 l 1
 407 372 l 1
 705 372 l 1
 705 297 l 1
 407 297 l 1
 407 75 l 1
EndSplineSet
EndChar

StartChar: Edotaccent.swsh
Encoding: 65574 -1 143
Width: 857
GlyphClass: 2
Flags: MW
AnchorPoint: "Anchor-0" 558 0 basechar 0
LayerCount: 2
Fore
SplineSet
558 756 m 0
 522 756 498 780 498 816 c 0
 498 852 522 876 558 876 c 0
 594 876 618 852 618 816 c 0
 618 780 594 756 558 756 c 0
407 75 m 1
 805 75 l 1
 805 0 l 1
 327 0 l 1
 327 595 l 1
 236 595 l 2
 148 595 90 558 90 480 c 0
 90 419 136 377 200 366 c 1
 169 302 l 1
 84 315 10 382 10 481 c 0
 10 593 92 660 219 660 c 2
 790 660 l 1
 790 585 l 1
 407 585 l 1
 407 372 l 1
 705 372 l 1
 705 297 l 1
 407 297 l 1
 407 75 l 1
EndSplineSet
EndChar

StartChar: Egrave.swsh
Encoding: 65575 -1 144
Width: 857
GlyphClass: 2
Flags: MW
AnchorPoint: "Anchor-0" 558 0 basechar 0
LayerCount: 2
Fore
SplineSet
591 743 m 1
 526 743 l 1
 440 891 l 1
 534 891 l 1
 591 743 l 1
407 75 m 1
 805 75 l 1
 805 0 l 1
 327 0 l 1
 327 595 l 1
 236 595 l 2
 148 595 90 558 90 480 c 0
 90 419 136 377 200 366 c 1
 169 302 l 1
 84 315 10 382 10 481 c 0
 10 593 92 660 219 660 c 2
 790 660 l 1
 790 585 l 1
 407 585 l 1
 407 372 l 1
 705 372 l 1
 705 297 l 1
 407 297 l 1
 407 75 l 1
EndSplineSet
EndChar

StartChar: Emacron.swsh
Encoding: 65576 -1 145
Width: 857
GlyphClass: 2
Flags: MW
AnchorPoint: "Anchor-0" 558 0 basechar 0
LayerCount: 2
Fore
SplineSet
732 823 m 1
 732 756 l 1
 384 756 l 1
 384 823 l 1
 732 823 l 1
407 75 m 1
 805 75 l 1
 805 0 l 1
 327 0 l 1
 327 595 l 1
 236 595 l 2
 148 595 90 558 90 480 c 0
 90 419 136 377 200 366 c 1
 169 302 l 1
 84 315 10 382 10 481 c 0
 10 593 92 660 219 660 c 2
 790 660 l 1
 790 585 l 1
 407 585 l 1
 407 372 l 1
 705 372 l 1
 705 297 l 1
 407 297 l 1
 407 75 l 1
EndSplineSet
EndChar

StartChar: Eogonek.swsh
Encoding: 65577 -1 146
Width: 857
GlyphClass: 2
Flags: MW
AnchorPoint: "Anchor-0" 558 0 basechar 0
LayerCount: 2
Fore
SplineSet
801 -145 m 1
 817 -196 l 1
 798 -209 764 -215 735 -215 c 0
 663 -215 616 -177 616 -117 c 0
 616 -60 646 -25 703 0 c 1
 327 0 l 1
 327 595 l 1
 236 595 l 2
 148 595 90 558 90 480 c 0
 90 419 136 377 200 366 c 1
 169 302 l 1
 84 315 10 382 10 481 c 0
 10 593 92 660 219 660 c 2
 790 660 l 1
 790 585 l 1
 407 585 l 1
 407 372 l 1
 705 372 l 1
 705 297 l 1
 407 297 l 1
 407 75 l 1
 805 75 l 1
 805 0 l 1
 704 -34 681 -68 681 -106 c 0
 681 -139 706 -158 745 -158 c 0
 762 -158 785 -156 801 -145 c 1
EndSplineSet
EndChar

StartChar: F.swsh
Encoding: 65578 -1 147
Width: 829
GlyphClass: 2
Flags: MW
LayerCount: 2
Fore
SplineSet
789 585 m 1
 407 585 l 1
 407 372 l 1
 705 372 l 1
 705 297 l 1
 407 297 l 1
 407 0 l 1
 327 0 l 1
 327 595 l 1
 236 595 l 2
 148 595 90 558 90 480 c 0
 90 419 136 377 200 366 c 1
 169 302 l 1
 84 315 10 382 10 481 c 0
 10 593 92 660 219 660 c 2
 789 660 l 1
 789 585 l 1
EndSplineSet
EndChar

StartChar: L.swsh
Encoding: 65579 -1 148
Width: 637
GlyphClass: 2
Flags: MW
AnchorPoint: "Anchor-0" 377 0 basechar 0
LayerCount: 2
Fore
SplineSet
468 348 m 1
 553 345 627 288 627 179 c 0
 627 57 545 0 418 0 c 2
 108 0 l 1
 108 660 l 1
 188 660 l 1
 188 75 l 1
 401 75 l 2
 489 75 547 99 547 180 c 0
 547 251 501 283 437 284 c 1
 468 348 l 1
EndSplineSet
EndChar

StartChar: Lacute.swsh
Encoding: 65580 -1 149
Width: 637
GlyphClass: 2
Flags: MW
AnchorPoint: "Anchor-0" 377 0 basechar 0
LayerCount: 2
Fore
SplineSet
257 891 m 1
 171 743 l 1
 106 743 l 1
 163 891 l 1
 257 891 l 1
468 348 m 1
 553 345 627 288 627 179 c 0
 627 57 545 0 418 0 c 2
 108 0 l 1
 108 660 l 1
 188 660 l 1
 188 75 l 1
 401 75 l 2
 489 75 547 99 547 180 c 0
 547 251 501 283 437 284 c 1
 468 348 l 1
EndSplineSet
EndChar

StartChar: Lcaron.swsh
Encoding: 65581 -1 150
Width: 637
GlyphClass: 2
Flags: MW
AnchorPoint: "Anchor-0" 377 0 basechar 0
LayerCount: 2
Fore
SplineSet
307 905 m 1
 193 738 l 1
 103 738 l 1
 -11 905 l 1
 62 905 l 1
 148 790 l 1
 234 905 l 1
 307 905 l 1
468 348 m 1
 553 345 627 288 627 179 c 0
 627 57 545 0 418 0 c 2
 108 0 l 1
 108 660 l 1
 188 660 l 1
 188 75 l 1
 401 75 l 2
 489 75 547 99 547 180 c 0
 547 251 501 283 437 284 c 1
 468 348 l 1
EndSplineSet
EndChar

StartChar: Lcommaaccent.swsh
Encoding: 65582 -1 151
Width: 637
GlyphClass: 2
Flags: MW
AnchorPoint: "Anchor-0" 377 0 basechar 0
LayerCount: 2
Fore
SplineSet
468 348 m 1
 553 345 627 288 627 179 c 0
 627 57 545 0 418 0 c 2
 108 0 l 1
 108 660 l 1
 188 660 l 1
 188 75 l 1
 401 75 l 2
 489 75 547 99 547 180 c 0
 547 251 501 283 437 284 c 1
 468 348 l 1
279 -237 m 1
 323 -76 l 1
 407 -76 l 1
 342 -237 l 1
 279 -237 l 1
EndSplineSet
EndChar

StartChar: Lslash.swsh
Encoding: 65583 -1 152
Width: 667
GlyphClass: 2
Flags: MW
AnchorPoint: "Anchor-0" 407 0 basechar 0
LayerCount: 2
Fore
SplineSet
498 348 m 1
 583 345 657 288 657 179 c 0
 657 57 575 0 448 0 c 2
 138 0 l 1
 138 255 l 1
 33 196 l 1
 33 279 l 1
 138 338 l 1
 138 660 l 1
 218 660 l 1
 218 382 l 1
 395 481 l 1
 395 398 l 1
 218 299 l 1
 218 75 l 1
 431 75 l 2
 519 75 577 99 577 180 c 0
 577 251 531 283 467 284 c 1
 498 348 l 1
EndSplineSet
EndChar

StartChar: M.swsh
Encoding: 65584 -1 153
Width: 1073
GlyphClass: 2
Flags: MW
LayerCount: 2
Fore
SplineSet
842 660 m 1
 965 660 l 1
 965 0 l 1
 889 0 l 1
 889 415 l 1
 898 589 l 1
 897 589 l 1
 680 0 l 1
 612 0 l 1
 395 589 l 1
 394 589 l 1
 403 415 l 1
 403 66 l 2
 403 -26 337 -110 211 -110 c 0
 104 -110 50 -58 38 21 c 1
 97 64 l 1
 109 -10 140 -41 211 -41 c 0
 284 -41 327 13 327 90 c 2
 327 595 l 1
 236 595 l 2
 148 595 90 558 90 480 c 0
 90 419 136 377 200 366 c 1
 169 302 l 1
 84 315 10 382 10 481 c 0
 10 593 92 660 219 660 c 2
 450 660 l 1
 595 259 l 1
 645 94 l 1
 647 94 l 1
 698 258 l 1
 842 660 l 1
EndSplineSet
Substitution2: "'salt' Stylistic Alternatives lookup 42 subtable" M.swsh.001
Substitution2: "'aalt' Access All Alternates lookup 0 subtable" M.swsh.001
EndChar

StartChar: N.swsh
Encoding: 65585 -1 154
Width: 915
GlyphClass: 2
Flags: MW
AnchorPoint: "Anchor-0" 397 0 basechar 0
LayerCount: 2
Fore
SplineSet
742 735 m 0
 849 735 903 683 915 604 c 1
 856 561 l 1
 844 635 813 666 742 666 c 0
 669 666 626 612 626 535 c 2
 626 0 l 1
 527 0 l 1
 251 442 l 1
 181 572 l 1
 180 572 l 1
 184 466 l 1
 184 0 l 1
 108 0 l 1
 108 660 l 1
 207 660 l 1
 482 220 l 1
 553 88 l 1
 554 88 l 1
 550 194 l 1
 550 559 l 2
 550 651 616 735 742 735 c 0
EndSplineSet
EndChar

StartChar: Nacute.swsh
Encoding: 65586 -1 155
Width: 915
GlyphClass: 2
Flags: MW
AnchorPoint: "Anchor-0" 397 0 basechar 0
LayerCount: 2
Fore
SplineSet
480 891 m 1
 394 743 l 1
 329 743 l 1
 386 891 l 1
 480 891 l 1
742 735 m 0
 849 735 903 683 915 604 c 1
 856 561 l 1
 844 635 813 666 742 666 c 0
 669 666 626 612 626 535 c 2
 626 0 l 1
 527 0 l 1
 251 442 l 1
 181 572 l 1
 180 572 l 1
 184 466 l 1
 184 0 l 1
 108 0 l 1
 108 660 l 1
 207 660 l 1
 482 220 l 1
 553 88 l 1
 554 88 l 1
 550 194 l 1
 550 559 l 2
 550 651 616 735 742 735 c 0
EndSplineSet
EndChar

StartChar: Ncaron.swsh
Encoding: 65587 -1 156
Width: 915
GlyphClass: 2
Flags: MW
AnchorPoint: "Anchor-0" 397 0 basechar 0
LayerCount: 2
Fore
SplineSet
416 738 m 1
 326 738 l 1
 212 905 l 1
 285 905 l 1
 371 790 l 1
 457 905 l 1
 530 905 l 1
 416 738 l 1
742 735 m 0
 849 735 903 683 915 604 c 1
 856 561 l 1
 844 635 813 666 742 666 c 0
 669 666 626 612 626 535 c 2
 626 0 l 1
 527 0 l 1
 251 442 l 1
 181 572 l 1
 180 572 l 1
 184 466 l 1
 184 0 l 1
 108 0 l 1
 108 660 l 1
 207 660 l 1
 482 220 l 1
 553 88 l 1
 554 88 l 1
 550 194 l 1
 550 559 l 2
 550 651 616 735 742 735 c 0
EndSplineSet
EndChar

StartChar: Ncommaaccent.swsh
Encoding: 65588 -1 157
Width: 915
GlyphClass: 2
Flags: MW
AnchorPoint: "Anchor-0" 397 0 basechar 0
LayerCount: 2
Fore
SplineSet
742 735 m 0
 849 735 903 683 915 604 c 1
 856 561 l 1
 844 635 813 666 742 666 c 0
 669 666 626 612 626 535 c 2
 626 0 l 1
 527 0 l 1
 251 442 l 1
 181 572 l 1
 180 572 l 1
 184 466 l 1
 184 0 l 1
 108 0 l 1
 108 660 l 1
 207 660 l 1
 482 220 l 1
 553 88 l 1
 554 88 l 1
 550 194 l 1
 550 559 l 2
 550 651 616 735 742 735 c 0
299 -237 m 1
 343 -76 l 1
 427 -76 l 1
 362 -237 l 1
 299 -237 l 1
EndSplineSet
EndChar

StartChar: Ntilde.swsh
Encoding: 65589 -1 158
Width: 915
GlyphClass: 2
Flags: MW
AnchorPoint: "Anchor-0" 397 0 basechar 0
LayerCount: 2
Fore
SplineSet
301 811 m 0
 271 811 259 785 252 742 c 1
 189 742 l 1
 196 830 231 876 302 876 c 0
 375 876 398 808 438 808 c 0
 468 808 481 834 488 877 c 1
 551 877 l 1
 544 789 508 743 439 743 c 0
 364 743 344 811 301 811 c 0
742 735 m 0
 849 735 903 683 915 604 c 1
 856 561 l 1
 844 635 813 666 742 666 c 0
 669 666 626 612 626 535 c 2
 626 0 l 1
 527 0 l 1
 251 442 l 1
 181 572 l 1
 180 572 l 1
 184 466 l 1
 184 0 l 1
 108 0 l 1
 108 660 l 1
 207 660 l 1
 482 220 l 1
 553 88 l 1
 554 88 l 1
 550 194 l 1
 550 559 l 2
 550 651 616 735 742 735 c 0
EndSplineSet
EndChar

StartChar: R.swsh
Encoding: 65590 -1 159
Width: 884
GlyphClass: 2
Flags: MW
AnchorPoint: "Anchor-0" 584 0 basechar 0
LayerCount: 2
Fore
SplineSet
745 0 m 1
 565 274 l 1
 407 274 l 1
 407 66 l 2
 407 -26 340 -110 211 -110 c 0
 104 -110 50 -58 38 21 c 1
 97 64 l 1
 109 -10 140 -41 211 -41 c 0
 284 -41 327 13 327 90 c 2
 327 595 l 1
 236 595 l 2
 148 595 90 558 90 480 c 0
 90 419 136 377 200 366 c 1
 169 302 l 1
 84 315 10 382 10 481 c 0
 10 593 92 660 219 660 c 2
 577 660 l 2
 711 660 800 586 800 467 c 0
 800 373 744 307 654 283 c 1
 840 0 l 1
 745 0 l 1
407 585 m 1
 407 349 l 1
 576 349 l 2
 670 349 716 388 716 467 c 0
 716 546 670 585 576 585 c 2
 407 585 l 1
EndSplineSet
EndChar

StartChar: Racute.swsh
Encoding: 65591 -1 160
Width: 884
GlyphClass: 2
Flags: MW
AnchorPoint: "Anchor-0" 584 0 basechar 0
LayerCount: 2
Fore
SplineSet
650 891 m 1
 564 743 l 1
 499 743 l 1
 556 891 l 1
 650 891 l 1
745 0 m 1
 565 274 l 1
 407 274 l 1
 407 66 l 2
 407 -26 340 -110 211 -110 c 0
 104 -110 50 -58 38 21 c 1
 97 64 l 1
 109 -10 140 -41 211 -41 c 0
 284 -41 327 13 327 90 c 2
 327 595 l 1
 236 595 l 2
 148 595 90 558 90 480 c 0
 90 419 136 377 200 366 c 1
 169 302 l 1
 84 315 10 382 10 481 c 0
 10 593 92 660 219 660 c 2
 577 660 l 2
 711 660 800 586 800 467 c 0
 800 373 744 307 654 283 c 1
 840 0 l 1
 745 0 l 1
407 585 m 1
 407 349 l 1
 576 349 l 2
 670 349 716 388 716 467 c 0
 716 546 670 585 576 585 c 2
 407 585 l 1
EndSplineSet
EndChar

StartChar: Rcaron.swsh
Encoding: 65592 -1 161
Width: 884
GlyphClass: 2
Flags: MW
AnchorPoint: "Anchor-0" 584 0 basechar 0
LayerCount: 2
Fore
SplineSet
586 738 m 1
 496 738 l 1
 382 905 l 1
 455 905 l 1
 541 790 l 1
 627 905 l 1
 700 905 l 1
 586 738 l 1
745 0 m 1
 565 274 l 1
 407 274 l 1
 407 66 l 2
 407 -26 340 -110 211 -110 c 0
 104 -110 50 -58 38 21 c 1
 97 64 l 1
 109 -10 140 -41 211 -41 c 0
 284 -41 327 13 327 90 c 2
 327 595 l 1
 236 595 l 2
 148 595 90 558 90 480 c 0
 90 419 136 377 200 366 c 1
 169 302 l 1
 84 315 10 382 10 481 c 0
 10 593 92 660 219 660 c 2
 577 660 l 2
 711 660 800 586 800 467 c 0
 800 373 744 307 654 283 c 1
 840 0 l 1
 745 0 l 1
407 585 m 1
 407 349 l 1
 576 349 l 2
 670 349 716 388 716 467 c 0
 716 546 670 585 576 585 c 2
 407 585 l 1
EndSplineSet
EndChar

StartChar: Rcommaaccent.swsh
Encoding: 65593 -1 162
Width: 884
GlyphClass: 2
Flags: MW
AnchorPoint: "Anchor-0" 584 0 basechar 0
LayerCount: 2
Fore
SplineSet
654 283 m 1
 840 0 l 1
 745 0 l 1
 565 274 l 1
 407 274 l 1
 407 66 l 2
 407 -26 340 -110 211 -110 c 0
 104 -110 50 -58 38 21 c 1
 97 64 l 1
 109 -10 140 -41 211 -41 c 0
 284 -41 327 13 327 90 c 2
 327 595 l 1
 236 595 l 2
 148 595 90 558 90 480 c 0
 90 419 136 377 200 366 c 1
 169 302 l 1
 84 315 10 382 10 481 c 0
 10 593 92 660 219 660 c 2
 577 660 l 2
 711 660 800 586 800 467 c 0
 800 373 744 307 654 283 c 1
407 585 m 1
 407 349 l 1
 576 349 l 2
 670 349 716 388 716 467 c 0
 716 546 670 585 576 585 c 2
 407 585 l 1
486 -237 m 1
 530 -76 l 1
 614 -76 l 1
 549 -237 l 1
 486 -237 l 1
EndSplineSet
EndChar

StartChar: S.swsh
Encoding: 65594 -1 163
Width: 641
GlyphClass: 2
Flags: MW
AnchorPoint: "Anchor-0" 336 -100 basechar 0
LayerCount: 2
Fore
SplineSet
326 -110 m 0
 159 -110 66 -44 66 75 c 0
 66 87 67 100 69 114 c 1
 144 136 l 1
 142 122 141 109 141 97 c 0
 141 7 201 -35 329 -35 c 0
 442 -35 502 14 502 104 c 0
 502 168 459 205 318 241 c 0
 142 286 79 347 79 450 c 0
 79 584 177 670 330 670 c 0
 474 670 558 605 572 482 c 1
 493 451 l 1
 489 554 442 595 331 595 c 0
 224 595 163 545 163 459 c 0
 163 389 209 350 353 312 c 0
 526 266 585 213 585 108 c 0
 585 -23 482 -110 326 -110 c 0
EndSplineSet
EndChar

StartChar: Sacute.swsh
Encoding: 65595 -1 164
Width: 641
GlyphClass: 2
Flags: MW
AnchorPoint: "Anchor-0" 336 -100 basechar 0
LayerCount: 2
Fore
SplineSet
341 891 m 1
 435 891 l 1
 349 743 l 1
 284 743 l 1
 341 891 l 1
326 -110 m 0
 159 -110 66 -44 66 75 c 0
 66 87 67 100 69 114 c 1
 144 136 l 1
 142 122 141 109 141 97 c 0
 141 7 201 -35 329 -35 c 0
 442 -35 502 14 502 104 c 0
 502 168 459 205 318 241 c 0
 142 286 79 347 79 450 c 0
 79 584 177 670 330 670 c 0
 474 670 558 605 572 482 c 1
 493 451 l 1
 489 554 442 595 331 595 c 0
 224 595 163 545 163 459 c 0
 163 389 209 350 353 312 c 0
 526 266 585 213 585 108 c 0
 585 -23 482 -110 326 -110 c 0
EndSplineSet
EndChar

StartChar: Scaron.swsh
Encoding: 65596 -1 165
Width: 641
GlyphClass: 2
Flags: MW
AnchorPoint: "Anchor-0" 336 -100 basechar 0
LayerCount: 2
Fore
SplineSet
485 905 m 1
 371 738 l 1
 281 738 l 1
 167 905 l 1
 240 905 l 1
 326 790 l 1
 412 905 l 1
 485 905 l 1
326 -110 m 0
 159 -110 66 -44 66 75 c 0
 66 87 67 100 69 114 c 1
 144 136 l 1
 142 122 141 109 141 97 c 0
 141 7 201 -35 329 -35 c 0
 442 -35 502 14 502 104 c 0
 502 168 459 205 318 241 c 0
 142 286 79 347 79 450 c 0
 79 584 177 670 330 670 c 0
 474 670 558 605 572 482 c 1
 493 451 l 1
 489 554 442 595 331 595 c 0
 224 595 163 545 163 459 c 0
 163 389 209 350 353 312 c 0
 526 266 585 213 585 108 c 0
 585 -23 482 -110 326 -110 c 0
EndSplineSet
EndChar

StartChar: Scedilla.swsh
Encoding: 65597 -1 166
Width: 641
GlyphClass: 2
Flags: MW
AnchorPoint: "Anchor-0" 336 -100 basechar 0
LayerCount: 2
Fore
SplineSet
585 108 m 0
 585 -12 499 -95 365 -108 c 1
 400 -136 418 -173 418 -208 c 0
 418 -264 376 -315 302 -315 c 0
 255 -315 220 -305 192 -280 c 1
 222 -225 l 1
 238 -242 263 -255 291 -255 c 0
 323 -255 348 -232 348 -197 c 0
 348 -159 331 -137 271 -107 c 1
 139 -94 66 -30 66 75 c 0
 66 87 67 100 69 114 c 1
 144 136 l 1
 142 122 141 109 141 97 c 0
 141 7 201 -35 329 -35 c 0
 442 -35 502 14 502 104 c 0
 502 168 459 205 318 241 c 0
 142 286 79 347 79 450 c 0
 79 584 177 670 330 670 c 0
 474 670 558 605 572 482 c 1
 493 451 l 1
 489 554 442 595 331 595 c 0
 224 595 163 545 163 459 c 0
 163 389 209 350 353 312 c 0
 526 266 585 213 585 108 c 0
EndSplineSet
EndChar

StartChar: Scommaaccent.swsh
Encoding: 65598 -1 167
Width: 641
GlyphClass: 2
Flags: MW
AnchorPoint: "Anchor-0" 336 -100 basechar 0
LayerCount: 2
Fore
SplineSet
326 -110 m 0
 159 -110 66 -44 66 75 c 0
 66 87 67 100 69 114 c 1
 144 136 l 1
 142 122 141 109 141 97 c 0
 141 7 201 -35 329 -35 c 0
 442 -35 502 14 502 104 c 0
 502 168 459 205 318 241 c 0
 142 286 79 347 79 450 c 0
 79 584 177 670 330 670 c 0
 474 670 558 605 572 482 c 1
 493 451 l 1
 489 554 442 595 331 595 c 0
 224 595 163 545 163 459 c 0
 163 389 209 350 353 312 c 0
 526 266 585 213 585 108 c 0
 585 -23 482 -110 326 -110 c 0
366 -176 m 1
 301 -337 l 1
 238 -337 l 1
 282 -176 l 1
 366 -176 l 1
EndSplineSet
EndChar

StartChar: T.swsh
Encoding: 65599 -1 168
Width: 709
GlyphClass: 2
Flags: MW
AnchorPoint: "Anchor-0" 423 0 basechar 0
LayerCount: 2
Fore
SplineSet
677 660 m 1
 677 585 l 1
 447 585 l 1
 447 0 l 1
 367 0 l 1
 367 585 l 1
 236 585 l 2
 148 585 90 557 90 480 c 0
 90 419 136 377 200 366 c 1
 169 302 l 1
 84 315 10 382 10 481 c 0
 10 593 92 660 219 660 c 2
 677 660 l 1
EndSplineSet
EndChar

StartChar: Tcaron.swsh
Encoding: 65600 -1 169
Width: 709
GlyphClass: 2
Flags: MW
AnchorPoint: "Anchor-0" 423 0 basechar 0
LayerCount: 2
Fore
SplineSet
452 738 m 1
 362 738 l 1
 248 905 l 1
 321 905 l 1
 407 790 l 1
 493 905 l 1
 566 905 l 1
 452 738 l 1
677 660 m 1
 677 585 l 1
 447 585 l 1
 447 0 l 1
 367 0 l 1
 367 585 l 1
 236 585 l 2
 148 585 90 557 90 480 c 0
 90 419 136 377 200 366 c 1
 169 302 l 1
 84 315 10 382 10 481 c 0
 10 593 92 660 219 660 c 2
 677 660 l 1
EndSplineSet
EndChar

StartChar: uni0162.swsh
Encoding: 65601 -1 170
Width: 709
GlyphClass: 2
Flags: MW
AnchorPoint: "Anchor-0" 423 0 basechar 0
LayerCount: 2
Fore
SplineSet
677 585 m 1
 447 585 l 1
 447 9 l 1
 499 -27 518 -67 518 -109 c 0
 518 -164 473 -215 401 -215 c 0
 354 -215 319 -205 291 -180 c 1
 321 -125 l 1
 337 -142 362 -155 390 -155 c 0
 422 -155 447 -132 447 -97 c 0
 447 -59 425 -39 367 0 c 1
 367 585 l 1
 236 585 l 2
 148 585 90 557 90 480 c 0
 90 419 136 377 200 366 c 1
 169 302 l 1
 84 315 10 382 10 481 c 0
 10 593 92 660 219 660 c 2
 677 660 l 1
 677 585 l 1
EndSplineSet
EndChar

StartChar: uni021A.swsh
Encoding: 65602 -1 171
Width: 709
GlyphClass: 2
Flags: MW
AnchorPoint: "Anchor-0" 423 0 basechar 0
LayerCount: 2
Fore
SplineSet
677 660 m 1
 677 585 l 1
 447 585 l 1
 447 0 l 1
 367 0 l 1
 367 585 l 1
 236 585 l 2
 148 585 90 557 90 480 c 0
 90 419 136 377 200 366 c 1
 169 302 l 1
 84 315 10 382 10 481 c 0
 10 593 92 660 219 660 c 2
 677 660 l 1
325 -237 m 1
 369 -76 l 1
 453 -76 l 1
 388 -237 l 1
 325 -237 l 1
EndSplineSet
EndChar

StartChar: W.swsh
Encoding: 65603 -1 172
Width: 1216
GlyphClass: 2
Flags: MW
LayerCount: 2
Fore
SplineSet
1099 660 m 1
 1180 660 l 1
 986 0 l 1
 887 0 l 1
 770 428 l 1
 736 577 l 1
 735 577 l 1
 701 428 l 1
 585 0 l 1
 486 0 l 1
 310 595 l 1
 236 595 l 2
 148 595 90 558 90 480 c 0
 90 419 136 377 200 366 c 1
 169 302 l 1
 84 315 10 382 10 481 c 0
 10 593 92 660 219 660 c 2
 377 660 l 1
 536 63 l 1
 692 660 l 1
 783 660 l 1
 939 61 l 1
 1099 660 l 1
EndSplineSet
EndChar

StartChar: Adieresis.titl
Encoding: 65604 -1 173
Width: 660
GlyphClass: 2
Flags: MW
LayerCount: 2
Fore
SplineSet
173 553 m 0
 141 553 119 575 119 608 c 0
 119 640 141 662 173 662 c 0
 206 662 228 640 228 608 c 0
 228 575 206 553 173 553 c 0
488 553 m 0
 455 553 433 575 433 608 c 0
 433 640 455 662 488 662 c 0
 520 662 542 640 542 608 c 0
 542 575 520 553 488 553 c 0
549 0 m 1
 479 183 l 1
 180 183 l 1
 110 0 l 1
 26 0 l 1
 283 660 l 1
 378 660 l 1
 634 0 l 1
 549 0 l 1
209 258 m 1
 450 258 l 1
 361 492 l 1
 330 584 l 1
 328 584 l 1
 299 495 l 1
 209 258 l 1
EndSplineSet
EndChar

StartChar: Odieresis.titl
Encoding: 65605 -1 174
Width: 748
GlyphClass: 2
Flags: MW
LayerCount: 2
Fore
SplineSet
374 670 m 0
 562 670 680 539 680 330 c 0
 680 121 562 -10 374 -10 c 0
 186 -10 68 121 68 330 c 0
 68 539 186 670 374 670 c 0
374 595 m 0
 237 595 152 496 152 330 c 0
 152 164 237 65 374 65 c 0
 511 65 596 164 596 330 c 0
 596 496 511 595 374 595 c 0
307 560 m 0
 340 560 362 538 362 506 c 0
 362 473 340 451 307 451 c 0
 275 451 253 473 253 506 c 0
 253 538 275 560 307 560 c 0
441 560 m 0
 473 560 495 538 495 506 c 0
 495 473 473 451 441 451 c 0
 408 451 386 473 386 506 c 0
 386 538 408 560 441 560 c 0
EndSplineSet
EndChar

StartChar: Udieresis.titl
Encoding: 65606 -1 175
Width: 720
GlyphClass: 2
Flags: MW
LayerCount: 2
Fore
SplineSet
288 553 m 0
 256 553 234 575 234 608 c 0
 234 640 256 662 288 662 c 0
 321 662 343 640 343 608 c 0
 343 575 321 553 288 553 c 0
432 553 m 0
 399 553 377 575 377 608 c 0
 377 640 399 662 432 662 c 0
 464 662 486 640 486 608 c 0
 486 575 464 553 432 553 c 0
619 660 m 1
 619 246 l 2
 619 76 527 -10 360 -10 c 0
 194 -10 101 76 101 246 c 2
 101 660 l 1
 181 660 l 1
 181 266 l 2
 181 128 237 65 360 65 c 0
 483 65 539 128 539 266 c 2
 539 660 l 1
 619 660 l 1
EndSplineSet
EndChar

StartChar: a
Encoding: 97 97 176
Width: 566
GlyphClass: 2
Flags: MW
LayerCount: 2
Fore
SplineSet
503 58 m 0
 516 58 531 60 543 63 c 1
 538 0 l 1
 524 -5 503 -10 478 -10 c 0
 429 -10 397 8 388 64 c 1
 356 17 291 -10 227 -10 c 0
 133 -10 57 34 57 124 c 0
 57 199 123 258 252 280 c 2
 385 302 l 1
 385 330 l 2
 385 396 343 440 268 440 c 0
 202 440 152 408 125 345 c 1
 66 388 l 1
 92 462 171 510 268 510 c 0
 382 510 465 456 465 340 c 2
 465 94 l 2
 465 70 475 58 503 58 c 0
231 60 m 0
 311 60 385 102 385 168 c 2
 385 237 l 1
 273 216 l 2
 185 200 140 171 140 124 c 0
 140 82 174 60 231 60 c 0
EndSplineSet
Substitution2: "Single Substitution lookup 55 subtable" ordfeminine
Substitution2: "'smcp' Lowercase to Small Capitals lookup 12 subtable" a.sc
AlternateSubs2: "'aalt' Access All Alternates lookup 1 subtable" a.sc ordfeminine
EndChar

StartChar: aacute
Encoding: 225 225 177
Width: 566
GlyphClass: 2
Flags: MW
LayerCount: 2
Fore
SplineSet
390 750 m 1
 292 583 l 1
 227 583 l 1
 303 750 l 1
 390 750 l 1
503 58 m 0
 516 58 531 60 543 63 c 1
 538 0 l 1
 524 -5 503 -10 478 -10 c 0
 429 -10 397 8 388 64 c 1
 356 17 291 -10 227 -10 c 0
 133 -10 57 34 57 124 c 0
 57 199 123 258 252 280 c 2
 385 302 l 1
 385 330 l 2
 385 396 343 440 268 440 c 0
 202 440 152 408 125 345 c 1
 66 388 l 1
 92 462 171 510 268 510 c 0
 382 510 465 456 465 340 c 2
 465 94 l 2
 465 70 475 58 503 58 c 0
231 60 m 0
 311 60 385 102 385 168 c 2
 385 237 l 1
 273 216 l 2
 185 200 140 171 140 124 c 0
 140 82 174 60 231 60 c 0
EndSplineSet
Substitution2: "'smcp' Lowercase to Small Capitals lookup 12 subtable" aacute.sc
Substitution2: "'aalt' Access All Alternates lookup 0 subtable" aacute.sc
EndChar

StartChar: abreve
Encoding: 259 259 178
Width: 566
GlyphClass: 2
Flags: MW
LayerCount: 2
Fore
SplineSet
276 577 m 0
 188 577 128 637 128 725 c 1
 194 725 l 1
 194 678 229 637 276 637 c 0
 323 637 358 678 358 725 c 1
 424 725 l 1
 424 637 364 577 276 577 c 0
503 58 m 0
 516 58 531 60 543 63 c 1
 538 0 l 1
 524 -5 503 -10 478 -10 c 0
 429 -10 397 8 388 64 c 1
 356 17 291 -10 227 -10 c 0
 133 -10 57 34 57 124 c 0
 57 199 123 258 252 280 c 2
 385 302 l 1
 385 330 l 2
 385 396 343 440 268 440 c 0
 202 440 152 408 125 345 c 1
 66 388 l 1
 92 462 171 510 268 510 c 0
 382 510 465 456 465 340 c 2
 465 94 l 2
 465 70 475 58 503 58 c 0
231 60 m 0
 311 60 385 102 385 168 c 2
 385 237 l 1
 273 216 l 2
 185 200 140 171 140 124 c 0
 140 82 174 60 231 60 c 0
EndSplineSet
Substitution2: "'smcp' Lowercase to Small Capitals lookup 12 subtable" abreve.sc
Substitution2: "'aalt' Access All Alternates lookup 0 subtable" abreve.sc
EndChar

StartChar: acircumflex
Encoding: 226 226 179
Width: 566
GlyphClass: 2
Flags: MW
LayerCount: 2
Fore
SplineSet
276 687 m 1
 191 576 l 1
 118 576 l 1
 230 743 l 1
 322 743 l 1
 434 576 l 1
 361 576 l 1
 276 687 l 1
503 58 m 0
 516 58 531 60 543 63 c 1
 538 0 l 1
 524 -5 503 -10 478 -10 c 0
 429 -10 397 8 388 64 c 1
 356 17 291 -10 227 -10 c 0
 133 -10 57 34 57 124 c 0
 57 199 123 258 252 280 c 2
 385 302 l 1
 385 330 l 2
 385 396 343 440 268 440 c 0
 202 440 152 408 125 345 c 1
 66 388 l 1
 92 462 171 510 268 510 c 0
 382 510 465 456 465 340 c 2
 465 94 l 2
 465 70 475 58 503 58 c 0
231 60 m 0
 311 60 385 102 385 168 c 2
 385 237 l 1
 273 216 l 2
 185 200 140 171 140 124 c 0
 140 82 174 60 231 60 c 0
EndSplineSet
Substitution2: "'smcp' Lowercase to Small Capitals lookup 12 subtable" acircumflex.sc
Substitution2: "'aalt' Access All Alternates lookup 0 subtable" acircumflex.sc
EndChar

StartChar: adieresis
Encoding: 228 228 180
Width: 566
GlyphClass: 2
Flags: MW
LayerCount: 2
Fore
SplineSet
179 582 m 0
 145 582 122 605 122 639 c 0
 122 673 145 696 179 696 c 0
 213 696 236 673 236 639 c 0
 236 605 213 582 179 582 c 0
373 582 m 0
 339 582 316 605 316 639 c 0
 316 673 339 696 373 696 c 0
 407 696 430 673 430 639 c 0
 430 605 407 582 373 582 c 0
503 58 m 0
 516 58 531 60 543 63 c 1
 538 0 l 1
 524 -5 503 -10 478 -10 c 0
 429 -10 397 8 388 64 c 1
 356 17 291 -10 227 -10 c 0
 133 -10 57 34 57 124 c 0
 57 199 123 258 252 280 c 2
 385 302 l 1
 385 330 l 2
 385 396 343 440 268 440 c 0
 202 440 152 408 125 345 c 1
 66 388 l 1
 92 462 171 510 268 510 c 0
 382 510 465 456 465 340 c 2
 465 94 l 2
 465 70 475 58 503 58 c 0
231 60 m 0
 311 60 385 102 385 168 c 2
 385 237 l 1
 273 216 l 2
 185 200 140 171 140 124 c 0
 140 82 174 60 231 60 c 0
EndSplineSet
Substitution2: "'smcp' Lowercase to Small Capitals lookup 12 subtable" adieresis.sc
Substitution2: "'aalt' Access All Alternates lookup 0 subtable" adieresis.sc
EndChar

StartChar: agrave
Encoding: 224 224 181
Width: 566
GlyphClass: 2
Flags: MW
LayerCount: 2
Fore
SplineSet
318 583 m 1
 253 583 l 1
 155 750 l 1
 242 750 l 1
 318 583 l 1
503 58 m 0
 516 58 531 60 543 63 c 1
 538 0 l 1
 524 -5 503 -10 478 -10 c 0
 429 -10 397 8 388 64 c 1
 356 17 291 -10 227 -10 c 0
 133 -10 57 34 57 124 c 0
 57 199 123 258 252 280 c 2
 385 302 l 1
 385 330 l 2
 385 396 343 440 268 440 c 0
 202 440 152 408 125 345 c 1
 66 388 l 1
 92 462 171 510 268 510 c 0
 382 510 465 456 465 340 c 2
 465 94 l 2
 465 70 475 58 503 58 c 0
231 60 m 0
 311 60 385 102 385 168 c 2
 385 237 l 1
 273 216 l 2
 185 200 140 171 140 124 c 0
 140 82 174 60 231 60 c 0
EndSplineSet
Substitution2: "'smcp' Lowercase to Small Capitals lookup 12 subtable" agrave.sc
Substitution2: "'aalt' Access All Alternates lookup 0 subtable" agrave.sc
EndChar

StartChar: amacron
Encoding: 257 257 182
Width: 566
GlyphClass: 2
Flags: MW
LayerCount: 2
Fore
SplineSet
450 663 m 1
 450 596 l 1
 102 596 l 1
 102 663 l 1
 450 663 l 1
503 58 m 0
 516 58 531 60 543 63 c 1
 538 0 l 1
 524 -5 503 -10 478 -10 c 0
 429 -10 397 8 388 64 c 1
 356 17 291 -10 227 -10 c 0
 133 -10 57 34 57 124 c 0
 57 199 123 258 252 280 c 2
 385 302 l 1
 385 330 l 2
 385 396 343 440 268 440 c 0
 202 440 152 408 125 345 c 1
 66 388 l 1
 92 462 171 510 268 510 c 0
 382 510 465 456 465 340 c 2
 465 94 l 2
 465 70 475 58 503 58 c 0
231 60 m 0
 311 60 385 102 385 168 c 2
 385 237 l 1
 273 216 l 2
 185 200 140 171 140 124 c 0
 140 82 174 60 231 60 c 0
EndSplineSet
Substitution2: "'smcp' Lowercase to Small Capitals lookup 12 subtable" amacron.sc
Substitution2: "'aalt' Access All Alternates lookup 0 subtable" amacron.sc
EndChar

StartChar: aogonek
Encoding: 261 261 183
Width: 566
GlyphClass: 2
Flags: MW
LayerCount: 2
Fore
SplineSet
472 -158 m 0
 489 -158 511 -156 527 -146 c 1
 543 -197 l 1
 524 -209 495 -215 466 -215 c 0
 394 -215 349 -177 349 -119 c 0
 349 -64 382 -26 439 3 c 1
 418 15 399 35 390 68 c 1
 360 19 292 -10 227 -10 c 0
 133 -10 57 34 57 124 c 0
 57 199 123 258 252 280 c 2
 385 302 l 1
 385 330 l 2
 385 396 343 440 268 440 c 0
 202 440 152 408 125 345 c 1
 66 388 l 1
 92 462 171 510 268 510 c 0
 382 510 465 456 465 340 c 2
 465 94 l 2
 465 70 475 58 503 58 c 0
 516 58 531 60 543 63 c 1
 538 0 l 2
 535 -1 531 -2 527 -4 c 0
 438 -33 414 -67 414 -105 c 0
 414 -138 434 -158 472 -158 c 0
231 60 m 0
 311 60 385 102 385 168 c 2
 385 237 l 1
 273 216 l 2
 185 198 140 171 140 124 c 0
 140 82 174 60 231 60 c 0
EndSplineSet
Substitution2: "'smcp' Lowercase to Small Capitals lookup 12 subtable" aogonek.sc
Substitution2: "'aalt' Access All Alternates lookup 0 subtable" aogonek.sc
EndChar

StartChar: aring
Encoding: 229 229 184
Width: 566
GlyphClass: 2
Flags: MW
LayerCount: 2
Fore
SplineSet
273 575 m 0
 198 575 147 623 147 694 c 0
 147 764 198 812 273 812 c 0
 348 812 398 764 398 694 c 0
 398 623 348 575 273 575 c 0
273 763 m 0
 232 763 202 734 202 694 c 0
 202 654 232 625 273 625 c 0
 314 625 344 654 344 694 c 0
 344 734 314 763 273 763 c 0
503 58 m 0
 516 58 531 60 543 63 c 1
 538 0 l 1
 524 -5 503 -10 478 -10 c 0
 429 -10 397 8 388 64 c 1
 356 17 291 -10 227 -10 c 0
 133 -10 57 34 57 124 c 0
 57 199 123 258 252 280 c 2
 385 302 l 1
 385 330 l 2
 385 396 343 440 268 440 c 0
 202 440 152 408 125 345 c 1
 66 388 l 1
 92 462 171 510 268 510 c 0
 382 510 465 456 465 340 c 2
 465 94 l 2
 465 70 475 58 503 58 c 0
231 60 m 0
 311 60 385 102 385 168 c 2
 385 237 l 1
 273 216 l 2
 185 200 140 171 140 124 c 0
 140 82 174 60 231 60 c 0
EndSplineSet
Substitution2: "'smcp' Lowercase to Small Capitals lookup 12 subtable" aring.sc
Substitution2: "'aalt' Access All Alternates lookup 0 subtable" aring.sc
EndChar

StartChar: atilde
Encoding: 227 227 185
Width: 566
GlyphClass: 2
Flags: MW
LayerCount: 2
Fore
SplineSet
206 651 m 0
 176 651 164 625 157 582 c 1
 94 582 l 1
 101 670 136 716 207 716 c 0
 280 716 303 648 343 648 c 0
 373 648 386 674 393 717 c 1
 456 717 l 1
 449 629 413 583 344 583 c 0
 269 583 249 651 206 651 c 0
503 58 m 0
 516 58 531 60 543 63 c 1
 538 0 l 1
 524 -5 503 -10 478 -10 c 0
 429 -10 397 8 388 64 c 1
 356 17 291 -10 227 -10 c 0
 133 -10 57 34 57 124 c 0
 57 199 123 258 252 280 c 2
 385 302 l 1
 385 330 l 2
 385 396 343 440 268 440 c 0
 202 440 152 408 125 345 c 1
 66 388 l 1
 92 462 171 510 268 510 c 0
 382 510 465 456 465 340 c 2
 465 94 l 2
 465 70 475 58 503 58 c 0
231 60 m 0
 311 60 385 102 385 168 c 2
 385 237 l 1
 273 216 l 2
 185 200 140 171 140 124 c 0
 140 82 174 60 231 60 c 0
EndSplineSet
Substitution2: "'smcp' Lowercase to Small Capitals lookup 12 subtable" atilde.sc
Substitution2: "'aalt' Access All Alternates lookup 0 subtable" atilde.sc
EndChar

StartChar: ae
Encoding: 230 230 186
Width: 884
GlyphClass: 2
Flags: MW
LayerCount: 2
Fore
SplineSet
825 276 m 0
 825 253 823 234 821 220 c 1
 464 220 l 1
 475 119 536 60 617 60 c 0
 690 60 730 86 748 134 c 1
 815 99 l 1
 777 31 725 -10 617 -10 c 0
 527 -10 457 28 424 113 c 1
 396 31 315 -10 220 -10 c 0
 122 -10 57 42 57 124 c 0
 57 199 120 257 243 273 c 2
 392 292 l 1
 392 330 l 2
 392 396 348 440 269 440 c 0
 203 440 152 408 125 345 c 1
 66 388 l 1
 95 465 175 510 271 510 c 0
 349 510 408 475 438 408 c 1
 474 471 534 510 611 510 c 0
 756 510 825 405 825 276 c 0
611 440 m 0
 533 440 478 385 466 291 c 1
 748 291 l 1
 739 383 696 440 611 440 c 0
234 60 m 0
 316 60 392 112 392 198 c 2
 392 229 l 1
 264 209 l 2
 176 195 140 171 140 124 c 0
 140 81 173 60 234 60 c 0
EndSplineSet
Substitution2: "'smcp' Lowercase to Small Capitals lookup 12 subtable" ae.sc
Substitution2: "'aalt' Access All Alternates lookup 0 subtable" ae.sc
EndChar

StartChar: b
Encoding: 98 98 187
Width: 630
GlyphClass: 2
Flags: MW
LayerCount: 2
Fore
SplineSet
339 510 m 0
 478 510 567 413 567 250 c 0
 567 87 478 -10 339 -10 c 0
 260 -10 197 30 168 87 c 1
 163 0 l 1
 93 0 l 1
 93 730 l 1
 173 730 l 1
 173 422 l 1
 204 474 264 510 339 510 c 0
330 60 m 0
 428 60 487 134 487 250 c 0
 487 366 428 440 330 440 c 0
 235 440 173 369 173 256 c 2
 173 244 l 2
 173 131 235 60 330 60 c 0
EndSplineSet
Substitution2: "'smcp' Lowercase to Small Capitals lookup 12 subtable" b.sc
Substitution2: "'aalt' Access All Alternates lookup 0 subtable" b.sc
EndChar

StartChar: c
Encoding: 99 99 188
Width: 564
GlyphClass: 2
Flags: MW
LayerCount: 2
Fore
SplineSet
304 510 m 0
 407 510 474 459 511 377 c 1
 435 341 l 1
 414 405 371 440 302 440 c 0
 202 440 142 369 142 250 c 0
 142 131 202 60 302 60 c 0
 380 60 427 97 442 163 c 1
 516 137 l 1
 482 45 410 -10 304 -10 c 0
 153 -10 62 88 62 250 c 0
 62 412 153 510 304 510 c 0
EndSplineSet
Substitution2: "'smcp' Lowercase to Small Capitals lookup 12 subtable" c.sc
Substitution2: "'aalt' Access All Alternates lookup 0 subtable" c.sc
EndChar

StartChar: cacute
Encoding: 263 263 189
Width: 564
GlyphClass: 2
Flags: MW
LayerCount: 2
Fore
SplineSet
323 750 m 1
 410 750 l 1
 312 583 l 1
 247 583 l 1
 323 750 l 1
304 510 m 0
 407 510 474 459 511 377 c 1
 435 341 l 1
 414 405 371 440 302 440 c 0
 202 440 142 369 142 250 c 0
 142 131 202 60 302 60 c 0
 380 60 427 97 442 163 c 1
 516 137 l 1
 482 45 410 -10 304 -10 c 0
 153 -10 62 88 62 250 c 0
 62 412 153 510 304 510 c 0
EndSplineSet
Substitution2: "'smcp' Lowercase to Small Capitals lookup 12 subtable" cacute.sc
Substitution2: "'aalt' Access All Alternates lookup 0 subtable" cacute.sc
EndChar

StartChar: ccaron
Encoding: 269 269 190
Width: 564
GlyphClass: 2
Flags: MW
LayerCount: 2
Fore
SplineSet
454 750 m 1
 342 583 l 1
 250 583 l 1
 138 750 l 1
 211 750 l 1
 296 639 l 1
 381 750 l 1
 454 750 l 1
304 510 m 0
 407 510 474 459 511 377 c 1
 435 341 l 1
 414 405 371 440 302 440 c 0
 202 440 142 369 142 250 c 0
 142 131 202 60 302 60 c 0
 380 60 427 97 442 163 c 1
 516 137 l 1
 482 45 410 -10 304 -10 c 0
 153 -10 62 88 62 250 c 0
 62 412 153 510 304 510 c 0
EndSplineSet
Substitution2: "'smcp' Lowercase to Small Capitals lookup 12 subtable" ccaron.sc
Substitution2: "'aalt' Access All Alternates lookup 0 subtable" ccaron.sc
EndChar

StartChar: ccedilla
Encoding: 231 231 191
Width: 564
GlyphClass: 2
Flags: MW
LayerCount: 2
Fore
SplineSet
516 137 m 1
 487 59 431 8 351 -6 c 1
 388 -35 406 -72 406 -108 c 0
 406 -164 364 -215 290 -215 c 0
 243 -215 208 -205 180 -180 c 1
 210 -125 l 1
 226 -142 251 -155 279 -155 c 0
 311 -155 336 -132 336 -97 c 0
 336 -59 319 -37 258 -7 c 1
 135 12 62 105 62 250 c 0
 62 412 153 510 304 510 c 0
 407 510 474 459 511 377 c 1
 435 341 l 1
 414 405 371 440 302 440 c 0
 202 440 142 369 142 250 c 0
 142 131 202 60 302 60 c 0
 380 60 427 97 442 163 c 1
 516 137 l 1
EndSplineSet
Substitution2: "'smcp' Lowercase to Small Capitals lookup 12 subtable" ccedilla.sc
Substitution2: "'aalt' Access All Alternates lookup 0 subtable" ccedilla.sc
EndChar

StartChar: d
Encoding: 100 100 192
Width: 630
GlyphClass: 2
Flags: MW
LayerCount: 2
Fore
SplineSet
457 730 m 1
 537 730 l 1
 537 0 l 1
 467 0 l 1
 462 87 l 1
 433 30 370 -10 291 -10 c 0
 152 -10 63 87 63 250 c 0
 63 413 152 510 291 510 c 0
 366 510 426 474 457 422 c 1
 457 730 l 1
300 60 m 0
 395 60 457 131 457 244 c 2
 457 256 l 2
 457 369 395 440 300 440 c 0
 202 440 143 366 143 250 c 0
 143 134 202 60 300 60 c 0
EndSplineSet
Substitution2: "'smcp' Lowercase to Small Capitals lookup 12 subtable" d.sc
Substitution2: "'aalt' Access All Alternates lookup 0 subtable" d.sc
EndChar

StartChar: eth
Encoding: 240 240 193
Width: 620
GlyphClass: 2
Flags: MW
LayerCount: 2
Fore
SplineSet
453 609 m 1
 516 525 546 418 546 288 c 0
 546 114 467 -10 298 -10 c 0
 153 -10 62 83 62 238 c 0
 62 392 163 485 296 485 c 0
 374 485 429 460 465 415 c 1
 449 485 425 542 384 593 c 1
 198 545 l 1
 188 594 l 1
 350 630 l 1
 313 665 266 698 205 730 c 1
 316 730 l 1
 356 706 391 679 421 647 c 1
 531 678 l 1
 545 628 l 1
 453 609 l 1
302 60 m 0
 407 60 468 144 468 238 c 0
 468 348 407 415 307 415 c 0
 206 415 145 348 145 238 c 0
 145 126 206 60 302 60 c 0
EndSplineSet
Substitution2: "'smcp' Lowercase to Small Capitals lookup 12 subtable" eth.sc
Substitution2: "'aalt' Access All Alternates lookup 0 subtable" eth.sc
EndChar

StartChar: dcaron
Encoding: 271 271 194
Width: 641
GlyphClass: 2
Flags: MW
LayerCount: 2
Fore
SplineSet
457 422 m 1
 457 730 l 1
 537 730 l 1
 537 0 l 1
 467 0 l 1
 462 87 l 1
 433 30 370 -10 291 -10 c 0
 152 -10 63 87 63 250 c 0
 63 413 152 510 291 510 c 0
 366 510 426 474 457 422 c 1
613 730 m 1
 689 730 l 1
 648 533 l 1
 593 533 l 1
 613 730 l 1
300 60 m 0
 395 60 457 131 457 244 c 2
 457 256 l 2
 457 369 395 440 300 440 c 0
 202 440 143 366 143 250 c 0
 143 134 202 60 300 60 c 0
EndSplineSet
Substitution2: "'smcp' Lowercase to Small Capitals lookup 12 subtable" dcaron.sc
Substitution2: "'aalt' Access All Alternates lookup 0 subtable" dcaron.sc
EndChar

StartChar: dcroat
Encoding: 273 273 195
Width: 629
GlyphClass: 2
Flags: MW
LayerCount: 2
Fore
SplineSet
614 627 m 1
 614 566 l 1
 537 566 l 1
 537 0 l 1
 467 0 l 1
 462 87 l 1
 433 30 370 -10 291 -10 c 0
 152 -10 63 87 63 250 c 0
 63 413 152 510 291 510 c 0
 366 510 426 474 457 422 c 1
 457 566 l 1
 300 566 l 1
 300 627 l 1
 457 627 l 1
 457 730 l 1
 537 730 l 1
 537 627 l 1
 614 627 l 1
300 60 m 0
 395 60 457 131 457 244 c 2
 457 256 l 2
 457 369 395 440 300 440 c 0
 202 440 143 366 143 250 c 0
 143 134 202 60 300 60 c 0
EndSplineSet
Substitution2: "'smcp' Lowercase to Small Capitals lookup 12 subtable" dcroat.sc
Substitution2: "'aalt' Access All Alternates lookup 0 subtable" dcroat.sc
EndChar

StartChar: e
Encoding: 101 101 196
Width: 581
GlyphClass: 2
Flags: MW
AnchorPoint: "Anchor-0" 304 0 basechar 0
LayerCount: 2
Fore
SplineSet
522 276 m 0
 522 253 520 234 518 220 c 1
 141 220 l 1
 151 119 212 60 304 60 c 0
 377 60 427 86 445 134 c 1
 512 99 l 1
 474 31 412 -10 304 -10 c 0
 153 -10 62 88 62 250 c 0
 62 412 147 510 298 510 c 0
 443 510 522 405 522 276 c 0
298 440 m 0
 209 440 154 385 142 291 c 1
 445 291 l 1
 434 383 383 440 298 440 c 0
EndSplineSet
Substitution2: "'smcp' Lowercase to Small Capitals lookup 12 subtable" e.sc
Substitution2: "'aalt' Access All Alternates lookup 0 subtable" e.sc
EndChar

StartChar: eacute
Encoding: 233 233 197
Width: 581
GlyphClass: 2
Flags: MW
AnchorPoint: "Anchor-0" 304 0 basechar 0
LayerCount: 2
Fore
SplineSet
409 750 m 1
 311 583 l 1
 246 583 l 1
 322 750 l 1
 409 750 l 1
522 276 m 0
 522 253 520 234 518 220 c 1
 141 220 l 1
 151 119 212 60 304 60 c 0
 377 60 427 86 445 134 c 1
 512 99 l 1
 474 31 412 -10 304 -10 c 0
 153 -10 62 88 62 250 c 0
 62 412 147 510 298 510 c 0
 443 510 522 405 522 276 c 0
298 440 m 0
 209 440 154 385 142 291 c 1
 445 291 l 1
 434 383 383 440 298 440 c 0
EndSplineSet
Substitution2: "'smcp' Lowercase to Small Capitals lookup 12 subtable" eacute.sc
Substitution2: "'aalt' Access All Alternates lookup 0 subtable" eacute.sc
EndChar

StartChar: ecaron
Encoding: 283 283 198
Width: 581
GlyphClass: 2
Flags: MW
AnchorPoint: "Anchor-0" 304 0 basechar 0
LayerCount: 2
Fore
SplineSet
341 583 m 1
 249 583 l 1
 137 750 l 1
 210 750 l 1
 295 639 l 1
 380 750 l 1
 453 750 l 1
 341 583 l 1
522 276 m 0
 522 253 520 234 518 220 c 1
 141 220 l 1
 151 119 212 60 304 60 c 0
 377 60 427 86 445 134 c 1
 512 99 l 1
 474 31 412 -10 304 -10 c 0
 153 -10 62 88 62 250 c 0
 62 412 147 510 298 510 c 0
 443 510 522 405 522 276 c 0
298 440 m 0
 209 440 154 385 142 291 c 1
 445 291 l 1
 434 383 383 440 298 440 c 0
EndSplineSet
Substitution2: "'smcp' Lowercase to Small Capitals lookup 12 subtable" ecaron.sc
Substitution2: "'aalt' Access All Alternates lookup 0 subtable" ecaron.sc
EndChar

StartChar: ecircumflex
Encoding: 234 234 199
Width: 581
GlyphClass: 2
Flags: MW
AnchorPoint: "Anchor-0" 304 0 basechar 0
LayerCount: 2
Fore
SplineSet
295 687 m 1
 210 576 l 1
 137 576 l 1
 249 743 l 1
 341 743 l 1
 453 576 l 1
 380 576 l 1
 295 687 l 1
522 276 m 0
 522 253 520 234 518 220 c 1
 141 220 l 1
 151 119 212 60 304 60 c 0
 377 60 427 86 445 134 c 1
 512 99 l 1
 474 31 412 -10 304 -10 c 0
 153 -10 62 88 62 250 c 0
 62 412 147 510 298 510 c 0
 443 510 522 405 522 276 c 0
298 440 m 0
 209 440 154 385 142 291 c 1
 445 291 l 1
 434 383 383 440 298 440 c 0
EndSplineSet
Substitution2: "'smcp' Lowercase to Small Capitals lookup 12 subtable" ecircumflex.sc
Substitution2: "'aalt' Access All Alternates lookup 0 subtable" ecircumflex.sc
EndChar

StartChar: edieresis
Encoding: 235 235 200
Width: 581
GlyphClass: 2
Flags: MW
AnchorPoint: "Anchor-0" 304 0 basechar 0
LayerCount: 2
Fore
SplineSet
198 582 m 0
 164 582 141 605 141 639 c 0
 141 673 164 696 198 696 c 0
 232 696 255 673 255 639 c 0
 255 605 232 582 198 582 c 0
392 582 m 0
 358 582 335 605 335 639 c 0
 335 673 358 696 392 696 c 0
 426 696 449 673 449 639 c 0
 449 605 426 582 392 582 c 0
522 276 m 0
 522 253 520 234 518 220 c 1
 141 220 l 1
 151 119 212 60 304 60 c 0
 377 60 427 86 445 134 c 1
 512 99 l 1
 474 31 412 -10 304 -10 c 0
 153 -10 62 88 62 250 c 0
 62 412 147 510 298 510 c 0
 443 510 522 405 522 276 c 0
298 440 m 0
 209 440 154 385 142 291 c 1
 445 291 l 1
 434 383 383 440 298 440 c 0
EndSplineSet
Substitution2: "'smcp' Lowercase to Small Capitals lookup 12 subtable" edieresis.sc
Substitution2: "'aalt' Access All Alternates lookup 0 subtable" edieresis.sc
EndChar

StartChar: edotaccent
Encoding: 279 279 201
Width: 581
GlyphClass: 2
Flags: MW
AnchorPoint: "Anchor-0" 304 0 basechar 0
LayerCount: 2
Fore
SplineSet
295 596 m 0
 259 596 235 620 235 656 c 0
 235 692 259 716 295 716 c 0
 331 716 355 692 355 656 c 0
 355 620 331 596 295 596 c 0
522 276 m 0
 522 253 520 234 518 220 c 1
 141 220 l 1
 151 119 212 60 304 60 c 0
 377 60 427 86 445 134 c 1
 512 99 l 1
 474 31 412 -10 304 -10 c 0
 153 -10 62 88 62 250 c 0
 62 412 147 510 298 510 c 0
 443 510 522 405 522 276 c 0
298 440 m 0
 209 440 154 385 142 291 c 1
 445 291 l 1
 434 383 383 440 298 440 c 0
EndSplineSet
Substitution2: "'smcp' Lowercase to Small Capitals lookup 12 subtable" edotaccent.sc
Substitution2: "'aalt' Access All Alternates lookup 0 subtable" edotaccent.sc
EndChar

StartChar: egrave
Encoding: 232 232 202
Width: 581
GlyphClass: 2
Flags: MW
AnchorPoint: "Anchor-0" 304 0 basechar 0
LayerCount: 2
Fore
SplineSet
337 583 m 1
 272 583 l 1
 174 750 l 1
 261 750 l 1
 337 583 l 1
522 276 m 0
 522 253 520 234 518 220 c 1
 141 220 l 1
 151 119 212 60 304 60 c 0
 377 60 427 86 445 134 c 1
 512 99 l 1
 474 31 412 -10 304 -10 c 0
 153 -10 62 88 62 250 c 0
 62 412 147 510 298 510 c 0
 443 510 522 405 522 276 c 0
298 440 m 0
 209 440 154 385 142 291 c 1
 445 291 l 1
 434 383 383 440 298 440 c 0
EndSplineSet
Substitution2: "'smcp' Lowercase to Small Capitals lookup 12 subtable" egrave.sc
Substitution2: "'aalt' Access All Alternates lookup 0 subtable" egrave.sc
EndChar

StartChar: emacron
Encoding: 275 275 203
Width: 581
GlyphClass: 2
Flags: MW
AnchorPoint: "Anchor-0" 304 0 basechar 0
LayerCount: 2
Fore
SplineSet
469 663 m 1
 469 596 l 1
 121 596 l 1
 121 663 l 1
 469 663 l 1
522 276 m 0
 522 253 520 234 518 220 c 1
 141 220 l 1
 151 119 212 60 304 60 c 0
 377 60 427 86 445 134 c 1
 512 99 l 1
 474 31 412 -10 304 -10 c 0
 153 -10 62 88 62 250 c 0
 62 412 147 510 298 510 c 0
 443 510 522 405 522 276 c 0
298 440 m 0
 209 440 154 385 142 291 c 1
 445 291 l 1
 434 383 383 440 298 440 c 0
EndSplineSet
Substitution2: "'smcp' Lowercase to Small Capitals lookup 12 subtable" emacron.sc
Substitution2: "'aalt' Access All Alternates lookup 0 subtable" emacron.sc
EndChar

StartChar: eogonek
Encoding: 281 281 204
Width: 581
GlyphClass: 2
Flags: MW
AnchorPoint: "Anchor-0" 304 0 basechar 0
LayerCount: 2
Fore
SplineSet
522 276 m 0
 522 253 520 234 518 220 c 1
 141 220 l 1
 151 119 212 60 304 60 c 0
 377 60 427 86 445 134 c 1
 512 99 l 1
 487 53 450 20 397 3 c 1
 336 -35 308 -68 308 -101 c 0
 308 -137 334 -158 371 -158 c 0
 388 -158 410 -156 426 -146 c 1
 442 -197 l 1
 423 -209 390 -215 361 -215 c 0
 289 -215 242 -173 242 -113 c 0
 242 -71 263 -39 298 -10 c 1
 151 -7 62 90 62 250 c 0
 62 412 147 510 298 510 c 0
 443 510 522 405 522 276 c 0
298 440 m 0
 209 440 154 385 142 291 c 1
 445 291 l 1
 434 383 383 440 298 440 c 0
EndSplineSet
Substitution2: "'smcp' Lowercase to Small Capitals lookup 12 subtable" eogonek.sc
Substitution2: "'aalt' Access All Alternates lookup 0 subtable" eogonek.sc
EndChar

StartChar: f
Encoding: 102 102 205
Width: 393
GlyphClass: 2
Flags: MW
LayerCount: 2
Fore
SplineSet
212 576 m 2
 212 500 l 1
 379 500 l 1
 379 431 l 1
 212 431 l 1
 212 0 l 1
 132 0 l 1
 132 431 l 1
 32 431 l 1
 32 500 l 1
 132 500 l 1
 132 584 l 2
 132 673 186 735 296 735 c 0
 331 735 363 727 381 712 c 1
 360 647 l 1
 344 657 326 662 303 662 c 0
 245 662 212 636 212 576 c 2
EndSplineSet
Substitution2: "'smcp' Lowercase to Small Capitals lookup 12 subtable" f.sc
Substitution2: "'aalt' Access All Alternates lookup 0 subtable" f.sc
EndChar

StartChar: g
Encoding: 103 103 206
Width: 630
GlyphClass: 2
Flags: MW
LayerCount: 2
Fore
SplineSet
471 500 m 1
 537 500 l 1
 537 40 l 2
 537 -132 450 -215 283 -215 c 0
 181 -215 96 -177 78 -92 c 1
 154 -59 l 1
 166 -116 210 -145 295 -145 c 0
 389 -145 456 -77 456 21 c 2
 456 78 l 1
 423 31 365 0 290 0 c 0
 151 0 62 95 62 255 c 0
 62 415 151 510 290 510 c 0
 369 510 430 476 461 424 c 1
 471 500 l 1
299 70 m 0
 394 70 456 139 456 249 c 2
 456 261 l 2
 456 371 394 440 299 440 c 0
 201 440 142 368 142 255 c 0
 142 142 201 70 299 70 c 0
EndSplineSet
Substitution2: "'ss01' Style Set 1 lookup 47 subtable" g.ss01
Substitution2: "'salt' Stylistic Alternatives lookup 42 subtable" g.ss01
Substitution2: "'smcp' Lowercase to Small Capitals lookup 12 subtable" g.sc
AlternateSubs2: "'aalt' Access All Alternates lookup 1 subtable" g.sc g.ss01
EndChar

StartChar: h
Encoding: 104 104 208
Width: 619
GlyphClass: 2
Flags: MW
LayerCount: 2
Fore
SplineSet
336 510 m 0
 443 510 531 449 531 320 c 2
 531 0 l 1
 451 0 l 1
 451 292 l 2
 451 403 397 440 328 440 c 0
 255 440 173 393 173 265 c 2
 173 0 l 1
 93 0 l 1
 93 730 l 1
 173 730 l 1
 173 425 l 1
 208 485 268 510 336 510 c 0
EndSplineSet
Substitution2: "'smcp' Lowercase to Small Capitals lookup 12 subtable" h.sc
Substitution2: "'aalt' Access All Alternates lookup 0 subtable" h.sc
EndChar

StartChar: i
Encoding: 105 105 209
Width: 266
GlyphClass: 2
Flags: MW
LayerCount: 2
Fore
SplineSet
133 596 m 0
 97 596 73 620 73 656 c 0
 73 692 97 716 133 716 c 0
 169 716 193 692 193 656 c 0
 193 620 169 596 133 596 c 0
173 500 m 1
 173 0 l 1
 93 0 l 1
 93 500 l 1
 173 500 l 1
EndSplineSet
Substitution2: "'smcp' Lowercase to Small Capitals lookup 12 subtable" i.sc
Substitution2: "'locl' Localized Forms in Latin lookup 6 subtable" i.loclTRK
Substitution2: "'locl' Localized Forms in Latin lookup 5 subtable" i.loclTRK
Substitution2: "'locl' Localized Forms in Latin lookup 4 subtable" i.loclTRK
Substitution2: "'locl' Localized Forms in Latin lookup 3 subtable" i.loclTRK
Substitution2: "'locl' Localized Forms in Latin lookup 2 subtable" i.loclTRK
Substitution2: "'aalt' Access All Alternates lookup 0 subtable" i.sc
EndChar

StartChar: dotlessi
Encoding: 305 305 210
Width: 266
GlyphClass: 2
Flags: MW
LayerCount: 2
Fore
SplineSet
173 500 m 1
 173 0 l 1
 93 0 l 1
 93 500 l 1
 173 500 l 1
EndSplineSet
EndChar

StartChar: iacute
Encoding: 237 237 211
Width: 266
GlyphClass: 2
Flags: MW
LayerCount: 2
Fore
SplineSet
170 750 m 1
 257 750 l 1
 159 583 l 1
 94 583 l 1
 170 750 l 1
173 500 m 1
 173 0 l 1
 93 0 l 1
 93 500 l 1
 173 500 l 1
EndSplineSet
Substitution2: "'smcp' Lowercase to Small Capitals lookup 12 subtable" iacute.sc
Substitution2: "'aalt' Access All Alternates lookup 0 subtable" iacute.sc
EndChar

StartChar: icircumflex
Encoding: 238 238 212
Width: 266
GlyphClass: 2
Flags: MW
LayerCount: 2
Fore
SplineSet
291 576 m 1
 218 576 l 1
 133 687 l 1
 48 576 l 1
 -25 576 l 1
 87 743 l 1
 179 743 l 1
 291 576 l 1
173 500 m 1
 173 0 l 1
 93 0 l 1
 93 500 l 1
 173 500 l 1
EndSplineSet
Substitution2: "'smcp' Lowercase to Small Capitals lookup 12 subtable" icircumflex.sc
Substitution2: "'aalt' Access All Alternates lookup 0 subtable" icircumflex.sc
EndChar

StartChar: idieresis
Encoding: 239 239 213
Width: 266
GlyphClass: 2
Flags: MW
LayerCount: 2
Fore
SplineSet
53 582 m 0
 19 582 -4 605 -4 639 c 0
 -4 673 19 696 53 696 c 0
 88 696 111 673 111 639 c 0
 111 605 88 582 53 582 c 0
213 582 m 0
 178 582 155 605 155 639 c 0
 155 673 178 696 213 696 c 0
 247 696 270 673 270 639 c 0
 270 605 247 582 213 582 c 0
173 500 m 1
 173 0 l 1
 93 0 l 1
 93 500 l 1
 173 500 l 1
EndSplineSet
Substitution2: "'smcp' Lowercase to Small Capitals lookup 12 subtable" idieresis.sc
Substitution2: "'aalt' Access All Alternates lookup 0 subtable" idieresis.sc
EndChar

StartChar: i.loclTRK
Encoding: 65607 -1 214
Width: 266
GlyphClass: 2
Flags: MW
LayerCount: 2
Fore
SplineSet
133 596 m 0
 97 596 73 620 73 656 c 0
 73 692 97 716 133 716 c 0
 169 716 193 692 193 656 c 0
 193 620 169 596 133 596 c 0
173 500 m 1
 173 0 l 1
 93 0 l 1
 93 500 l 1
 173 500 l 1
EndSplineSet
Substitution2: "'smcp' Lowercase to Small Capitals lookup 12 subtable" i.sc.loclTRK
Substitution2: "'aalt' Access All Alternates lookup 0 subtable" i.sc.loclTRK
EndChar

StartChar: igrave
Encoding: 236 236 215
Width: 266
GlyphClass: 2
Flags: MW
LayerCount: 2
Fore
SplineSet
99 750 m 1
 175 583 l 1
 110 583 l 1
 12 750 l 1
 99 750 l 1
173 500 m 1
 173 0 l 1
 93 0 l 1
 93 500 l 1
 173 500 l 1
EndSplineSet
Substitution2: "'smcp' Lowercase to Small Capitals lookup 12 subtable" igrave.sc
Substitution2: "'aalt' Access All Alternates lookup 0 subtable" igrave.sc
EndChar

StartChar: ij
Encoding: 307 307 216
Width: 532
GlyphClass: 2
Flags: MW
LayerCount: 2
Fore
SplineSet
133 596 m 0
 97 596 73 620 73 656 c 0
 73 692 97 716 133 716 c 0
 169 716 193 692 193 656 c 0
 193 620 169 596 133 596 c 0
399 716 m 0
 432 716 459 689 459 656 c 0
 459 623 432 596 399 596 c 0
 366 596 339 623 339 656 c 0
 339 689 366 716 399 716 c 0
173 500 m 1
 173 0 l 1
 93 0 l 1
 93 500 l 1
 173 500 l 1
439 500 m 1
 439 -51 l 2
 439 -176 355 -215 287 -215 c 0
 246 -215 210 -201 187 -182 c 1
 204 -106 l 1
 223 -123 251 -137 286 -137 c 0
 329 -137 359 -113 359 -43 c 2
 359 500 l 1
 439 500 l 1
EndSplineSet
Substitution2: "'smcp' Lowercase to Small Capitals lookup 12 subtable" ij.sc
Ligature2: "'locl' Localized Forms in Latin lookup 9 subtable" i j
Substitution2: "'aalt' Access All Alternates lookup 0 subtable" ij.sc
EndChar

StartChar: imacron
Encoding: 299 299 217
Width: 266
GlyphClass: 2
Flags: MW
LayerCount: 2
Fore
SplineSet
244 663 m 1
 244 596 l 1
 22 596 l 1
 22 663 l 1
 244 663 l 1
173 500 m 1
 173 0 l 1
 93 0 l 1
 93 500 l 1
 173 500 l 1
EndSplineSet
Substitution2: "'smcp' Lowercase to Small Capitals lookup 12 subtable" imacron.sc
Substitution2: "'aalt' Access All Alternates lookup 0 subtable" imacron.sc
EndChar

StartChar: iogonek
Encoding: 303 303 218
Width: 266
GlyphClass: 2
Flags: MW
LayerCount: 2
Fore
SplineSet
133 596 m 0
 97 596 73 620 73 656 c 0
 73 692 97 716 133 716 c 0
 169 716 193 692 193 656 c 0
 193 620 169 596 133 596 c 0
190 -144 m 1
 209 -194 l 1
 187 -208 161 -215 124 -215 c 0
 53 -215 8 -177 8 -117 c 0
 8 -69 37 -32 93 2 c 1
 93 500 l 1
 173 500 l 1
 173 0 l 1
 95 -44 74 -72 74 -109 c 0
 74 -138 94 -159 131 -159 c 0
 150 -159 174 -154 190 -144 c 1
EndSplineSet
Substitution2: "'smcp' Lowercase to Small Capitals lookup 12 subtable" iogonek.sc
Substitution2: "'aalt' Access All Alternates lookup 0 subtable" iogonek.sc
EndChar

StartChar: j
Encoding: 106 106 219
Width: 266
GlyphClass: 2
Flags: MW
LayerCount: 2
Fore
SplineSet
133 716 m 0
 166 716 193 689 193 656 c 0
 193 623 166 596 133 596 c 0
 100 596 73 623 73 656 c 0
 73 689 100 716 133 716 c 0
173 500 m 1
 173 -51 l 2
 173 -176 89 -215 21 -215 c 0
 -20 -215 -56 -201 -79 -182 c 1
 -62 -106 l 1
 -43 -123 -15 -137 20 -137 c 0
 63 -137 93 -113 93 -43 c 2
 93 500 l 1
 173 500 l 1
EndSplineSet
Substitution2: "'smcp' Lowercase to Small Capitals lookup 12 subtable" j.sc
Substitution2: "'aalt' Access All Alternates lookup 0 subtable" j.sc
EndChar

StartChar: k
Encoding: 107 107 220
Width: 567
GlyphClass: 2
Flags: MW
AnchorPoint: "Anchor-0" 315 0 basechar 0
LayerCount: 2
Fore
SplineSet
447 0 m 1
 279 247 l 1
 173 141 l 1
 173 0 l 1
 93 0 l 1
 93 730 l 1
 173 730 l 1
 173 241 l 1
 432 500 l 1
 532 500 l 1
 337 305 l 1
 544 0 l 1
 447 0 l 1
EndSplineSet
Substitution2: "'smcp' Lowercase to Small Capitals lookup 12 subtable" k.sc
Substitution2: "'aalt' Access All Alternates lookup 0 subtable" k.sc
EndChar

StartChar: l
Encoding: 108 108 221
Width: 306
GlyphClass: 2
Flags: MW
AnchorPoint: "Anchor-0" 214 0 basechar 0
LayerCount: 2
Fore
SplineSet
169 730 m 1
 169 134 l 2
 169 83 182 67 223 67 c 0
 250 67 267 70 296 81 c 1
 283 4 l 1
 262 -5 235 -10 209 -10 c 0
 128 -10 89 33 89 124 c 2
 89 730 l 1
 169 730 l 1
EndSplineSet
Substitution2: "'ss02' Style Set 2 lookup 48 subtable" l.ss02
Substitution2: "'salt' Stylistic Alternatives lookup 42 subtable" l.ss02
Substitution2: "'smcp' Lowercase to Small Capitals lookup 12 subtable" l.sc
AlternateSubs2: "'aalt' Access All Alternates lookup 1 subtable" l.sc l.ss02
Position2: "Single Positioning lookup 6 per glyph data 0" dx=0 dy=0 dh=-40 dv=0
EndChar

StartChar: lacute
Encoding: 314 314 222
Width: 315
GlyphClass: 2
Flags: MW
AnchorPoint: "Anchor-0" 214 0 basechar 0
LayerCount: 2
Fore
SplineSet
130 930 m 1
 218 930 l 1
 157 800 l 1
 93 800 l 1
 130 930 l 1
169 730 m 1
 169 134 l 2
 169 83 182 67 223 67 c 0
 250 67 267 70 296 81 c 1
 283 4 l 1
 262 -5 235 -10 209 -10 c 0
 128 -10 89 33 89 124 c 2
 89 730 l 1
 169 730 l 1
EndSplineSet
Substitution2: "'ss02' Style Set 2 lookup 48 subtable" lacute.ss02
Substitution2: "'salt' Stylistic Alternatives lookup 42 subtable" lacute.ss02
Substitution2: "'smcp' Lowercase to Small Capitals lookup 12 subtable" lacute.sc
AlternateSubs2: "'aalt' Access All Alternates lookup 1 subtable" lacute.sc lacute.ss02
EndChar

StartChar: lcaron
Encoding: 318 318 223
Width: 315
GlyphClass: 2
Flags: MW
AnchorPoint: "Anchor-0" 214 0 basechar 0
LayerCount: 2
Fore
SplineSet
169 730 m 1
 169 134 l 2
 169 83 182 67 223 67 c 0
 250 67 267 70 296 81 c 1
 283 4 l 1
 262 -5 235 -10 209 -10 c 0
 128 -10 89 33 89 124 c 2
 89 730 l 1
 169 730 l 1
322 730 m 1
 281 533 l 1
 226 533 l 1
 246 730 l 1
 322 730 l 1
EndSplineSet
Substitution2: "'ss02' Style Set 2 lookup 48 subtable" lcaron.ss02
Substitution2: "'salt' Stylistic Alternatives lookup 42 subtable" lcaron.ss02
Substitution2: "'smcp' Lowercase to Small Capitals lookup 12 subtable" lcaron.sc
AlternateSubs2: "'aalt' Access All Alternates lookup 1 subtable" lcaron.sc lcaron.ss02
EndChar

StartChar: ldot
Encoding: 320 320 224
Width: 407
GlyphClass: 2
Flags: MW
AnchorPoint: "Anchor-0" 214 0 basechar 0
LayerCount: 2
Fore
SplineSet
169 730 m 1
 169 134 l 2
 169 83 182 67 223 67 c 0
 250 67 267 70 296 81 c 1
 283 4 l 1
 262 -5 235 -10 209 -10 c 0
 128 -10 89 33 89 124 c 2
 89 730 l 1
 169 730 l 1
334 420 m 0
 373 420 399 394 399 355 c 0
 399 316 373 290 334 290 c 0
 295 290 269 316 269 355 c 0
 269 394 295 420 334 420 c 0
EndSplineSet
Substitution2: "'ss02' Style Set 2 lookup 48 subtable" ldot.ss02
Substitution2: "'smcp' Lowercase to Small Capitals lookup 12 subtable" ldot.sc
AlternateSubs2: "'aalt' Access All Alternates lookup 1 subtable" ldot.sc ldot.ss02
EndChar

StartChar: lslash
Encoding: 322 322 225
Width: 372
GlyphClass: 2
Flags: MW
AnchorPoint: "Anchor-0" 260 0 basechar 0
LayerCount: 2
Fore
SplineSet
269 67 m 0
 296 67 313 70 342 81 c 1
 329 4 l 1
 308 -5 281 -10 255 -10 c 0
 174 -10 135 33 135 124 c 2
 135 290 l 1
 39 229 l 1
 39 312 l 1
 135 373 l 1
 135 730 l 1
 215 730 l 1
 215 424 l 1
 335 500 l 1
 335 417 l 1
 215 341 l 1
 215 134 l 2
 215 83 228 67 269 67 c 0
EndSplineSet
Substitution2: "'ss02' Style Set 2 lookup 48 subtable" lslash.ss02
Substitution2: "'salt' Stylistic Alternatives lookup 42 subtable" lslash.ss02
Substitution2: "'smcp' Lowercase to Small Capitals lookup 12 subtable" lslash.sc
AlternateSubs2: "'aalt' Access All Alternates lookup 1 subtable" lslash.sc lslash.ss02
EndChar

StartChar: m
Encoding: 109 109 226
Width: 953
GlyphClass: 2
Flags: MW
LayerCount: 2
Fore
SplineSet
674 510 m 0
 770 510 865 452 865 320 c 2
 865 0 l 1
 785 0 l 1
 785 312 l 2
 785 403 733 440 667 440 c 0
 589 440 519 381 519 274 c 2
 519 0 l 1
 439 0 l 1
 439 312 l 2
 439 403 387 440 321 440 c 0
 255 440 173 391 173 267 c 2
 173 0 l 1
 93 0 l 1
 93 500 l 1
 163 500 l 1
 168 422 l 1
 204 483 266 510 328 510 c 0
 398 510 467 479 500 412 c 1
 531 480 611 510 674 510 c 0
EndSplineSet
Substitution2: "'smcp' Lowercase to Small Capitals lookup 12 subtable" m.sc
Substitution2: "'aalt' Access All Alternates lookup 0 subtable" m.sc
EndChar

StartChar: n
Encoding: 110 110 227
Width: 619
GlyphClass: 2
Flags: MW
AnchorPoint: "Anchor-0" 342 0 basechar 0
LayerCount: 2
Fore
SplineSet
336 510 m 0
 443 510 531 449 531 320 c 2
 531 0 l 1
 451 0 l 1
 451 292 l 2
 451 403 397 440 328 440 c 0
 255 440 173 394 173 266 c 2
 173 0 l 1
 93 0 l 1
 93 500 l 1
 163 500 l 1
 168 422 l 1
 203 485 267 510 336 510 c 0
EndSplineSet
Substitution2: "Single Substitution lookup 57 subtable" n.swsh
Substitution2: "'swsh' Swash lookup 38 subtable" n.swsh
Substitution2: "'smcp' Lowercase to Small Capitals lookup 12 subtable" n.sc
AlternateSubs2: "'aalt' Access All Alternates lookup 1 subtable" n.sc n.swsh
EndChar

StartChar: nacute
Encoding: 324 324 228
Width: 619
GlyphClass: 2
Flags: MW
AnchorPoint: "Anchor-0" 342 0 basechar 0
LayerCount: 2
Fore
SplineSet
432 750 m 1
 334 583 l 1
 269 583 l 1
 345 750 l 1
 432 750 l 1
336 510 m 0
 443 510 531 449 531 320 c 2
 531 0 l 1
 451 0 l 1
 451 292 l 2
 451 403 397 440 328 440 c 0
 255 440 173 394 173 266 c 2
 173 0 l 1
 93 0 l 1
 93 500 l 1
 163 500 l 1
 168 422 l 1
 203 485 267 510 336 510 c 0
EndSplineSet
Substitution2: "Single Substitution lookup 57 subtable" nacute.swsh
Substitution2: "'swsh' Swash lookup 38 subtable" nacute.swsh
Substitution2: "'smcp' Lowercase to Small Capitals lookup 12 subtable" nacute.sc
AlternateSubs2: "'aalt' Access All Alternates lookup 1 subtable" nacute.sc nacute.swsh
EndChar

StartChar: ncaron
Encoding: 328 328 229
Width: 619
GlyphClass: 2
Flags: MW
AnchorPoint: "Anchor-0" 342 0 basechar 0
LayerCount: 2
Fore
SplineSet
364 583 m 1
 272 583 l 1
 160 750 l 1
 233 750 l 1
 318 639 l 1
 403 750 l 1
 476 750 l 1
 364 583 l 1
336 510 m 0
 443 510 531 449 531 320 c 2
 531 0 l 1
 451 0 l 1
 451 292 l 2
 451 403 397 440 328 440 c 0
 255 440 173 394 173 266 c 2
 173 0 l 1
 93 0 l 1
 93 500 l 1
 163 500 l 1
 168 422 l 1
 203 485 267 510 336 510 c 0
EndSplineSet
Substitution2: "Single Substitution lookup 57 subtable" ncaron.swsh
Substitution2: "'swsh' Swash lookup 38 subtable" ncaron.swsh
Substitution2: "'smcp' Lowercase to Small Capitals lookup 12 subtable" ncaron.sc
AlternateSubs2: "'aalt' Access All Alternates lookup 1 subtable" ncaron.sc ncaron.swsh
EndChar

StartChar: ntilde
Encoding: 241 241 230
Width: 619
GlyphClass: 2
Flags: MW
AnchorPoint: "Anchor-0" 342 0 basechar 0
LayerCount: 2
Fore
SplineSet
248 651 m 0
 218 651 206 625 199 582 c 1
 136 582 l 1
 143 670 178 716 249 716 c 0
 322 716 345 648 385 648 c 0
 415 648 428 674 435 717 c 1
 498 717 l 1
 491 629 455 583 386 583 c 0
 311 583 291 651 248 651 c 0
336 510 m 0
 443 510 531 449 531 320 c 2
 531 0 l 1
 451 0 l 1
 451 292 l 2
 451 403 397 440 328 440 c 0
 255 440 173 394 173 266 c 2
 173 0 l 1
 93 0 l 1
 93 500 l 1
 163 500 l 1
 168 422 l 1
 203 485 267 510 336 510 c 0
EndSplineSet
Substitution2: "Single Substitution lookup 57 subtable" ntilde.swsh
Substitution2: "'swsh' Swash lookup 38 subtable" ntilde.swsh
Substitution2: "'smcp' Lowercase to Small Capitals lookup 12 subtable" ntilde.sc
AlternateSubs2: "'aalt' Access All Alternates lookup 1 subtable" ntilde.sc ntilde.swsh
EndChar

StartChar: o
Encoding: 111 111 231
Width: 608
GlyphClass: 2
Flags: MW
LayerCount: 2
Fore
SplineSet
304 510 m 0
 455 510 546 412 546 250 c 0
 546 88 455 -10 304 -10 c 0
 153 -10 62 88 62 250 c 0
 62 412 153 510 304 510 c 0
304 441 m 0
 203 441 142 369 142 250 c 0
 142 131 203 59 304 59 c 0
 405 59 466 131 466 250 c 0
 466 369 405 441 304 441 c 0
EndSplineSet
Substitution2: "Single Substitution lookup 55 subtable" ordmasculine
Substitution2: "'smcp' Lowercase to Small Capitals lookup 12 subtable" o.sc
AlternateSubs2: "'aalt' Access All Alternates lookup 1 subtable" o.sc ordmasculine
EndChar

StartChar: oacute
Encoding: 243 243 232
Width: 608
GlyphClass: 2
Flags: MW
LayerCount: 2
Fore
SplineSet
331 750 m 1
 418 750 l 1
 320 583 l 1
 255 583 l 1
 331 750 l 1
304 510 m 0
 455 510 546 412 546 250 c 0
 546 88 455 -10 304 -10 c 0
 153 -10 62 88 62 250 c 0
 62 412 153 510 304 510 c 0
304 441 m 0
 203 441 142 369 142 250 c 0
 142 131 203 59 304 59 c 0
 405 59 466 131 466 250 c 0
 466 369 405 441 304 441 c 0
EndSplineSet
Substitution2: "'smcp' Lowercase to Small Capitals lookup 12 subtable" oacute.sc
Substitution2: "'aalt' Access All Alternates lookup 0 subtable" oacute.sc
EndChar

StartChar: ocircumflex
Encoding: 244 244 233
Width: 608
GlyphClass: 2
Flags: MW
LayerCount: 2
Fore
SplineSet
462 576 m 1
 389 576 l 1
 304 687 l 1
 219 576 l 1
 146 576 l 1
 258 743 l 1
 350 743 l 1
 462 576 l 1
304 510 m 0
 455 510 546 412 546 250 c 0
 546 88 455 -10 304 -10 c 0
 153 -10 62 88 62 250 c 0
 62 412 153 510 304 510 c 0
304 441 m 0
 203 441 142 369 142 250 c 0
 142 131 203 59 304 59 c 0
 405 59 466 131 466 250 c 0
 466 369 405 441 304 441 c 0
EndSplineSet
Substitution2: "'smcp' Lowercase to Small Capitals lookup 12 subtable" ocircumflex.sc
Substitution2: "'aalt' Access All Alternates lookup 0 subtable" ocircumflex.sc
EndChar

StartChar: odieresis
Encoding: 246 246 234
Width: 608
GlyphClass: 2
Flags: MW
LayerCount: 2
Fore
SplineSet
207 696 m 0
 241 696 264 673 264 639 c 0
 264 605 241 582 207 582 c 0
 173 582 150 605 150 639 c 0
 150 673 173 696 207 696 c 0
401 696 m 0
 435 696 458 673 458 639 c 0
 458 605 435 582 401 582 c 0
 367 582 344 605 344 639 c 0
 344 673 367 696 401 696 c 0
304 510 m 0
 455 510 546 412 546 250 c 0
 546 88 455 -10 304 -10 c 0
 153 -10 62 88 62 250 c 0
 62 412 153 510 304 510 c 0
304 441 m 0
 203 441 142 369 142 250 c 0
 142 131 203 59 304 59 c 0
 405 59 466 131 466 250 c 0
 466 369 405 441 304 441 c 0
EndSplineSet
Substitution2: "'smcp' Lowercase to Small Capitals lookup 12 subtable" odieresis.sc
Substitution2: "'aalt' Access All Alternates lookup 0 subtable" odieresis.sc
EndChar

StartChar: ograve
Encoding: 242 242 235
Width: 608
GlyphClass: 2
Flags: MW
LayerCount: 2
Fore
SplineSet
270 750 m 1
 346 583 l 1
 281 583 l 1
 183 750 l 1
 270 750 l 1
304 510 m 0
 455 510 546 412 546 250 c 0
 546 88 455 -10 304 -10 c 0
 153 -10 62 88 62 250 c 0
 62 412 153 510 304 510 c 0
304 441 m 0
 203 441 142 369 142 250 c 0
 142 131 203 59 304 59 c 0
 405 59 466 131 466 250 c 0
 466 369 405 441 304 441 c 0
EndSplineSet
Substitution2: "'smcp' Lowercase to Small Capitals lookup 12 subtable" ograve.sc
Substitution2: "'aalt' Access All Alternates lookup 0 subtable" ograve.sc
EndChar

StartChar: ohungarumlaut
Encoding: 337 337 236
Width: 608
GlyphClass: 2
Flags: MW
LayerCount: 2
Fore
SplineSet
326 750 m 1
 228 583 l 1
 163 583 l 1
 239 750 l 1
 326 750 l 1
502 750 m 1
 404 583 l 1
 339 583 l 1
 415 750 l 1
 502 750 l 1
304 510 m 0
 455 510 546 412 546 250 c 0
 546 88 455 -10 304 -10 c 0
 153 -10 62 88 62 250 c 0
 62 412 153 510 304 510 c 0
304 441 m 0
 203 441 142 369 142 250 c 0
 142 131 203 59 304 59 c 0
 405 59 466 131 466 250 c 0
 466 369 405 441 304 441 c 0
EndSplineSet
Substitution2: "'smcp' Lowercase to Small Capitals lookup 12 subtable" ohungarumlaut.sc
Substitution2: "'aalt' Access All Alternates lookup 0 subtable" ohungarumlaut.sc
EndChar

StartChar: omacron
Encoding: 333 333 237
Width: 608
GlyphClass: 2
Flags: MW
LayerCount: 2
Fore
SplineSet
478 663 m 1
 478 596 l 1
 130 596 l 1
 130 663 l 1
 478 663 l 1
304 510 m 0
 455 510 546 412 546 250 c 0
 546 88 455 -10 304 -10 c 0
 153 -10 62 88 62 250 c 0
 62 412 153 510 304 510 c 0
304 441 m 0
 203 441 142 369 142 250 c 0
 142 131 203 59 304 59 c 0
 405 59 466 131 466 250 c 0
 466 369 405 441 304 441 c 0
EndSplineSet
Substitution2: "'smcp' Lowercase to Small Capitals lookup 12 subtable" omacron.sc
Substitution2: "'aalt' Access All Alternates lookup 0 subtable" omacron.sc
EndChar

StartChar: oslash
Encoding: 248 248 238
Width: 609
GlyphClass: 2
Flags: MW
LayerCount: 2
Fore
SplineSet
304 510 m 0
 360 510 407 497 445 472 c 1
 484 523 l 1
 551 523 l 1
 485 437 l 1
 525 392 546 329 546 250 c 0
 546 88 455 -10 304 -10 c 0
 253 -10 209 1 173 22 c 1
 128 -37 l 1
 61 -37 l 1
 130 55 l 1
 86 100 62 166 62 250 c 0
 62 412 153 510 304 510 c 0
178 118 m 1
 179 118 l 1
 215 167 l 1
 400 412 l 1
 374 431 342 441 304 441 c 0
 203 441 142 369 142 250 c 0
 142 195 155 151 178 118 c 1
304 59 m 0
 405 59 466 131 466 250 c 0
 466 299 456 340 436 372 c 1
 435 372 l 1
 403 328 l 1
 218 82 l 1
 241 67 271 59 304 59 c 0
EndSplineSet
Substitution2: "'smcp' Lowercase to Small Capitals lookup 12 subtable" oslash.sc
Substitution2: "'aalt' Access All Alternates lookup 0 subtable" oslash.sc
EndChar

StartChar: otilde
Encoding: 245 245 239
Width: 608
GlyphClass: 2
Flags: MW
LayerCount: 2
Fore
SplineSet
484 717 m 1
 477 629 441 583 372 583 c 0
 297 583 277 651 234 651 c 0
 204 651 192 625 185 582 c 1
 122 582 l 1
 129 670 164 716 235 716 c 0
 308 716 331 648 371 648 c 0
 401 648 414 674 421 717 c 1
 484 717 l 1
304 510 m 0
 455 510 546 412 546 250 c 0
 546 88 455 -10 304 -10 c 0
 153 -10 62 88 62 250 c 0
 62 412 153 510 304 510 c 0
304 441 m 0
 203 441 142 369 142 250 c 0
 142 131 203 59 304 59 c 0
 405 59 466 131 466 250 c 0
 466 369 405 441 304 441 c 0
EndSplineSet
Substitution2: "'smcp' Lowercase to Small Capitals lookup 12 subtable" otilde.sc
Substitution2: "'aalt' Access All Alternates lookup 0 subtable" otilde.sc
EndChar

StartChar: oe
Encoding: 339 339 240
Width: 989
GlyphClass: 2
Flags: MW
LayerCount: 2
Fore
SplineSet
929 276 m 0
 929 253 927 234 925 220 c 1
 548 220 l 1
 558 119 619 60 711 60 c 0
 784 60 834 86 852 134 c 1
 919 99 l 1
 881 31 819 -10 711 -10 c 0
 617 -10 548 31 510 104 c 1
 473 31 403 -10 307 -10 c 0
 153 -10 62 88 62 250 c 0
 62 412 153 510 307 510 c 0
 402 510 472 470 510 398 c 1
 545 470 612 510 705 510 c 0
 850 510 929 405 929 276 c 0
307 60 m 0
 408 60 469 131 469 250 c 0
 469 369 408 440 307 440 c 0
 206 440 145 369 145 250 c 0
 145 131 206 60 307 60 c 0
705 440 m 0
 616 440 561 385 549 291 c 1
 852 291 l 1
 841 383 790 440 705 440 c 0
EndSplineSet
Substitution2: "'smcp' Lowercase to Small Capitals lookup 12 subtable" oe.sc
Substitution2: "'aalt' Access All Alternates lookup 0 subtable" oe.sc
EndChar

StartChar: p
Encoding: 112 112 241
Width: 630
GlyphClass: 2
Flags: MW
LayerCount: 2
Fore
SplineSet
339 510 m 0
 478 510 567 413 567 250 c 0
 567 87 478 -10 339 -10 c 0
 264 -10 204 26 173 78 c 1
 173 -210 l 1
 93 -210 l 1
 93 500 l 1
 163 500 l 1
 168 413 l 1
 197 470 260 510 339 510 c 0
330 60 m 0
 428 60 487 134 487 250 c 0
 487 366 428 440 330 440 c 0
 235 440 173 369 173 256 c 2
 173 244 l 2
 173 131 235 60 330 60 c 0
EndSplineSet
Substitution2: "'smcp' Lowercase to Small Capitals lookup 12 subtable" p.sc
Substitution2: "'aalt' Access All Alternates lookup 0 subtable" p.sc
EndChar

StartChar: thorn
Encoding: 254 254 242
Width: 630
GlyphClass: 2
Flags: MW
LayerCount: 2
Fore
SplineSet
339 510 m 0
 478 510 567 413 567 250 c 0
 567 87 478 -10 339 -10 c 0
 264 -10 206 22 173 69 c 1
 173 -210 l 1
 93 -210 l 1
 93 730 l 1
 173 730 l 1
 173 431 l 1
 206 478 264 510 339 510 c 0
330 60 m 0
 428 60 487 134 487 250 c 0
 487 366 428 440 330 440 c 0
 235 440 173 369 173 256 c 2
 173 244 l 2
 173 131 235 60 330 60 c 0
EndSplineSet
Substitution2: "'smcp' Lowercase to Small Capitals lookup 12 subtable" thorn.sc
Substitution2: "'aalt' Access All Alternates lookup 0 subtable" thorn.sc
EndChar

StartChar: q
Encoding: 113 113 243
Width: 631
GlyphClass: 2
Flags: MW
LayerCount: 2
Fore
SplineSet
468 500 m 1
 538 500 l 1
 538 -210 l 1
 458 -210 l 1
 458 78 l 1
 427 26 367 -10 292 -10 c 0
 153 -10 64 87 64 250 c 0
 64 413 153 510 292 510 c 0
 371 510 434 470 463 413 c 1
 468 500 l 1
301 60 m 0
 396 60 458 131 458 244 c 2
 458 256 l 2
 458 369 396 440 301 440 c 0
 203 440 144 366 144 250 c 0
 144 134 203 60 301 60 c 0
EndSplineSet
Substitution2: "'smcp' Lowercase to Small Capitals lookup 12 subtable" q.sc
Substitution2: "'aalt' Access All Alternates lookup 0 subtable" q.sc
EndChar

StartChar: r
Encoding: 114 114 244
Width: 408
GlyphClass: 2
Flags: MW
AnchorPoint: "Anchor-0" 154 0 basechar 0
LayerCount: 2
Fore
SplineSet
329 510 m 0
 346 510 369 508 384 500 c 1
 368 422 l 1
 353 430 331 435 305 435 c 0
 245 435 173 382 173 270 c 2
 173 0 l 1
 93 0 l 1
 93 500 l 1
 158 500 l 1
 169 418 l 1
 197 479 251 510 329 510 c 0
EndSplineSet
Substitution2: "Single Substitution lookup 57 subtable" r.swsh
Substitution2: "'swsh' Swash lookup 38 subtable" r.swsh
Substitution2: "'smcp' Lowercase to Small Capitals lookup 12 subtable" r.sc
AlternateSubs2: "'aalt' Access All Alternates lookup 1 subtable" r.sc r.swsh
EndChar

StartChar: racute
Encoding: 341 341 245
Width: 408
GlyphClass: 2
Flags: MW
AnchorPoint: "Anchor-0" 154 0 basechar 0
LayerCount: 2
Fore
SplineSet
334 750 m 1
 236 583 l 1
 171 583 l 1
 247 750 l 1
 334 750 l 1
329 510 m 0
 346 510 369 508 384 500 c 1
 368 422 l 1
 353 430 331 435 305 435 c 0
 245 435 173 382 173 270 c 2
 173 0 l 1
 93 0 l 1
 93 500 l 1
 158 500 l 1
 169 418 l 1
 197 479 251 510 329 510 c 0
EndSplineSet
Substitution2: "Single Substitution lookup 57 subtable" racute.swsh
Substitution2: "'swsh' Swash lookup 38 subtable" racute.swsh
Substitution2: "'smcp' Lowercase to Small Capitals lookup 12 subtable" racute.sc
AlternateSubs2: "'aalt' Access All Alternates lookup 1 subtable" racute.sc racute.swsh
EndChar

StartChar: rcaron
Encoding: 345 345 246
Width: 408
GlyphClass: 2
Flags: MW
AnchorPoint: "Anchor-0" 154 0 basechar 0
LayerCount: 2
Fore
SplineSet
266 583 m 1
 174 583 l 1
 62 750 l 1
 135 750 l 1
 220 639 l 1
 305 750 l 1
 378 750 l 1
 266 583 l 1
329 510 m 0
 346 510 369 508 384 500 c 1
 368 422 l 1
 353 430 331 435 305 435 c 0
 245 435 173 382 173 270 c 2
 173 0 l 1
 93 0 l 1
 93 500 l 1
 158 500 l 1
 169 418 l 1
 197 479 251 510 329 510 c 0
EndSplineSet
Substitution2: "Single Substitution lookup 57 subtable" rcaron.swsh
Substitution2: "'swsh' Swash lookup 38 subtable" rcaron.swsh
Substitution2: "'smcp' Lowercase to Small Capitals lookup 12 subtable" rcaron.sc
AlternateSubs2: "'aalt' Access All Alternates lookup 1 subtable" rcaron.sc rcaron.swsh
EndChar

StartChar: s
Encoding: 115 115 247
Width: 527
GlyphClass: 2
Flags: MW
AnchorPoint: "Anchor-0" 279 0 basechar 0
LayerCount: 2
Fore
SplineSet
263 -10 m 0
 171 -10 86 26 48 103 c 1
 113 148 l 1
 137 87 199 60 271 60 c 0
 353 60 392 93 392 134 c 0
 392 171 361 193 261 211 c 0
 119 237 67 276 67 360 c 0
 67 441 142 510 264 510 c 0
 371 510 434 472 462 390 c 1
 394 350 l 1
 372 416 327 440 264 440 c 0
 197 440 147 404 147 367 c 0
 147 324 180 302 282 285 c 0
 422 262 472 220 472 138 c 0
 472 51 391 -10 263 -10 c 0
EndSplineSet
Substitution2: "'hist' Historical Forms lookup 44 subtable" longs
Substitution2: "'smcp' Lowercase to Small Capitals lookup 12 subtable" s.sc
AlternateSubs2: "'aalt' Access All Alternates lookup 1 subtable" s.sc longs
EndChar

StartChar: sacute
Encoding: 347 347 248
Width: 527
GlyphClass: 2
Flags: MW
AnchorPoint: "Anchor-0" 279 0 basechar 0
LayerCount: 2
Fore
SplineSet
291 750 m 1
 378 750 l 1
 280 583 l 1
 215 583 l 1
 291 750 l 1
263 -10 m 0
 171 -10 86 26 48 103 c 1
 113 148 l 1
 137 87 199 60 271 60 c 0
 353 60 392 93 392 134 c 0
 392 171 361 193 261 211 c 0
 119 237 67 276 67 360 c 0
 67 441 142 510 264 510 c 0
 371 510 434 472 462 390 c 1
 394 350 l 1
 372 416 327 440 264 440 c 0
 197 440 147 404 147 367 c 0
 147 324 180 302 282 285 c 0
 422 262 472 220 472 138 c 0
 472 51 391 -10 263 -10 c 0
EndSplineSet
Substitution2: "'smcp' Lowercase to Small Capitals lookup 12 subtable" sacute.sc
Substitution2: "'aalt' Access All Alternates lookup 0 subtable" sacute.sc
EndChar

StartChar: scaron
Encoding: 353 353 249
Width: 527
GlyphClass: 2
Flags: MW
AnchorPoint: "Anchor-0" 279 0 basechar 0
LayerCount: 2
Fore
SplineSet
422 750 m 1
 310 583 l 1
 218 583 l 1
 106 750 l 1
 179 750 l 1
 264 639 l 1
 349 750 l 1
 422 750 l 1
263 -10 m 0
 171 -10 86 26 48 103 c 1
 113 148 l 1
 137 87 199 60 271 60 c 0
 353 60 392 93 392 134 c 0
 392 171 361 193 261 211 c 0
 119 237 67 276 67 360 c 0
 67 441 142 510 264 510 c 0
 371 510 434 472 462 390 c 1
 394 350 l 1
 372 416 327 440 264 440 c 0
 197 440 147 404 147 367 c 0
 147 324 180 302 282 285 c 0
 422 262 472 220 472 138 c 0
 472 51 391 -10 263 -10 c 0
EndSplineSet
Substitution2: "'smcp' Lowercase to Small Capitals lookup 12 subtable" scaron.sc
Substitution2: "'aalt' Access All Alternates lookup 0 subtable" scaron.sc
EndChar

StartChar: germandbls
Encoding: 223 223 250
Width: 620
GlyphClass: 2
Flags: MW
LayerCount: 2
Fore
SplineSet
373 391 m 1
 512 391 560 286 560 197 c 0
 560 91 487 -10 339 -10 c 0
 294 -10 252 6 234 23 c 1
 257 88 l 1
 277 72 305 63 343 63 c 0
 434 63 483 123 483 206 c 0
 483 299 421 347 309 347 c 2
 270 347 l 1
 270 422 l 1
 309 422 l 2
 399 422 452 474 452 544 c 0
 452 623 405 660 318 660 c 0
 206 660 173 596 173 473 c 2
 173 0 l 1
 93 0 l 1
 93 497 l 2
 93 634 148 735 326 735 c 0
 480 735 534 631 534 549 c 0
 534 483 489 393 373 393 c 1
 373 391 l 1
EndSplineSet
Substitution2: "Single Substitution lookup 57 subtable" germandbls.calt
Substitution2: "'smcp' Lowercase to Small Capitals lookup 12 subtable" germandbls.sc
AlternateSubs2: "'aalt' Access All Alternates lookup 1 subtable" germandbls.sc germandbls.calt
EndChar

StartChar: longs
Encoding: 383 383 251
Width: 260
GlyphClass: 2
Flags: MW
LayerCount: 2
Fore
SplineSet
89 0 m 1
 89 584 l 2
 89 673 125 735 224 735 c 0
 262 735 287 727 301 712 c 1
 285 647 l 1
 272 657 258 662 240 662 c 0
 195 662 169 636 169 576 c 2
 169 0 l 1
 89 0 l 1
EndSplineSet
EndChar

StartChar: t
Encoding: 116 116 252
Width: 419
GlyphClass: 2
Flags: MW
AnchorPoint: "Anchor-0" 256 0 basechar 0
LayerCount: 2
Fore
SplineSet
371 102 m 1
 399 35 l 1
 368 7 325 -10 270 -10 c 0
 196 -10 132 27 131 124 c 2
 131 431 l 1
 31 431 l 1
 31 500 l 1
 131 500 l 1
 131 620 l 1
 211 642 l 1
 211 500 l 1
 396 500 l 1
 396 431 l 1
 211 431 l 1
 211 138 l 2
 211 89 242 65 286 65 c 0
 322 65 348 79 371 102 c 1
EndSplineSet
Substitution2: "Single Substitution lookup 57 subtable" t.swsh
Substitution2: "'swsh' Swash lookup 38 subtable" t.swsh
Substitution2: "'smcp' Lowercase to Small Capitals lookup 12 subtable" t.sc
AlternateSubs2: "'aalt' Access All Alternates lookup 1 subtable" t.sc t.swsh
EndChar

StartChar: tcaron
Encoding: 357 357 253
Width: 419
GlyphClass: 2
Flags: MW
AnchorPoint: "Anchor-0" 256 0 basechar 0
LayerCount: 2
Fore
SplineSet
368 767 m 1
 327 570 l 1
 272 570 l 1
 292 767 l 1
 368 767 l 1
371 102 m 1
 399 35 l 1
 368 7 325 -10 270 -10 c 0
 196 -10 132 27 131 124 c 2
 131 431 l 1
 31 431 l 1
 31 500 l 1
 131 500 l 1
 131 620 l 1
 211 642 l 1
 211 500 l 1
 396 500 l 1
 396 431 l 1
 211 431 l 1
 211 138 l 2
 211 89 242 65 286 65 c 0
 322 65 348 79 371 102 c 1
EndSplineSet
Substitution2: "Single Substitution lookup 57 subtable" tcaron.swsh
Substitution2: "'swsh' Swash lookup 38 subtable" tcaron.swsh
Substitution2: "'smcp' Lowercase to Small Capitals lookup 12 subtable" tcaron.sc
AlternateSubs2: "'aalt' Access All Alternates lookup 1 subtable" tcaron.sc tcaron.swsh
EndChar

StartChar: u
Encoding: 117 117 254
Width: 619
GlyphClass: 2
Flags: MW
LayerCount: 2
Fore
SplineSet
446 500 m 1
 526 500 l 1
 526 0 l 1
 456 0 l 1
 451 76 l 1
 416 16 352 -10 272 -10 c 0
 173 -10 88 41 88 173 c 2
 88 500 l 1
 168 500 l 1
 168 194 l 2
 168 91 214 60 286 60 c 0
 371 60 446 110 446 228 c 2
 446 500 l 1
EndSplineSet
Substitution2: "'smcp' Lowercase to Small Capitals lookup 12 subtable" u.sc
Substitution2: "'aalt' Access All Alternates lookup 0 subtable" u.sc
EndChar

StartChar: uacute
Encoding: 250 250 255
Width: 619
GlyphClass: 2
Flags: MW
LayerCount: 2
Fore
SplineSet
422 750 m 1
 324 583 l 1
 259 583 l 1
 335 750 l 1
 422 750 l 1
446 500 m 1
 526 500 l 1
 526 0 l 1
 456 0 l 1
 451 76 l 1
 416 16 352 -10 272 -10 c 0
 173 -10 88 41 88 173 c 2
 88 500 l 1
 168 500 l 1
 168 194 l 2
 168 91 214 60 286 60 c 0
 371 60 446 110 446 228 c 2
 446 500 l 1
EndSplineSet
Substitution2: "'smcp' Lowercase to Small Capitals lookup 12 subtable" uacute.sc
Substitution2: "'aalt' Access All Alternates lookup 0 subtable" uacute.sc
EndChar

StartChar: ucircumflex
Encoding: 251 251 256
Width: 619
GlyphClass: 2
Flags: MW
LayerCount: 2
Fore
SplineSet
308 687 m 1
 223 576 l 1
 150 576 l 1
 262 743 l 1
 354 743 l 1
 466 576 l 1
 393 576 l 1
 308 687 l 1
446 500 m 1
 526 500 l 1
 526 0 l 1
 456 0 l 1
 451 76 l 1
 416 16 352 -10 272 -10 c 0
 173 -10 88 41 88 173 c 2
 88 500 l 1
 168 500 l 1
 168 194 l 2
 168 91 214 60 286 60 c 0
 371 60 446 110 446 228 c 2
 446 500 l 1
EndSplineSet
Substitution2: "'smcp' Lowercase to Small Capitals lookup 12 subtable" ucircumflex.sc
Substitution2: "'aalt' Access All Alternates lookup 0 subtable" ucircumflex.sc
EndChar

StartChar: udieresis
Encoding: 252 252 257
Width: 619
GlyphClass: 2
Flags: MW
LayerCount: 2
Fore
SplineSet
211 582 m 0
 177 582 154 605 154 639 c 0
 154 673 177 696 211 696 c 0
 245 696 268 673 268 639 c 0
 268 605 245 582 211 582 c 0
405 582 m 0
 371 582 348 605 348 639 c 0
 348 673 371 696 405 696 c 0
 439 696 462 673 462 639 c 0
 462 605 439 582 405 582 c 0
446 500 m 1
 526 500 l 1
 526 0 l 1
 456 0 l 1
 451 76 l 1
 416 16 352 -10 272 -10 c 0
 173 -10 88 41 88 173 c 2
 88 500 l 1
 168 500 l 1
 168 194 l 2
 168 91 214 60 286 60 c 0
 371 60 446 110 446 228 c 2
 446 500 l 1
EndSplineSet
Substitution2: "'smcp' Lowercase to Small Capitals lookup 12 subtable" udieresis.sc
Substitution2: "'aalt' Access All Alternates lookup 0 subtable" udieresis.sc
EndChar

StartChar: ugrave
Encoding: 249 249 258
Width: 619
GlyphClass: 2
Flags: MW
LayerCount: 2
Fore
SplineSet
350 583 m 1
 285 583 l 1
 187 750 l 1
 274 750 l 1
 350 583 l 1
446 500 m 1
 526 500 l 1
 526 0 l 1
 456 0 l 1
 451 76 l 1
 416 16 352 -10 272 -10 c 0
 173 -10 88 41 88 173 c 2
 88 500 l 1
 168 500 l 1
 168 194 l 2
 168 91 214 60 286 60 c 0
 371 60 446 110 446 228 c 2
 446 500 l 1
EndSplineSet
Substitution2: "'smcp' Lowercase to Small Capitals lookup 12 subtable" ugrave.sc
Substitution2: "'aalt' Access All Alternates lookup 0 subtable" ugrave.sc
EndChar

StartChar: uhungarumlaut
Encoding: 369 369 259
Width: 619
GlyphClass: 2
Flags: MW
LayerCount: 2
Fore
SplineSet
330 750 m 1
 232 583 l 1
 167 583 l 1
 243 750 l 1
 330 750 l 1
506 750 m 1
 408 583 l 1
 343 583 l 1
 419 750 l 1
 506 750 l 1
446 500 m 1
 526 500 l 1
 526 0 l 1
 456 0 l 1
 451 76 l 1
 416 16 352 -10 272 -10 c 0
 173 -10 88 41 88 173 c 2
 88 500 l 1
 168 500 l 1
 168 194 l 2
 168 91 214 60 286 60 c 0
 371 60 446 110 446 228 c 2
 446 500 l 1
EndSplineSet
Substitution2: "'smcp' Lowercase to Small Capitals lookup 12 subtable" uhungarumlaut.sc
Substitution2: "'aalt' Access All Alternates lookup 0 subtable" uhungarumlaut.sc
EndChar

StartChar: umacron
Encoding: 363 363 260
Width: 619
GlyphClass: 2
Flags: MW
LayerCount: 2
Fore
SplineSet
482 663 m 1
 482 596 l 1
 134 596 l 1
 134 663 l 1
 482 663 l 1
446 500 m 1
 526 500 l 1
 526 0 l 1
 456 0 l 1
 451 76 l 1
 416 16 352 -10 272 -10 c 0
 173 -10 88 41 88 173 c 2
 88 500 l 1
 168 500 l 1
 168 194 l 2
 168 91 214 60 286 60 c 0
 371 60 446 110 446 228 c 2
 446 500 l 1
EndSplineSet
Substitution2: "'smcp' Lowercase to Small Capitals lookup 12 subtable" umacron.sc
Substitution2: "'aalt' Access All Alternates lookup 0 subtable" umacron.sc
EndChar

StartChar: uni0123
Encoding: 291 291 261
Width: 532
GlyphClass: 2
Flags: MW
LayerCount: 2
Fore
SplineSet
437.5 500 m 5
 503.5 500 l 5
 503.5 40 l 6
 503.5 -132 416.5 -215 249.5 -215 c 4
 147.5 -215 62.5 -177 44.5 -92 c 5
 120.5 -59 l 5
 132.5 -116 176.5 -145 261.5 -145 c 4
 355.5 -145 422.5 -77 422.5 21 c 6
 422.5 78 l 5
 389.5 31 331.5 0 256.5 0 c 4
 117.5 0 28.5 95 28.5 255 c 4
 28.5 415 117.5 510 256.5 510 c 4
 335.5 510 396.5 476 427.5 424 c 5
 437.5 500 l 5
265.5 70 m 4
 360.5 70 422.5 139 422.5 249 c 6
 422.5 261 l 6
 422.5 371 360.5 440 265.5 440 c 4
 167.5 440 108.5 368 108.5 255 c 4
 108.5 142 167.5 70 265.5 70 c 4
323.5 778 m 1
 281.5 587 l 1
 193.5 587 l 1
 263.5 778 l 1
 323.5 778 l 1
EndSplineSet
Substitution2: "'ss01' Style Set 1 lookup 47 subtable" gcommaaccent.ss01
Substitution2: "'salt' Stylistic Alternatives lookup 42 subtable" gcommaaccent.ss01
Substitution2: "'aalt' Access All Alternates lookup 0 subtable" gcommaaccent.ss01
EndChar

StartChar: uni0137
Encoding: 311 311 262
Width: 567
GlyphClass: 2
Flags: MW
AnchorPoint: "Anchor-0" 315 0 basechar 0
LayerCount: 2
Fore
SplineSet
337 305 m 1
 544 0 l 1
 447 0 l 1
 279 247 l 1
 173 141 l 1
 173 0 l 1
 93 0 l 1
 93 730 l 1
 173 730 l 1
 173 241 l 1
 432 500 l 1
 532 500 l 1
 337 305 l 1
217 -237 m 1
 261 -76 l 1
 345 -76 l 1
 280 -237 l 1
 217 -237 l 1
EndSplineSet
EndChar

StartChar: uni013C
Encoding: 316 316 263
Width: 306
GlyphClass: 2
Flags: MW
AnchorPoint: "Anchor-0" 214 0 basechar 0
LayerCount: 2
Fore
SplineSet
169 730 m 1
 169 134 l 2
 169 83 182 67 223 67 c 0
 250 67 267 70 296 81 c 1
 283 4 l 1
 262 -5 235 -10 209 -10 c 0
 128 -10 89 33 89 124 c 2
 89 730 l 1
 169 730 l 1
244 -76 m 1
 179 -237 l 1
 116 -237 l 1
 160 -76 l 1
 244 -76 l 1
EndSplineSet
Substitution2: "'ss02' Style Set 2 lookup 48 subtable" lcommaaccent.ss02
Substitution2: "'aalt' Access All Alternates lookup 0 subtable" lcommaaccent.ss02
EndChar

StartChar: uni0146
Encoding: 326 326 264
Width: 619
GlyphClass: 2
Flags: MW
AnchorPoint: "Anchor-0" 342 0 basechar 0
LayerCount: 2
Fore
SplineSet
336 510 m 0
 443 510 531 449 531 320 c 2
 531 0 l 1
 451 0 l 1
 451 292 l 2
 451 403 397 440 328 440 c 0
 255 440 173 394 173 266 c 2
 173 0 l 1
 93 0 l 1
 93 500 l 1
 163 500 l 1
 168 422 l 1
 203 485 267 510 336 510 c 0
244 -237 m 1
 288 -76 l 1
 372 -76 l 1
 307 -237 l 1
 244 -237 l 1
EndSplineSet
Substitution2: "Single Substitution lookup 57 subtable" ncommaaccent.swsh
Substitution2: "'swsh' Swash lookup 38 subtable" ncommaaccent.swsh
Substitution2: "'aalt' Access All Alternates lookup 0 subtable" ncommaaccent.swsh
EndChar

StartChar: uni0157
Encoding: 343 343 265
Width: 408
GlyphClass: 2
Flags: MW
AnchorPoint: "Anchor-0" 154 0 basechar 0
LayerCount: 2
Fore
SplineSet
329 510 m 0
 346 510 369 508 384 500 c 1
 368 422 l 1
 353 430 331 435 305 435 c 0
 245 435 173 382 173 270 c 2
 173 0 l 1
 93 0 l 1
 93 500 l 1
 158 500 l 1
 169 418 l 1
 197 479 251 510 329 510 c 0
56 -237 m 1
 100 -76 l 1
 184 -76 l 1
 119 -237 l 1
 56 -237 l 1
EndSplineSet
Substitution2: "Single Substitution lookup 57 subtable" rcommaaccent.swsh
Substitution2: "'swsh' Swash lookup 38 subtable" rcommaaccent.swsh
Substitution2: "'aalt' Access All Alternates lookup 0 subtable" rcommaaccent.swsh
EndChar

StartChar: uni015F
Encoding: 351 351 266
Width: 527
GlyphClass: 2
Flags: MW
AnchorPoint: "Anchor-0" 279 0 basechar 0
LayerCount: 2
Fore
SplineSet
472 138 m 0
 472 66 417 12 326 -5 c 1
 364 -33 383 -72 383 -108 c 0
 383 -164 341 -215 267 -215 c 0
 220 -215 185 -205 157 -180 c 1
 187 -125 l 1
 203 -142 228 -155 256 -155 c 0
 288 -155 313 -132 313 -97 c 0
 313 -60 297 -38 240 -9 c 1
 157 -4 83 33 48 103 c 1
 113 148 l 1
 137 87 199 60 271 60 c 0
 353 60 392 93 392 134 c 0
 392 171 361 193 261 211 c 0
 119 237 67 276 67 360 c 0
 67 441 142 510 264 510 c 0
 371 510 434 472 462 390 c 1
 394 350 l 1
 372 416 327 440 264 440 c 0
 197 440 147 404 147 367 c 0
 147 324 180 302 282 285 c 0
 422 262 472 220 472 138 c 0
EndSplineSet
Substitution2: "'locl' Localized Forms in Latin lookup 8 subtable" uni0219
Substitution2: "'locl' Localized Forms in Latin lookup 7 subtable" uni0219
EndChar

StartChar: uni0163
Encoding: 355 355 267
Width: 439
GlyphClass: 2
Flags: MW
AnchorPoint: "Anchor-0" 256 0 basechar 0
LayerCount: 2
Fore
SplineSet
312 -6 m 1
 349 -35 366 -73 366 -108 c 0
 366 -164 324 -215 250 -215 c 0
 203 -215 168 -205 140 -180 c 1
 170 -125 l 1
 186 -142 211 -155 239 -155 c 0
 271 -155 296 -132 296 -97 c 0
 296 -58 278 -36 214 -2 c 1
 166 14 132 53 131 124 c 2
 131 431 l 1
 31 431 l 1
 31 500 l 1
 131 500 l 1
 131 620 l 1
 211 642 l 1
 211 500 l 1
 396 500 l 1
 396 431 l 1
 211 431 l 1
 211 138 l 2
 211 89 242 65 286 65 c 0
 322 65 348 79 371 102 c 1
 399 35 l 1
 376 15 347 0 312 -6 c 1
EndSplineSet
Substitution2: "Single Substitution lookup 57 subtable" uni0163.swsh
Substitution2: "'swsh' Swash lookup 38 subtable" uni0163.swsh
Substitution2: "'locl' Localized Forms in Latin lookup 8 subtable" uni021B
Substitution2: "'locl' Localized Forms in Latin lookup 7 subtable" uni021B
Substitution2: "'aalt' Access All Alternates lookup 0 subtable" uni0163.swsh
EndChar

StartChar: uni0219
Encoding: 537 537 268
Width: 527
GlyphClass: 2
Flags: MW
AnchorPoint: "Anchor-0" 279 0 basechar 0
LayerCount: 2
Fore
SplineSet
263 -10 m 0
 171 -10 86 26 48 103 c 1
 113 148 l 1
 137 87 199 60 271 60 c 0
 353 60 392 93 392 134 c 0
 392 171 361 193 261 211 c 0
 119 237 67 276 67 360 c 0
 67 441 142 510 264 510 c 0
 371 510 434 472 462 390 c 1
 394 350 l 1
 372 416 327 440 264 440 c 0
 197 440 147 404 147 367 c 0
 147 324 180 302 282 285 c 0
 422 262 472 220 472 138 c 0
 472 51 391 -10 263 -10 c 0
309 -76 m 1
 244 -237 l 1
 181 -237 l 1
 225 -76 l 1
 309 -76 l 1
EndSplineSet
EndChar

StartChar: uni021B
Encoding: 539 539 269
Width: 419
GlyphClass: 2
Flags: MW
AnchorPoint: "Anchor-0" 256 0 basechar 0
LayerCount: 2
Fore
SplineSet
270 -10 m 0
 196 -10 132 27 131 124 c 2
 131 431 l 1
 31 431 l 1
 31 500 l 1
 131 500 l 1
 131 620 l 1
 211 642 l 1
 211 500 l 1
 396 500 l 1
 396 431 l 1
 211 431 l 1
 211 138 l 2
 211 89 242 65 286 65 c 0
 322 65 348 79 371 102 c 1
 399 35 l 1
 368 7 325 -10 270 -10 c 0
158 -237 m 1
 202 -76 l 1
 286 -76 l 1
 221 -237 l 1
 158 -237 l 1
EndSplineSet
Substitution2: "Single Substitution lookup 57 subtable" uni021B.swsh
Substitution2: "'swsh' Swash lookup 38 subtable" uni021B.swsh
Substitution2: "'aalt' Access All Alternates lookup 0 subtable" uni021B.swsh
EndChar

StartChar: uogonek
Encoding: 371 371 270
Width: 619
GlyphClass: 2
Flags: MW
LayerCount: 2
Fore
SplineSet
521 -145 m 1
 537 -195 l 1
 518 -207 485 -215 456 -215 c 0
 384 -215 350 -177 350 -122 c 0
 350 -64 385 -27 460 10 c 1
 450 90 l 1
 410 26 341 -10 272 -10 c 0
 173 -10 88 41 88 173 c 2
 88 500 l 1
 168 500 l 1
 168 194 l 2
 168 91 214 60 281 60 c 0
 366 60 446 125 446 236 c 2
 446 500 l 1
 526 500 l 1
 526 0 l 1
 443 -44 412 -72 412 -110 c 0
 412 -143 432 -158 466 -158 c 0
 483 -158 505 -155 521 -145 c 1
EndSplineSet
Substitution2: "'smcp' Lowercase to Small Capitals lookup 12 subtable" uogonek.sc
Substitution2: "'aalt' Access All Alternates lookup 0 subtable" uogonek.sc
EndChar

StartChar: uring
Encoding: 367 367 271
Width: 619
GlyphClass: 2
Flags: MW
LayerCount: 2
Fore
SplineSet
305 575 m 0
 230 575 179 623 179 694 c 0
 179 764 230 812 305 812 c 0
 380 812 430 764 430 694 c 0
 430 623 380 575 305 575 c 0
305 763 m 0
 264 763 234 734 234 694 c 0
 234 654 264 625 305 625 c 0
 346 625 376 654 376 694 c 0
 376 734 346 763 305 763 c 0
446 500 m 1
 526 500 l 1
 526 0 l 1
 456 0 l 1
 451 76 l 1
 416 16 352 -10 272 -10 c 0
 173 -10 88 41 88 173 c 2
 88 500 l 1
 168 500 l 1
 168 194 l 2
 168 91 214 60 286 60 c 0
 371 60 446 110 446 228 c 2
 446 500 l 1
EndSplineSet
Substitution2: "'smcp' Lowercase to Small Capitals lookup 12 subtable" uring.sc
Substitution2: "'aalt' Access All Alternates lookup 0 subtable" uring.sc
EndChar

StartChar: v
Encoding: 118 118 272
Width: 520
GlyphClass: 2
Flags: MW
LayerCount: 2
Fore
SplineSet
424 500 m 1
 508 500 l 1
 300 0 l 1
 220 0 l 1
 12 500 l 1
 103 500 l 1
 261 81 l 1
 424 500 l 1
EndSplineSet
Substitution2: "'smcp' Lowercase to Small Capitals lookup 12 subtable" v.sc
Substitution2: "'aalt' Access All Alternates lookup 0 subtable" v.sc
EndChar

StartChar: w
Encoding: 119 119 273
Width: 856
GlyphClass: 2
Flags: MW
LayerCount: 2
Fore
SplineSet
730 500 m 1
 819 500 l 1
 645 0 l 1
 565 0 l 1
 424 398 l 1
 291 0 l 1
 211 0 l 1
 37 500 l 1
 126 500 l 1
 252 93 l 1
 388 500 l 1
 468 500 l 1
 604 93 l 1
 730 500 l 1
EndSplineSet
Substitution2: "'smcp' Lowercase to Small Capitals lookup 12 subtable" w.sc
Substitution2: "'aalt' Access All Alternates lookup 0 subtable" w.sc
EndChar

StartChar: x
Encoding: 120 120 274
Width: 533
GlyphClass: 2
Flags: MW
LayerCount: 2
Fore
SplineSet
500 0 m 1
 402 0 l 1
 264 193 l 1
 122 0 l 1
 29 0 l 1
 221 252 l 1
 41 500 l 1
 141 500 l 1
 273 315 l 1
 403 500 l 1
 497 500 l 1
 316 255 l 1
 500 0 l 1
EndSplineSet
Substitution2: "'smcp' Lowercase to Small Capitals lookup 12 subtable" x.sc
Substitution2: "'aalt' Access All Alternates lookup 0 subtable" x.sc
EndChar

StartChar: y
Encoding: 121 121 275
Width: 535
GlyphClass: 2
Flags: MW
LayerCount: 2
Fore
SplineSet
518 500 m 1
 283 -84 l 2
 244 -182 199 -215 125 -215 c 0
 75 -215 43 -203 15 -173 c 1
 43 -105 l 1
 66 -137 96 -145 124 -145 c 0
 159 -145 190 -130 215 -64 c 2
 241 1 l 1
 32 500 l 1
 123 500 l 1
 248 174 l 1
 279 85 l 1
 315 184 l 1
 432 500 l 1
 518 500 l 1
EndSplineSet
Substitution2: "Single Substitution lookup 57 subtable" y.swsh
Substitution2: "'swsh' Swash lookup 38 subtable" y.swsh
Substitution2: "'smcp' Lowercase to Small Capitals lookup 12 subtable" y.sc
AlternateSubs2: "'aalt' Access All Alternates lookup 1 subtable" y.sc y.swsh
EndChar

StartChar: yacute
Encoding: 253 253 276
Width: 535
GlyphClass: 2
Flags: MW
LayerCount: 2
Fore
SplineSet
300 750 m 1
 387 750 l 1
 289 583 l 1
 224 583 l 1
 300 750 l 1
518 500 m 1
 283 -84 l 2
 244 -182 199 -215 125 -215 c 0
 75 -215 43 -203 15 -173 c 1
 43 -105 l 1
 66 -137 96 -145 124 -145 c 0
 159 -145 190 -130 215 -64 c 2
 241 1 l 1
 32 500 l 1
 123 500 l 1
 248 174 l 1
 279 85 l 1
 315 184 l 1
 432 500 l 1
 518 500 l 1
EndSplineSet
Substitution2: "Single Substitution lookup 57 subtable" yacute.swsh
Substitution2: "'swsh' Swash lookup 38 subtable" yacute.swsh
Substitution2: "'smcp' Lowercase to Small Capitals lookup 12 subtable" yacute.sc
AlternateSubs2: "'aalt' Access All Alternates lookup 1 subtable" yacute.sc yacute.swsh
EndChar

StartChar: ydieresis
Encoding: 255 255 277
Width: 535
GlyphClass: 2
Flags: MW
LayerCount: 2
Fore
SplineSet
176 696 m 0
 210 696 233 673 233 639 c 0
 233 605 210 582 176 582 c 0
 142 582 119 605 119 639 c 0
 119 673 142 696 176 696 c 0
370 696 m 0
 404 696 427 673 427 639 c 0
 427 605 404 582 370 582 c 0
 336 582 313 605 313 639 c 0
 313 673 336 696 370 696 c 0
518 500 m 1
 283 -84 l 2
 244 -182 199 -215 125 -215 c 0
 75 -215 43 -203 15 -173 c 1
 43 -105 l 1
 66 -137 96 -145 124 -145 c 0
 159 -145 190 -130 215 -64 c 2
 241 1 l 1
 32 500 l 1
 123 500 l 1
 248 174 l 1
 279 85 l 1
 315 184 l 1
 432 500 l 1
 518 500 l 1
EndSplineSet
Substitution2: "Single Substitution lookup 57 subtable" ydieresis.swsh
Substitution2: "'swsh' Swash lookup 38 subtable" ydieresis.swsh
Substitution2: "'smcp' Lowercase to Small Capitals lookup 12 subtable" ydieresis.sc
AlternateSubs2: "'aalt' Access All Alternates lookup 1 subtable" ydieresis.sc ydieresis.swsh
EndChar

StartChar: z
Encoding: 122 122 278
Width: 534
GlyphClass: 2
Flags: MW
LayerCount: 2
Fore
SplineSet
57 0 m 1
 57 61 l 1
 319 368 l 1
 382 433 l 1
 293 431 l 1
 60 431 l 1
 60 500 l 1
 471 500 l 1
 471 439 l 1
 209 132 l 1
 147 67 l 1
 244 69 l 1
 479 69 l 1
 479 0 l 1
 57 0 l 1
EndSplineSet
Substitution2: "'smcp' Lowercase to Small Capitals lookup 12 subtable" z.sc
Substitution2: "'aalt' Access All Alternates lookup 0 subtable" z.sc
EndChar

StartChar: zacute
Encoding: 378 378 279
Width: 534
GlyphClass: 2
Flags: MW
LayerCount: 2
Fore
SplineSet
279 750 m 1
 366 750 l 1
 268 583 l 1
 203 583 l 1
 279 750 l 1
57 0 m 1
 57 61 l 1
 319 368 l 1
 382 433 l 1
 293 431 l 1
 60 431 l 1
 60 500 l 1
 471 500 l 1
 471 439 l 1
 209 132 l 1
 147 67 l 1
 244 69 l 1
 479 69 l 1
 479 0 l 1
 57 0 l 1
EndSplineSet
Substitution2: "'smcp' Lowercase to Small Capitals lookup 12 subtable" zacute.sc
Substitution2: "'aalt' Access All Alternates lookup 0 subtable" zacute.sc
EndChar

StartChar: zcaron
Encoding: 382 382 280
Width: 534
GlyphClass: 2
Flags: MW
LayerCount: 2
Fore
SplineSet
410 750 m 1
 298 583 l 1
 206 583 l 1
 94 750 l 1
 167 750 l 1
 252 639 l 1
 337 750 l 1
 410 750 l 1
57 0 m 1
 57 61 l 1
 319 368 l 1
 382 433 l 1
 293 431 l 1
 60 431 l 1
 60 500 l 1
 471 500 l 1
 471 439 l 1
 209 132 l 1
 147 67 l 1
 244 69 l 1
 479 69 l 1
 479 0 l 1
 57 0 l 1
EndSplineSet
Substitution2: "'smcp' Lowercase to Small Capitals lookup 12 subtable" zcaron.sc
Substitution2: "'aalt' Access All Alternates lookup 0 subtable" zcaron.sc
EndChar

StartChar: zdotaccent
Encoding: 380 380 281
Width: 534
GlyphClass: 2
Flags: MW
LayerCount: 2
Fore
SplineSet
252 716 m 0
 288 716 312 692 312 656 c 0
 312 620 288 596 252 596 c 0
 216 596 192 620 192 656 c 0
 192 692 216 716 252 716 c 0
57 0 m 1
 57 61 l 1
 319 368 l 1
 382 433 l 1
 293 431 l 1
 60 431 l 1
 60 500 l 1
 471 500 l 1
 471 439 l 1
 209 132 l 1
 147 67 l 1
 244 69 l 1
 479 69 l 1
 479 0 l 1
 57 0 l 1
EndSplineSet
Substitution2: "'smcp' Lowercase to Small Capitals lookup 12 subtable" zdotaccent.sc
Substitution2: "'aalt' Access All Alternates lookup 0 subtable" zdotaccent.sc
EndChar

StartChar: germandbls.calt
Encoding: 65608 -1 282
Width: 691
GlyphClass: 2
Flags: MW
LayerCount: 2
Fore
SplineSet
448 370 m 2
 569 370 651 303 651 185 c 0
 651 70 565 -5 446 -5 c 0
 363 -5 299 24 275 59 c 1
 309 118 l 1
 334 88 385 68 438 68 c 0
 516 68 567 116 567 185 c 0
 567 257 512 302 416 302 c 2
 339 302 l 1
 339 370 l 1
 513 585 l 1
 330 585 l 2
 253 585 188 525 188 442 c 2
 188 0 l 1
 108 0 l 1
 108 443 l 2
 108 573 203 660 330 660 c 2
 608 660 l 1
 608 584 l 1
 425 370 l 1
 448 370 l 2
EndSplineSet
EndChar

StartChar: longs.component
Encoding: 65609 -1 283
Width: 256
GlyphClass: 2
Flags: MW
LayerCount: 2
Fore
SplineSet
89 0 m 1
 89 584 l 2
 89 673 118 735 217 735 c 0
 241 735 259 731 274 719 c 1
 266 647 l 1
 255 657 243 662 230 662 c 0
 191 662 169 636 169 576 c 2
 169 0 l 1
 89 0 l 1
EndSplineSet
EndChar

StartChar: iacute_j.loclNLD
Encoding: 65610 -1 284
Width: 532
GlyphClass: 2
Flags: MW
LayerCount: 2
Fore
SplineSet
170 750 m 1
 257 750 l 1
 159 583 l 1
 94 583 l 1
 170 750 l 1
434 750 m 1
 521 750 l 1
 423 583 l 1
 358 583 l 1
 434 750 l 1
173 500 m 1
 173 0 l 1
 93 0 l 1
 93 500 l 1
 173 500 l 1
439 500 m 1
 439 -51 l 2
 439 -176 355 -215 287 -215 c 0
 246 -215 210 -201 187 -182 c 1
 204 -106 l 1
 223 -123 251 -137 286 -137 c 0
 329 -137 359 -113 359 -43 c 2
 359 500 l 1
 439 500 l 1
EndSplineSet
Substitution2: "'smcp' Lowercase to Small Capitals lookup 12 subtable" iacute_j.loclNLD.sc
Ligature2: "'locl' Localized Forms in Latin lookup 9 subtable" iacute j
Substitution2: "'aalt' Access All Alternates lookup 0 subtable" iacute_j.loclNLD.sc
EndChar

StartChar: g.ss01
Encoding: 65611 -1 285
Width: 630
GlyphClass: 2
Flags: MW
LayerCount: 2
Fore
SplineSet
471 500 m 1
 537 500 l 1
 537 40 l 2
 537 -132 450 -215 283 -215 c 0
 181 -215 96 -177 78 -92 c 1
 154 -59 l 1
 166 -116 210 -145 295 -145 c 0
 389 -145 456 -77 456 21 c 2
 456 78 l 1
 423 31 365 0 290 0 c 0
 151 0 62 95 62 255 c 0
 62 415 151 510 290 510 c 0
 369 510 430 476 461 424 c 1
 471 500 l 1
299 70 m 0
 394 70 456 139 456 249 c 2
 456 261 l 2
 456 371 394 440 299 440 c 0
 201 440 142 368 142 255 c 0
 142 142 201 70 299 70 c 0
EndSplineSet
EndChar

StartChar: gbreve.ss01
Encoding: 65612 -1 286
Width: 630
GlyphClass: 2
Flags: MW
LayerCount: 2
Fore
SplineSet
287 577 m 0
 199 577 139 637 139 725 c 1
 205 725 l 1
 205 678 240 637 287 637 c 0
 334 637 369 678 369 725 c 1
 435 725 l 1
 435 637 375 577 287 577 c 0
471 500 m 1
 537 500 l 1
 537 40 l 2
 537 -132 450 -215 283 -215 c 0
 181 -215 96 -177 78 -92 c 1
 154 -59 l 1
 166 -116 210 -145 295 -145 c 0
 389 -145 456 -77 456 21 c 2
 456 78 l 1
 423 31 365 0 290 0 c 0
 151 0 62 95 62 255 c 0
 62 415 151 510 290 510 c 0
 369 510 430 476 461 424 c 1
 471 500 l 1
299 70 m 0
 394 70 456 139 456 249 c 2
 456 261 l 2
 456 371 394 440 299 440 c 0
 201 440 142 368 142 255 c 0
 142 142 201 70 299 70 c 0
EndSplineSet
EndChar

StartChar: gcommaaccent.ss01
Encoding: 65613 -1 287
Width: 630
GlyphClass: 2
Flags: MW
LayerCount: 2
Fore
SplineSet
400 778 m 1
 358 587 l 1
 270 587 l 1
 340 778 l 1
 400 778 l 1
471 500 m 1
 537 500 l 1
 537 40 l 2
 537 -132 450 -215 283 -215 c 0
 181 -215 96 -177 78 -92 c 1
 154 -59 l 1
 166 -116 210 -145 295 -145 c 0
 389 -145 456 -77 456 21 c 2
 456 78 l 1
 423 31 365 0 290 0 c 0
 151 0 62 95 62 255 c 0
 62 415 151 510 290 510 c 0
 369 510 430 476 461 424 c 1
 471 500 l 1
299 70 m 0
 394 70 456 139 456 249 c 2
 456 261 l 2
 456 371 394 440 299 440 c 0
 201 440 142 368 142 255 c 0
 142 142 201 70 299 70 c 0
EndSplineSet
EndChar

StartChar: l.ss02
Encoding: 65614 -1 288
Width: 270
GlyphClass: 2
Flags: MW
AnchorPoint: "Anchor-0" 150 0 basechar 0
LayerCount: 2
Fore
SplineSet
175 730 m 1
 175 0 l 1
 95 0 l 1
 95 730 l 1
 175 730 l 1
EndSplineSet
EndChar

StartChar: lacute.ss02
Encoding: 65615 -1 289
Width: 270
GlyphClass: 2
Flags: MW
AnchorPoint: "Anchor-0" 150 0 basechar 0
LayerCount: 2
Fore
SplineSet
136 930 m 1
 224 930 l 1
 163 800 l 1
 99 800 l 1
 136 930 l 1
175 730 m 1
 175 0 l 1
 95 0 l 1
 95 730 l 1
 175 730 l 1
EndSplineSet
EndChar

StartChar: lcaron.ss02
Encoding: 65616 -1 290
Width: 280
GlyphClass: 2
Flags: MW
AnchorPoint: "Anchor-0" 150 0 basechar 0
LayerCount: 2
Fore
SplineSet
175 730 m 1
 175 0 l 1
 95 0 l 1
 95 730 l 1
 175 730 l 1
331 730 m 1
 290 533 l 1
 235 533 l 1
 255 730 l 1
 331 730 l 1
EndSplineSet
EndChar

StartChar: lcommaaccent.ss02
Encoding: 65617 -1 291
Width: 270
GlyphClass: 2
Flags: MW
AnchorPoint: "Anchor-0" 150 0 basechar 0
LayerCount: 2
Fore
SplineSet
175 730 m 1
 175 0 l 1
 95 0 l 1
 95 730 l 1
 175 730 l 1
180 -76 m 1
 115 -237 l 1
 52 -237 l 1
 96 -76 l 1
 180 -76 l 1
EndSplineSet
EndChar

StartChar: ldot.ss02
Encoding: 65618 -1 292
Width: 430
GlyphClass: 2
Flags: MW
AnchorPoint: "Anchor-0" 150 0 basechar 0
LayerCount: 2
Fore
SplineSet
175 730 m 1
 175 0 l 1
 95 0 l 1
 95 730 l 1
 175 730 l 1
350 420 m 0
 389 420 415 394 415 355 c 0
 415 316 389 290 350 290 c 0
 311 290 285 316 285 355 c 0
 285 394 311 420 350 420 c 0
EndSplineSet
EndChar

StartChar: lslash.ss02
Encoding: 65619 -1 293
Width: 323
GlyphClass: 2
Flags: MW
AnchorPoint: "Anchor-0" 178 0 basechar 0
LayerCount: 2
Fore
SplineSet
284 478 m 1
 284 395 l 1
 203 344 l 1
 203 0 l 1
 123 0 l 1
 123 293 l 1
 42 241 l 1
 42 324 l 1
 123 376 l 1
 123 730 l 1
 203 730 l 1
 203 427 l 1
 284 478 l 1
EndSplineSet
EndChar

StartChar: n.swsh
Encoding: 65620 -1 294
Width: 619
GlyphClass: 2
Flags: MW
AnchorPoint: "Anchor-0" 342 0 basechar 0
LayerCount: 2
Fore
SplineSet
578 -27 m 0
 597 -27 608 -25 624 -18 c 1
 612 -77 l 1
 598 -86 583 -90 552 -90 c 0
 484 -90 451 -41 451 30 c 2
 451 292 l 2
 451 403 397 440 328 440 c 0
 255 440 173 394 173 266 c 2
 173 0 l 1
 93 0 l 1
 93 500 l 1
 163 500 l 1
 168 422 l 1
 203 485 267 510 336 510 c 0
 443 510 531 449 531 320 c 2
 531 27 l 2
 531 -13 553 -27 578 -27 c 0
EndSplineSet
EndChar

StartChar: nacute.swsh
Encoding: 65621 -1 295
Width: 619
GlyphClass: 2
Flags: MW
AnchorPoint: "Anchor-0" 342 0 basechar 0
LayerCount: 2
Fore
SplineSet
432 750 m 1
 334 583 l 1
 269 583 l 1
 345 750 l 1
 432 750 l 1
578 -27 m 0
 597 -27 608 -25 624 -18 c 1
 612 -77 l 1
 598 -86 583 -90 552 -90 c 0
 484 -90 451 -41 451 30 c 2
 451 292 l 2
 451 403 397 440 328 440 c 0
 255 440 173 394 173 266 c 2
 173 0 l 1
 93 0 l 1
 93 500 l 1
 163 500 l 1
 168 422 l 1
 203 485 267 510 336 510 c 0
 443 510 531 449 531 320 c 2
 531 27 l 2
 531 -13 553 -27 578 -27 c 0
EndSplineSet
EndChar

StartChar: ncaron.swsh
Encoding: 65622 -1 296
Width: 619
GlyphClass: 2
Flags: MW
AnchorPoint: "Anchor-0" 342 0 basechar 0
LayerCount: 2
Fore
SplineSet
364 583 m 1
 272 583 l 1
 160 750 l 1
 233 750 l 1
 318 639 l 1
 403 750 l 1
 476 750 l 1
 364 583 l 1
578 -27 m 0
 597 -27 608 -25 624 -18 c 1
 612 -77 l 1
 598 -86 583 -90 552 -90 c 0
 484 -90 451 -41 451 30 c 2
 451 292 l 2
 451 403 397 440 328 440 c 0
 255 440 173 394 173 266 c 2
 173 0 l 1
 93 0 l 1
 93 500 l 1
 163 500 l 1
 168 422 l 1
 203 485 267 510 336 510 c 0
 443 510 531 449 531 320 c 2
 531 27 l 2
 531 -13 553 -27 578 -27 c 0
EndSplineSet
EndChar

StartChar: ncommaaccent.swsh
Encoding: 65623 -1 297
Width: 619
GlyphClass: 2
Flags: MW
AnchorPoint: "Anchor-0" 342 0 basechar 0
LayerCount: 2
Fore
SplineSet
578 -27 m 0
 597 -27 608 -25 624 -18 c 1
 612 -77 l 1
 598 -86 583 -90 552 -90 c 0
 484 -90 451 -41 451 30 c 2
 451 292 l 2
 451 403 397 440 328 440 c 0
 255 440 173 394 173 266 c 2
 173 0 l 1
 93 0 l 1
 93 500 l 1
 163 500 l 1
 168 422 l 1
 203 485 267 510 336 510 c 0
 443 510 531 449 531 320 c 2
 531 27 l 2
 531 -13 553 -27 578 -27 c 0
244 -237 m 1
 288 -76 l 1
 372 -76 l 1
 307 -237 l 1
 244 -237 l 1
EndSplineSet
EndChar

StartChar: ntilde.swsh
Encoding: 65624 -1 298
Width: 619
GlyphClass: 2
Flags: MW
AnchorPoint: "Anchor-0" 342 0 basechar 0
LayerCount: 2
Fore
SplineSet
248 651 m 0
 218 651 206 625 199 582 c 1
 136 582 l 1
 143 670 178 716 249 716 c 0
 322 716 345 648 385 648 c 0
 415 648 428 674 435 717 c 1
 498 717 l 1
 491 629 455 583 386 583 c 0
 311 583 291 651 248 651 c 0
578 -27 m 0
 597 -27 608 -25 624 -18 c 1
 612 -77 l 1
 598 -86 583 -90 552 -90 c 0
 484 -90 451 -41 451 30 c 2
 451 292 l 2
 451 403 397 440 328 440 c 0
 255 440 173 394 173 266 c 2
 173 0 l 1
 93 0 l 1
 93 500 l 1
 163 500 l 1
 168 422 l 1
 203 485 267 510 336 510 c 0
 443 510 531 449 531 320 c 2
 531 27 l 2
 531 -13 553 -27 578 -27 c 0
EndSplineSet
EndChar

StartChar: r.swsh
Encoding: 65625 -1 299
Width: 493
GlyphClass: 2
Flags: MW
AnchorPoint: "Anchor-0" 154 0 basechar 0
LayerCount: 2
Fore
SplineSet
309 510 m 0
 413 510 428 456 503 443 c 1
 460 383 l 1
 397 397 378 435 309 435 c 0
 240 435 173 382 173 270 c 2
 173 0 l 1
 93 0 l 1
 93 500 l 1
 158 500 l 1
 169 418 l 1
 196 479 247 510 309 510 c 0
EndSplineSet
EndChar

StartChar: racute.swsh
Encoding: 65626 -1 300
Width: 493
GlyphClass: 2
Flags: MW
AnchorPoint: "Anchor-0" 154 0 basechar 0
LayerCount: 2
Fore
SplineSet
334 750 m 1
 236 583 l 1
 171 583 l 1
 247 750 l 1
 334 750 l 1
309 510 m 0
 413 510 428 456 503 443 c 1
 460 383 l 1
 397 397 378 435 309 435 c 0
 240 435 173 382 173 270 c 2
 173 0 l 1
 93 0 l 1
 93 500 l 1
 158 500 l 1
 169 418 l 1
 196 479 247 510 309 510 c 0
EndSplineSet
EndChar

StartChar: rcaron.swsh
Encoding: 65627 -1 301
Width: 493
GlyphClass: 2
Flags: MW
AnchorPoint: "Anchor-0" 154 0 basechar 0
LayerCount: 2
Fore
SplineSet
266 583 m 1
 174 583 l 1
 62 750 l 1
 135 750 l 1
 220 639 l 1
 305 750 l 1
 378 750 l 1
 266 583 l 1
309 510 m 0
 413 510 428 456 503 443 c 1
 460 383 l 1
 397 397 378 435 309 435 c 0
 240 435 173 382 173 270 c 2
 173 0 l 1
 93 0 l 1
 93 500 l 1
 158 500 l 1
 169 418 l 1
 196 479 247 510 309 510 c 0
EndSplineSet
EndChar

StartChar: rcommaaccent.swsh
Encoding: 65628 -1 302
Width: 493
GlyphClass: 2
Flags: MW
AnchorPoint: "Anchor-0" 154 0 basechar 0
LayerCount: 2
Fore
SplineSet
309 510 m 0
 413 510 428 456 503 443 c 1
 460 383 l 1
 397 397 378 435 309 435 c 0
 240 435 173 382 173 270 c 2
 173 0 l 1
 93 0 l 1
 93 500 l 1
 158 500 l 1
 169 418 l 1
 196 479 247 510 309 510 c 0
56 -237 m 1
 100 -76 l 1
 184 -76 l 1
 119 -237 l 1
 56 -237 l 1
EndSplineSet
EndChar

StartChar: t.swsh
Encoding: 65629 -1 303
Width: 439
GlyphClass: 2
Flags: MW
AnchorPoint: "Anchor-0" 256 0 basechar 0
LayerCount: 2
Fore
SplineSet
347 431 m 2
 211 431 l 1
 211 138 l 2
 211 89 242 65 286 65 c 0
 322 65 348 79 371 102 c 1
 399 35 l 1
 368 7 325 -10 270 -10 c 0
 196 -10 132 27 131 124 c 2
 131 431 l 1
 31 431 l 1
 31 500 l 1
 131 500 l 1
 131 620 l 1
 211 642 l 1
 211 500 l 1
 349 500 l 2
 432 500 474 513 504 548 c 1
 539 496 l 1
 500 449 452 431 347 431 c 2
EndSplineSet
EndChar

StartChar: tcaron.swsh
Encoding: 65630 -1 304
Width: 439
GlyphClass: 2
Flags: MW
AnchorPoint: "Anchor-0" 256 0 basechar 0
LayerCount: 2
Fore
SplineSet
368 767 m 1
 327 570 l 1
 272 570 l 1
 292 767 l 1
 368 767 l 1
347 431 m 2
 211 431 l 1
 211 138 l 2
 211 89 242 65 286 65 c 0
 322 65 348 79 371 102 c 1
 399 35 l 1
 368 7 325 -10 270 -10 c 0
 196 -10 132 27 131 124 c 2
 131 431 l 1
 31 431 l 1
 31 500 l 1
 131 500 l 1
 131 620 l 1
 211 642 l 1
 211 500 l 1
 349 500 l 2
 432 500 474 513 504 548 c 1
 539 496 l 1
 500 449 452 431 347 431 c 2
EndSplineSet
EndChar

StartChar: uni0163.swsh
Encoding: 65631 -1 305
Width: 419
GlyphClass: 2
Flags: MW
AnchorPoint: "Anchor-0" 256 0 basechar 0
LayerCount: 2
Fore
SplineSet
347 431 m 2
 211 431 l 1
 211 138 l 2
 211 89 242 65 286 65 c 0
 322 65 348 79 371 102 c 1
 399 35 l 1
 378 16 352 2 320 -5 c 1
 358 -33 376 -72 376 -108 c 0
 376 -164 334 -215 260 -215 c 0
 213 -215 178 -205 150 -180 c 1
 180 -125 l 1
 196 -142 221 -155 249 -155 c 0
 281 -155 306 -132 306 -97 c 0
 306 -60 290 -38 233 -7 c 1
 176 4 132 44 131 124 c 2
 131 431 l 1
 31 431 l 1
 31 500 l 1
 131 500 l 1
 131 620 l 1
 211 642 l 1
 211 500 l 1
 349 500 l 2
 432 500 474 513 504 548 c 1
 539 496 l 1
 500 449 452 431 347 431 c 2
EndSplineSet
EndChar

StartChar: uni021B.swsh
Encoding: 65632 -1 306
Width: 439
GlyphClass: 2
Flags: MW
AnchorPoint: "Anchor-0" 256 0 basechar 0
LayerCount: 2
Fore
SplineSet
347 431 m 2
 211 431 l 1
 211 138 l 2
 211 89 242 65 286 65 c 0
 322 65 348 79 371 102 c 1
 399 35 l 1
 368 7 325 -10 270 -10 c 0
 196 -10 132 27 131 124 c 2
 131 431 l 1
 31 431 l 1
 31 500 l 1
 131 500 l 1
 131 620 l 1
 211 642 l 1
 211 500 l 1
 349 500 l 2
 432 500 474 513 504 548 c 1
 539 496 l 1
 500 449 452 431 347 431 c 2
158 -237 m 1
 202 -76 l 1
 286 -76 l 1
 221 -237 l 1
 158 -237 l 1
EndSplineSet
EndChar

StartChar: y.swsh
Encoding: 65633 -1 307
Width: 547
GlyphClass: 2
Flags: MW
LayerCount: 2
Fore
SplineSet
125 -215 m 0
 75 -215 43 -203 15 -173 c 1
 43 -105 l 1
 66 -137 96 -145 124 -145 c 0
 159 -145 190 -130 215 -64 c 2
 241 1 l 1
 32 500 l 1
 123 500 l 1
 248 174 l 1
 279 85 l 1
 315 184 l 1
 425 468 l 2
 457 552 496 589 560 589 c 0
 597 589 621 581 638 564 c 1
 622 513 l 1
 609 523 599 527 577 527 c 0
 540 527 518 509 499 460 c 2
 283 -84 l 2
 244 -182 199 -215 125 -215 c 0
EndSplineSet
EndChar

StartChar: yacute.swsh
Encoding: 65634 -1 308
Width: 547
GlyphClass: 2
Flags: MW
LayerCount: 2
Fore
SplineSet
300 750 m 1
 387 750 l 1
 289 583 l 1
 224 583 l 1
 300 750 l 1
125 -215 m 0
 75 -215 43 -203 15 -173 c 1
 43 -105 l 1
 66 -137 96 -145 124 -145 c 0
 159 -145 190 -130 215 -64 c 2
 241 1 l 1
 32 500 l 1
 123 500 l 1
 248 174 l 1
 279 85 l 1
 315 184 l 1
 425 468 l 2
 457 552 496 589 560 589 c 0
 597 589 621 581 638 564 c 1
 622 513 l 1
 609 523 599 527 577 527 c 0
 540 527 518 509 499 460 c 2
 283 -84 l 2
 244 -182 199 -215 125 -215 c 0
EndSplineSet
EndChar

